<?xml version="1.0" encoding="utf-8"?>
<!-- Generator: Adobe Illustrator 18.0.0, SVG Export Plug-In . SVG Version: 6.00 Build 0)  -->
<!DOCTYPE svg PUBLIC "-//W3C//DTD SVG 1.1//EN" "http://www.w3.org/Graphics/SVG/1.1/DTD/svg11.dtd">
<svg version="1.1"
	 id="svg3176" xmlns:rdf="http://www.w3.org/1999/02/22-rdf-syntax-ns#" xmlns:inkscape="http://www.inkscape.org/namespaces/inkscape" xmlns:sodipodi="http://sodipodi.sourceforge.net/DTD/sodipodi-0.dtd" xmlns:dc="http://purl.org/dc/elements/1.1/" xmlns:svg="http://www.w3.org/2000/svg" xmlns:cc="http://creativecommons.org/ns#" sodipodi:docname="Spotify.svg" inkscape:version="0.48.2 r9819"
	 xmlns="http://www.w3.org/2000/svg" xmlns:xlink="http://www.w3.org/1999/xlink" x="0px" y="0px" viewBox="0 0 200 62.971"
	 enable-background="new 0 0 200 62.971" xml:space="preserve">
<sodipodi:namedview  pagecolor="#ffffff" showgrid="false" bordercolor="#666666" fit-margin-left="0.5" fit-margin-top="0.5" inkscape:cy="41.237869" borderopacity="1.0" inkscape:zoom="0.49497475" id="base" inkscape:cx="887.12736" inkscape:pageopacity="0.0" inkscape:pageshadow="2" inkscape:document-units="px" inkscape:current-layer="g3128" fit-margin-bottom="0.5" fit-margin-right="0.5" inkscape:window-width="1511" inkscape:window-height="1036" inkscape:window-x="371" inkscape:window-y="4" inkscape:window-maximized="0">
	</sodipodi:namedview>
<g id="layer1" transform="translate(1427.1504,-1141.058)" inkscape:label="Layer 1" inkscape:groupmode="layer">
	<g id="g3128" transform="matrix(0.37570303,0,0,0.37570303,-1141.6023,902.42898)">
		<g id="g3013" transform="matrix(0.1991992,0,0,0.1991992,-607.5723,641.78634)">
			<path id="path3017" sodipodi:nodetypes="ccccccscccccccccccc" inkscape:connector-curvature="0" d="M196.137,525.367
				c-4.303-3.285-2.699-6.753-0.091-9.752l37.156-43.845c3.005-3.325,5.86-2.894,9.27,0.066
				c33.395,28.787,63.427,45.656,111.274,45.656c30.592,0,61.184-11.682,61.184-42.384c0-10.052-3.377-18.656-9.348-24.706
				c-38.532-39.06-197.425-18.878-197.425-142.329c0-54.034,39.288-113.542,132.59-113.542c57.058,0,100.25,19.875,134.109,46.113
				c5.104,4.029,3.846,6.832,1.349,9.921l-32.763,46.283c-3.155,4.048-5.28,4.133-11.225,0
				c-19.172-14.785-52.221-34.568-93.484-34.568c-34.001,0-55.891,15.475-55.891,40.246c0,73.791,206.779,26.466,206.779,167.041
				c0,68.081-52.704,115.172-136.886,115.172C293.264,584.74,242.021,564.61,196.137,525.367z"/>
			<path id="path3019" inkscape:connector-curvature="0" d="M676.979,284.965c-45.526,0-69.019,20.566-89.488,42.462v-30.566
				c0-4.002-1.617-5.899-5.75-5.899h-60.695c-6.232,0-6.995,1.558-6.995,6.994v360.183c0,4.133,1.63,5.997,5.997,5.997h60.441
				c4.654,0,7.001-1.472,7.001-6.988V544.584c15.645,20.117,46.726,40.741,89.201,40.741c66.647,0,135.25-49.528,135.25-149.864
				C811.943,328.764,737.33,284.965,676.979,284.965z M662.325,350.223c37.665,0,75.069,29.634,75.069,85.76
				c0,50.273-32.84,84.143-75.069,84.143c-45.37,0-76.347-40.259-76.347-84.638C585.979,391.415,614.961,350.223,662.325,350.223z"
				/>
			<g id="flowRoot3023" transform="matrix(13.258321,0,0,13.518561,-7360.2406,-3893.01)">
				<path id="path3032" sodipodi:nodetypes="ccccccccssssssssccccccccc" inkscape:connector-curvature="0" d="M641.031,320.199
					v-0.08c0-1.545-0.293-2.991-0.88-4.336c-0.586-1.346-1.391-2.518-2.417-3.517c-1.027-0.999-2.245-1.785-3.658-2.357
					c-1.412-0.572-2.944-0.859-4.595-0.859c-1.679,0-3.224,0.293-4.636,0.879c-1.412,0.586-2.637,1.385-3.677,2.397
					c-1.039,1.013-1.852,2.192-2.438,3.537c-0.586,1.344-0.879,2.791-0.879,4.336v0.079c0,1.546,0.293,2.992,0.879,4.338
					c0.586,1.345,1.392,2.517,2.418,3.516c1.026,0.999,2.245,1.785,3.657,2.358c1.412,0.572,2.944,0.859,4.596,0.859
					c1.679,0,3.223-0.293,4.635-0.88c1.412-0.586,2.637-1.386,3.678-2.398c1.038-1.013,1.851-2.191,2.437-3.537
					C640.738,323.19,641.031,321.744,641.031,320.199L641.031,320.199z M629.468,326.51c-3.978,0-6.087-3.448-6.087-6.365
					c0-3.603,2.586-6.25,5.999-6.25c2.996,0,6.099,2.329,6.099,6.383C635.479,324.182,632.588,326.51,629.468,326.51L629.468,326.51
					z"/>
			</g>
			<path id="path3034" sodipodi:nodetypes="ccccccccccccccccccccccccc" inkscape:connector-curvature="0" d="M1282.408,517.701
				c16.035,0,28.134-5.319,34.08-8.031c5.736-3.181,9.856-1.643,9.856,4.589v49.945c0,3.064-1.682,4.759-4.329,6.219
				c-16.205,8.11-32.528,13.911-58.602,13.911c-57.051,0-84.938-31.055-84.938-85.068V355.393h-29.986c-3.872,0-4.98-2.033-4.98-5
				v-55.448c0-2.549,1.264-3.996,3.989-3.996h30.977v-70.441c0-3.273,1.095-5.997,5.997-5.997h60.936
				c5.293,0,7.001,2.262,7.001,6.995v69.443h69.633c3.051,0,5.293,1.597,5.293,5.99v52.456c0,4.094-1.864,5.997-5.997,5.997h-68.929
				v130.888C1252.409,503.829,1257.428,517.701,1282.408,517.701z"/>
			<path id="path3036" sodipodi:nodetypes="ccccccccc" inkscape:connector-curvature="0" d="M1362.314,579.198
				c-3.951,0-5.997-1.891-5.997-5.997V296.94c0-3.846,1.629-5.99,5.997-5.99h61.836c4.667,0,6.101,2.614,6.101,6.043v276.209
				c0,4.706-2.085,5.997-5.997,5.997H1362.314z"/>
			
				<path id="path3038" sodipodi:type="arc" sodipodi:cx="1331.2548" sodipodi:cy="176.18112" sodipodi:rx="19.319168" sodipodi:ry="19.319168" d="
				M1439.677,209.864c0,25.371-20.573,45.937-45.943,45.937c-25.371,0-45.931-20.566-45.931-45.937s20.56-45.944,45.931-45.944
				C1419.104,163.92,1439.677,184.493,1439.677,209.864z"/>
			<path id="path3040" sodipodi:nodetypes="ccccccccccccccccccccccccccccccccccccc" inkscape:connector-curvature="0" d="
				M1500.184,579.198c-3.455,0-4.98-1.891-4.98-4.993V355.393h-29.986l-4.993-5V296.04c0-3.416,1.03-5.091,4.993-5.091h29.986
				v-13.487c0-53.296,21.524-96.652,90.61-96.652c21.315,0,43.335,5.052,51.602,7.04c3.493,1.076,4.654,2.601,4.654,5.684v52.951
				c0,5.404-3.872,6.376-10.651,3.944c-5.214-1.793-17.626-5.326-31.211-5.326c-25.618,0-33.075,15.143-33.075,38.35v7.497h108.9
				c3.025,0,4.381,1.226,6.062,5.678l73.401,192.457l66.737-191.225c1.774-4.87,2.791-6.414,6.676-6.414h64.939
				c6.272,0,6.219,4.361,3.742,10.325l-108.783,282.109c-16.193,37.169-32.085,81.666-96.842,81.666
				c-30.976,0-47.69-7.302-68.198-16.936c-4.759-2.151-2.621-6.922-0.039-11.786l18.89-41.524c2.177-4.823,5.424-4.172,9.687-2.112
				c5.136,2.581,18.175,8.995,32.789,8.995c18.891,0,26.83-12.02,34.236-27.443l-91.248-219.347h-59.946v218.813
				c0,3.233-1.565,4.993-5.007,4.993H1500.184z"/>
			<g id="g3099" transform="matrix(0.55912573,0,0,0.55912573,-580.3448,-883.96648)">
				
					<path id="path3103" sodipodi:nodetypes="cccccccccccc" inkscape:connector-curvature="0" fill="#7A9F3F" stroke="#008080" stroke-width="0.25" d="
					M-30.412,2470.748l2.506,24.437l18.887,8.767c1.085-28.959,19.086-46.542,42.858-50.784
					c75.327-16.37,167.99-32.039,275.938-32.039c169.727,0,316.148,42.113,434.624,114.35c17.5,10.632,23.224,23.877,25.719,41.435
					l65.813-42.602l-16.637-65.568l-491.297-131.812l-459.34,58.573L-30.412,2470.748z"/>
				
					<path id="path3105" sodipodi:nodetypes="cccccccccc" inkscape:connector-curvature="0" fill="#82A73E" stroke="#000080" stroke-width="0.25" d="
					M-61.448,2287.987l22.303-8.406c0.781-27.945,15.856-51.192,48.104-59.983c83.418-24.506,181.397-39.861,288.413-39.861
					c205.297,0,393.456,53.782,530.912,136.652c22,13.523,30.442,23.503,34.591,58.876l101.093-55.565l-424.598-198.653
					l-709.862,41.423L-61.448,2287.987z"/>
				
					<path id="path3107" sodipodi:nodetypes="ccccccccc" inkscape:connector-curvature="0" fill="#81A83E" stroke="#000000" stroke-width="0.25" d="
					M-89.405,2052.167c-2.262-41.761,19.645-71.817,51.752-81.051c105.558-30.651,218.752-45.691,352.501-45.691
					c222.47,0,445.967,46.565,609.469,141.023c32.132,17.488,41.412,40.968,43.161,76.865l101.466-66.991l-304.56-257.482
					l-932.053,99.787L-89.405,2052.167z"/>
				
					<radialGradient id="path3101_1_" cx="125321.0781" cy="52127.25" r="739.8469" gradientTransform="matrix(0 0.0676 0.0563 0 -2494.8162 -6573.2266)" gradientUnits="userSpaceOnUse">
					<stop  offset="0" style="stop-color:#A9D03F"/>
					<stop  offset="0.0711" style="stop-color:#A9D03F"/>
					<stop  offset="0.2468" style="stop-color:#A1CC3E"/>
					<stop  offset="0.4557" style="stop-color:#94C93D"/>
					<stop  offset="0.5966" style="stop-color:#8DC540"/>
					<stop  offset="0.7966" style="stop-color:#84BC41"/>
					<stop  offset="1" style="stop-color:#79B641"/>
				</radialGradient>
				<path id="path3101" inkscape:connector-curvature="0" fill="url(#path3101_1_)" d="M422.924,1534.02
					c-408.602,0-739.849,331.223-739.849,739.825s331.247,739.848,739.849,739.848c408.613,0,739.86-331.247,739.86-739.848
					S831.537,1534.02,422.924,1534.02z M314.37,1920.156c217.248,0,445.816,44.687,612.78,142.749
					c22.501,12.743,38.124,31.968,38.124,67.188c0,40.327-32.423,69.311-69.789,69.311c-15.063,0-24.006-3.66-38.124-11.39
					c-133.911-80.294-341.727-124.515-542.712-124.515c-100.323,0-202.22,10.202-295.559,35.524
					c-10.75,2.705-24.332,8.091-37.937,8.091c-39.465,0-69.743-31.222-69.743-70.686c0-40.211,24.915-62.782,51.799-70.722
					C68.675,1934.636,186.393,1920.156,314.37,1920.156z M299.284,2174.374c193.663,0,381.005,48.232,528.29,136.372
					c24.693,14.176,33.787,32.131,33.787,58.479c0,32.039-25.51,57.921-57.663,57.921c-16.055,0-26.162-6.483-37.063-12.824
					c-120.353-71.421-287.154-118.873-469.81-118.873c-93.69,0-174.542,13.104-241.475,30.943
					c-14.422,3.963-22.513,8.231-36.002,8.231c-31.817,0-57.793-25.929-57.793-58.002c0-31.456,15.25-53.117,46.017-61.792
					C90.745,2191.99,175.667,2174.374,299.284,2174.374z M309.439,2415.976c161.893,0,306.18,37.146,430.345,111.552
					c18.479,10.796,29.31,21.801,29.31,49.175c0,26.677-21.686,46.261-46.017,46.261c-11.962,0-20.135-4.149-31.316-10.958
					c-107.237-64.869-240.927-98.958-382.824-98.958c-79.163,0-158.838,10.142-233.361,25.649
					c-12.113,2.635-27.363,7.323-36.468,7.323c-28.097,0-46.833-22.338-46.833-46.496c0-31.105,17.931-46.563,40.246-50.831
					C123.902,2427.868,214.91,2415.976,309.439,2415.976z"/>
			</g>
		</g>
	</g>
</g>
</svg>
