<?xml version="1.0" encoding="UTF-8" standalone="no"?>
<!-- Created with Inkscape (http://www.inkscape.org/) -->

<svg
   xmlns:dc="http://purl.org/dc/elements/1.1/"
   xmlns:cc="http://creativecommons.org/ns#"
   xmlns:rdf="http://www.w3.org/1999/02/22-rdf-syntax-ns#"
   xmlns:svg="http://www.w3.org/2000/svg"
   xmlns="http://www.w3.org/2000/svg"
   xmlns:inkscape="http://www.inkscape.org/namespaces/inkscape"
   version="1.1"
   width="3211.1875"
   height="1000"
   id="svg2"
   xml:space="preserve"><metadata
     id="metadata8"><rdf:RDF><cc:Work
         rdf:about=""><dc:format>image/svg+xml</dc:format><dc:type
           rdf:resource="http://purl.org/dc/dcmitype/StillImage" /></cc:Work></rdf:RDF></metadata><defs
     id="defs6"><clipPath
       id="clipPath18"><path
         d="m 0,0 14669.7,0 0,4568 L 0,4568 0,0 z"
         inkscape:connector-curvature="0"
         id="path20" /></clipPath><clipPath
       id="clipPath52"><path
         d="m 0,0 0,4568 14670,0 L 14670,0 0,0 z"
         inkscape:connector-curvature="0"
         id="path54" /></clipPath><clipPath
       id="clipPath58"><path
         d="m 1933.82,1845.38 c 499.82,0 945.29,-114.68 1328.64,-344.4 57.06,-33.33 90.49,-67.31 90.49,-151.82 0,-82.36 -66.95,-142.83 -142.07,-142.83 -36.93,0 -62.17,12.81 -96.68,33.84 -331.09,200.27 -743.83,305.52 -1181.93,305.52 -244.4,0 -490.39,-31.31 -720.47,-79.19 -37.39,-8.13 -84.48,-22.61 -112.59,-22.61 -86.75,0 -144.593,68.97 -144.593,143.56 0,96.03 55.363,143.75 124.253,156.93 282.13,64.28 563.11,101 854.95,101 z m -31.35,745.92 c 597.91,0 1176.31,-148.91 1631.03,-421.03 76.24,-43.77 104.31,-99.2 104.31,-180.55 0,-98.92 -78.76,-178.82 -178.02,-178.82 -49.57,0 -80.78,20.01 -114.43,39.59 -371.57,220.51 -886.56,367.01 -1450.48,367.01 -289.26,0 -538.88,-40.46 -745.53,-95.54 -44.53,-12.23 -69.5,-25.41 -111.15,-25.41 -98.235,0 -178.427,80.05 -178.427,179.07 0,97.12 47.082,164 142.067,190.78 256.79,70.51 518.98,124.9 900.63,124.9 z m 46.57,784.87 c 670.73,0 1376.41,-137.97 1891.89,-440.72 69.47,-39.34 117.7,-98.7 117.7,-207.44 0,-124.51 -100.09,-213.99 -215.46,-213.99 -46.51,0 -74.12,11.3 -117.71,35.17 -413.42,247.89 -1055.03,384.42 -1675.55,384.42 -309.74,0 -624.33,-31.5 -912.5,-109.68 -33.19,-8.34 -75.125,-24.97 -117.129,-24.97 -121.843,0 -215.32,96.39 -215.32,218.23 0,124.15 76.918,193.83 159.922,218.34 325.607,95.93 689.047,140.64 1084.157,140.64 z m 335.15,1192.15 C 1022.69,4568.32 0,3545.7 0,2284.19 0,1022.69 1022.69,0 2284.19,0 c 1261.55,0 2284.23,1022.69 2284.23,2284.19 0,1261.51 -1022.68,2284.13 -2284.23,2284.13 z"
         inkscape:connector-curvature="0"
         id="path60" /></clipPath><radialGradient
       cx="0"
       cy="0"
       r="1"
       fx="0"
       fy="0"
       id="radialGradient62"
       gradientUnits="userSpaceOnUse"
       gradientTransform="matrix(0,-646.122,538.299,0,409.211,602.952)"
       spreadMethod="pad"><stop
         id="stop64"
         style="stop-color:#9cd527;stop-opacity:1"
         offset="0" /><stop
         id="stop66"
         style="stop-color:#94d226;stop-opacity:1"
         offset="0.246774" /><stop
         id="stop68"
         style="stop-color:#94d226;stop-opacity:1"
         offset="0.246774" /><stop
         id="stop70"
         style="stop-color:#87ce28;stop-opacity:1"
         offset="0.45569599" /><stop
         id="stop72"
         style="stop-color:#80cb2a;stop-opacity:1"
         offset="0.59659398" /><stop
         id="stop74"
         style="stop-color:#77c22b;stop-opacity:1"
         offset="0.79657602" /><stop
         id="stop76"
         style="stop-color:#6cbc2f;stop-opacity:1"
         offset="1" /></radialGradient></defs><g
     transform="matrix(1.25,0,0,-1.25,0,1000)"
     id="g10"><g
       transform="scale(0.175119,0.175119)"
       id="g12"><g
         id="g14"><g
           clip-path="url(#clipPath18)"
           id="g16"><path
             d="m 5266.04,1522.37 c -23.76,18.13 -14.9,37.29 -0.5,53.84 l 205.17,242.11 c 16.59,18.36 32.35,15.98 51.18,-0.37 184.4,-158.95 350.22,-252.1 614.44,-252.1 168.92,0 337.83,64.5 337.83,234.03 0,55.51 -18.62,103.02 -51.62,136.42 -212.77,215.68 -1090.13,104.25 -1090.13,785.91 0,298.36 216.95,626.96 732.14,626.96 315.04,0 553.57,-109.74 740.52,-254.62 28.16,-22.25 21.25,-37.73 7.43,-54.79 L 6631.59,2784.2 c -17.41,-22.36 -29.12,-22.82 -61.95,0 -105.87,81.64 -288.38,190.87 -516.22,190.87 -187.76,0 -308.59,-85.45 -308.59,-222.23 0,-407.46 1141.79,-146.14 1141.79,-922.36 0,-375.93 -291.06,-635.96 -755.89,-635.96 -328.4,0 -611.33,111.15 -864.69,327.85"
             inkscape:connector-curvature="0"
             id="path22"
             style="fill:#100f0d;fill-opacity:1;fill-rule:nonzero;stroke:none" /><path
             d="m 7840.26,2489.48 c 207.97,0 414.51,-163.64 414.51,-473.56 0,-277.59 -181.36,-464.62 -414.51,-464.62 -250.52,0 -421.6,222.31 -421.6,467.36 0,243.36 160.06,470.82 421.6,470.82 z m 80.91,360.34 c -251.43,0 -381.11,-113.57 -494.17,-234.47 l 0,168.77 c 0,22.11 -8.91,32.58 -31.7,32.58 l -335.2,0 c -34.37,0 -38.6,-8.6 -38.6,-38.62 l 0,-1988.857 c 0,-22.821 9.02,-33.114 33.12,-33.114 l 333.77,0 c 25.7,0 38.61,8.129 38.61,38.582 l 0,621.559 c 86.39,-111.08 258.05,-224.96 492.57,-224.96 368.04,0 746.81,273.48 746.81,827.51 0,589.16 -412,831.02 -745.21,831.02"
             inkscape:connector-curvature="0"
             id="path24"
             style="fill:#100f0d;fill-opacity:1;fill-rule:nonzero;stroke:none" /><path
             d="m 9624.41,1546.84 c -291.17,0 -445.58,257.36 -445.58,475.13 0,268.96 189.3,466.57 439.19,466.57 219.33,0 446.48,-173.9 446.48,-476.5 0,-291.42 -211.67,-465.2 -440.09,-465.2 l 0,0 z m 846.59,471.1 0,5.98 c 0,115.33 -21.5,223.24 -64.5,323.66 -42.9,100.46 -101.9,187.97 -176.9,262.54 -75.2,74.55 -164.4,133.22 -267.82,175.99 -103.35,42.72 -215.57,64.1 -336.4,64.1 -122.88,0 -236.06,-21.85 -339.42,-65.58 -103.42,-43.74 -193.07,-103.38 -269.19,-178.97 -76.12,-75.62 -135.57,-163.63 -178.45,-264.05 -42.94,-100.36 -64.36,-208.34 -64.36,-323.67 l 0,-5.9 c 0,-115.4 21.42,-223.32 64.36,-323.81 42.88,-100.43 101.93,-187.9 177.02,-262.48 75.09,-74.58 164.35,-133.25 267.7,-176.01 103.42,-42.69 215.57,-64.14 336.52,-64.14 122.89,0 235.95,21.88 339.31,65.65 103.43,43.77 193.13,103.45 269.23,178.97 76.1,75.58 135.5,163.56 178.4,264.05 43,100.43 64.5,208.35 64.5,323.67 l 0,0"
             inkscape:connector-curvature="0"
             id="path26"
             style="fill:#100f0d;fill-opacity:1;fill-rule:nonzero;stroke:none" /><path
             d="m 11264.2,1564.7 c 88.6,0 155.4,29.36 188.2,44.34 31.7,17.57 54.4,9.07 54.4,-25.34 l 0,-275.79 c 0,-16.92 -9.3,-26.28 -23.9,-34.34 -89.5,-44.78 -179.6,-76.81 -323.6,-76.81 -315,0 -469,171.47 -469,469.73 l 0,794.44 -165.6,0 c -21.3,0 -27.5,11.23 -27.5,27.61 l 0,306.17 c 0,14.07 7,22.06 22.1,22.06 l 171,0 0,388.96 c 0,18.07 6.1,33.12 33.1,33.12 l 336.5,0 c 29.2,0 38.7,-12.49 38.7,-38.62 l 0,-383.46 384.4,0 c 16.9,0 29.3,-8.82 29.3,-33.07 l 0,-289.66 c 0,-22.6 -10.3,-33.11 -33.2,-33.11 l -380.5,0 0,-722.74 c 0,-96.9 27.7,-173.49 165.6,-173.49"
             inkscape:connector-curvature="0"
             id="path28"
             style="fill:#100f0d;fill-opacity:1;fill-rule:nonzero;stroke:none" /><path
             d="m 11705.4,1225.12 c -21.8,0 -33.1,10.44 -33.1,33.11 l 0,1525.47 c 0,21.23 9,33.07 33.1,33.07 l 341.5,0 c 25.7,0 33.7,-14.43 33.7,-33.36 l 0,-1525.18 c 0,-25.98 -11.6,-33.11 -33.2,-33.11 l -342,0"
             inkscape:connector-curvature="0"
             id="path30"
             style="fill:#100f0d;fill-opacity:1;fill-rule:nonzero;stroke:none" /><path
             d="m 12132.6,3264.51 c 0,-140.09 -113.6,-253.65 -253.7,-253.65 -140,0 -253.6,113.56 -253.6,253.65 0,140.09 113.6,253.69 253.6,253.69 140.1,0 253.7,-113.6 253.7,-253.69"
             inkscape:connector-curvature="0"
             id="path32"
             style="fill:#100f0d;fill-opacity:1;fill-rule:nonzero;stroke:none" /><path
             d="m 12466.7,1225.12 c -19.1,0 -27.5,10.44 -27.5,27.57 l 0,1208.24 -165.6,0 -27.5,27.61 0,300.12 c 0,18.86 5.7,28.11 27.5,28.11 l 165.6,0 0,74.48 c 0,294.29 118.9,533.69 500.4,533.69 117.7,0 239.2,-27.9 284.9,-38.88 19.3,-5.94 25.7,-14.36 25.7,-31.38 l 0,-292.38 c 0,-29.85 -21.4,-35.21 -58.8,-21.78 -28.8,9.9 -97.4,29.41 -172.4,29.41 -141.4,0 -182.6,-83.62 -182.6,-211.76 l 0,-41.4 601.3,0 c 16.7,0 24.2,-6.77 33.5,-31.35 l 405.3,-1062.71 368.5,1055.9 c 9.8,26.89 15.4,35.43 36.9,35.43 l 358.5,0 c 34.7,0 34.4,-24.08 20.7,-57.02 l -600.7,-1557.75 c -89.4,-205.239 -177.1,-450.938 -534.7,-450.938 -171,0 -263.4,40.313 -376.6,93.516 -26.3,11.879 -14.5,38.222 -0.2,65.078 l 104.3,229.284 c 12,26.64 30,23.04 53.5,11.67 28.4,-14.26 100.3,-49.68 181.1,-49.68 104.3,0 148.1,66.37 189,151.54 l -503.8,1211.19 -331.1,0 0,-1208.24 c 0,-17.85 -8.6,-27.57 -27.6,-27.57 l -347.6,0"
             inkscape:connector-curvature="0"
             id="path34"
             style="fill:#100f0d;fill-opacity:1;fill-rule:nonzero;stroke:none" /><path
             d="m 884.574,1676.28 7.738,-75.44 58.309,-27.07 c 3.352,89.41 58.929,143.69 132.319,156.79 232.56,50.53 518.65,98.91 851.92,98.91 524.02,0 976.08,-130.02 1341.85,-353.04 54.03,-32.82 71.7,-73.71 79.41,-127.93 l 203.19,131.54 -51.36,202.43 -1516.83,406.95 -1418.155,-180.83 311.609,-232.31"
             inkscape:connector-curvature="0"
             id="path36"
             style="fill:#6da22d;fill-opacity:1;fill-rule:nonzero;stroke:none" /><path
             d="m 884.574,1676.28 7.738,-75.44 58.309,-27.07 c 3.352,89.41 58.929,143.69 132.319,156.79 232.56,50.53 518.65,98.91 851.92,98.91 524.02,0 976.08,-130.02 1341.85,-353.04 54.03,-32.82 71.7,-73.71 79.41,-127.93 l 203.19,131.54 -51.36,202.43 -1516.83,406.95 -1418.155,-180.83 311.609,-232.31 z"
             inkscape:connector-curvature="0"
             id="path38"
             style="fill:none;stroke:#2c8081;stroke-width:1.42760003;stroke-linecap:butt;stroke-linejoin:miter;stroke-miterlimit:4;stroke-opacity:1;stroke-dasharray:none" /><path
             d="m 788.754,2240.53 68.863,25.95 c 2.406,86.28 48.949,158.06 148.503,185.2 257.55,75.66 560.05,123.06 890.45,123.06 633.83,0 1214.75,-166.04 1639.12,-421.89 67.93,-41.76 93.99,-72.56 106.81,-181.78 l 312.1,171.55 -1310.89,613.33 -2191.616,-127.9 336.66,-387.52"
             inkscape:connector-curvature="0"
             id="path40"
             style="fill:#75ab2c;fill-opacity:1;fill-rule:nonzero;stroke:none" /><path
             d="m 788.754,2240.53 68.863,25.95 c 2.406,86.28 48.949,158.06 148.503,185.2 257.55,75.66 560.05,123.06 890.45,123.06 633.83,0 1214.75,-166.04 1639.12,-421.89 67.93,-41.76 93.99,-72.56 106.81,-181.78 l 312.1,171.55 -1310.89,613.33 -2191.616,-127.9 336.66,-387.52 z"
             inkscape:connector-curvature="0"
             id="path42"
             style="fill:none;stroke:#272b71;stroke-width:1.42760003;stroke-linecap:butt;stroke-linejoin:miter;stroke-miterlimit:4;stroke-opacity:1;stroke-dasharray:none" /><path
             d="m 702.441,2968.6 c -6.984,128.93 60.649,221.72 159.778,250.24 325.901,94.62 675.371,141.06 1088.301,141.06 686.86,0 1376.87,-143.77 1881.66,-435.4 99.21,-53.99 127.86,-126.48 133.26,-237.31 L 4278.7,2894.02 3338.41,3688.96 460.805,3380.88 702.441,2968.6"
             inkscape:connector-curvature="0"
             id="path44"
             style="fill:#74ac2c;fill-opacity:1;fill-rule:nonzero;stroke:none" /><path
             d="m 702.441,2968.6 c -6.984,128.93 60.649,221.72 159.778,250.24 325.901,94.62 675.371,141.06 1088.301,141.06 686.86,0 1376.87,-143.77 1881.66,-435.4 99.21,-53.99 127.86,-126.48 133.26,-237.31 L 4278.7,2894.02 3338.41,3688.96 460.805,3380.88 702.441,2968.6 z"
             inkscape:connector-curvature="0"
             id="path46"
             style="fill:none;stroke:#100f0d;stroke-width:1.42760003;stroke-linecap:butt;stroke-linejoin:miter;stroke-miterlimit:4;stroke-opacity:1;stroke-dasharray:none" /></g></g><g
         id="g48"><g
           clip-path="url(#clipPath52)"
           id="g50"><g
             clip-path="url(#clipPath58)"
             id="g56"><path
               d="m 2218,0 0,1 -26,0 0,1 -26,0 0,1 -16,0 0,1 -16,0 0,1 -16,0 0,1 -14,0 0,1 -11,0 0,1 -11,0 0,1 -12,0 0,1 -11,0 0,1 -11,0 0,1 -8,0 0,1 -9,0 0,1 -9,0 0,1 -9,0 0,1 -8,0 0,1 -9,0 0,1 -8,0 0,1 -7,0 0,1 -7,0 0,1 -7,0 0,1 -7,0 0,1 -8,0 0,1 -7,0 0,1 -7,0 0,1 -6,0 0,1 -6,0 0,1 -6,0 0,1 -6,0 0,1 -6,0 0,1 -6,0 0,1 -6,0 0,1 -7,0 0,1 -6,0 0,1 -5,0 0,1 -6,0 0,1 -5,0 0,1 -5,0 0,1 -5,0 0,1 -5,0 0,1 -6,0 0,1 -5,0 0,1 -5,0 0,1 -5,0 0,1 -6,0 0,1 -4,0 0,1 -5,0 0,1 -5,0 0,1 -4,0 0,1 -5,0 0,1 -4,0 0,1 -5,0 0,1 -5,0 0,1 -4,0 0,1 -5,0 0,1 -4,0 0,1 -5,0 0,1 -4,0 0,1 -4,0 0,1 -4,0 0,1 -5,0 0,1 -4,0 0,1 -4,0 0,1 -4,0 0,1 -4,0 0,1 -4,0 0,1 -4,0 0,1 -4,0 0,1 -4,0 0,1 -4,0 0,1 -4,0 0,1 -4,0 0,1 -4,0 0,1 -4,0 0,1 -3,0 0,1 -4,0 0,1 -4,0 0,1 -3,0 0,1 -4,0 0,1 -4,0 0,1 -3,0 0,1 -4,0 0,1 -4,0 0,1 -4,0 0,1 -3,0 0,1 -4,0 0,1 -3,0 0,1 -4,0 0,1 -3,0 0,1 -3,0 0,1 -4,0 0,1 -3,0 0,1 -3,0 0,1 -4,0 0,1 -3,0 0,1 -3,0 0,1 -4,0 0,1 -3,0 0,1 -3,0 0,1 -4,0 0,1 -3,0 0,1 -3,0 0,1 -4,0 0,1 -3,0 0,1 -3,0 0,1 -3,0 0,1 -3,0 0,1 -3,0 0,1 -3,0 0,1 -3,0 0,1 -3,0 0,1 -3,0 0,1 -3,0 0,1 -3,0 0,1 -4,0 0,1 -3,0 0,1 -3,0 0,1 -3,0 0,1 -3,0 0,1 -3,0 0,1 -3,0 0,1 -2,0 0,1 -3,0 0,1 -3,0 0,1 -3,0 0,1 -3,0 0,1 -3,0 0,1 -2,0 0,1 -3,0 0,1 -3,0 0,1 -3,0 0,1 -3,0 0,1 -3,0 0,1 -2,0 0,1 -3,0 0,1 -3,0 0,1 -3,0 0,1 -3,0 0,1 -2,0 0,1 -3,0 0,1 -3,0 0,1 -2,0 0,1 -3,0 0,1 -2,0 0,1 -3,0 0,1 -3,0 0,1 -2,0 0,1 -3,0 0,1 -3,0 0,1 -2,0 0,1 -3,0 0,1 -3,0 0,1 -2,0 0,1 -3,0 0,1 -2,0 0,1 -3,0 0,1 -3,0 0,1 -2,0 0,1 -3,0 0,1 -2,0 0,1 -3,0 0,1 -2,0 0,1 -2,0 0,1 -3,0 0,1 -2,0 0,1 -3,0 0,1 -2,0 0,1 -3,0 0,1 -2,0 0,1 -3,0 0,1 -2,0 0,1 -2,0 0,1 -3,0 0,1 -2,0 0,1 -3,0 0,1 -2,0 0,1 -3,0 0,1 -2,0 0,1 -3,0 0,1 -2,0 0,1 -2,0 0,1 -2,0 0,1 -3,0 0,1 -2,0 0,1 -2,0 0,1 -3,0 0,1 -2,0 0,1 -2,0 0,1 -2,0 0,1 -3,0 0,1 -2,0 0,1 -2,0 0,1 -3,0 0,1 -2,0 0,1 -2,0 0,1 -2,0 0,1 -3,0 0,1 -2,0 0,1 -2,0 0,1 -3,0 0,1 -2,0 0,1 -2,0 0,1 -2,0 0,1 -2,0 0,1 -2,0 0,1 -3,0 0,1 -2,0 0,1 -2,0 0,1 -2,0 0,1 -2,0 0,1 -2,0 0,1 -2,0 0,1 -2,0 0,1 -3,0 0,1 -2,0 0,1 -2,0 0,1 -2,0 0,1 -2,0 0,1 -2,0 0,1 -2,0 0,1 -3,0 0,1 -2,0 0,1 -2,0 0,1 -2,0 0,1 -2,0 0,1 -2,0 0,1 -2,0 0,1 -2,0 0,1 -2,0 0,1 -2,0 0,1 -2,0 0,1 -2,0 0,1 -2,0 0,1 -2,0 0,1 -2,0 0,1 -2,0 0,1 -2,0 0,1 -2,0 0,1 -2,0 0,1 -2,0 0,1 -2,0 0,1 -2,0 0,1 -2,0 0,1 -2,0 0,1 -2,0 0,1 -2,0 0,1 -2,0 0,1 -2,0 0,1 -2,0 0,1 -2,0 0,1 -2,0 0,1 -2,0 0,1 -2,0 0,1 -2,0 0,1 -2,0 0,1 -2,0 0,1 -2,0 0,1 -1,0 0,1 -2,0 0,1 -2,0 0,1 -2,0 0,1 -2,0 0,1 -2,0 0,1 -2,0 0,1 -2,0 0,1 -2,0 0,1 -1,0 0,1 -2,0 0,1 -2,0 0,1 -2,0 0,1 -2,0 0,1 -2,0 0,1 -2,0 0,1 -2,0 0,1 -2,0 0,1 -1,0 0,1 -2,0 0,1 -2,0 0,1 -2,0 0,1 -2,0 0,1 -1,0 0,1 -2,0 0,1 -2,0 0,1 -2,0 0,1 -2,0 0,1 -1,0 0,1 -2,0 0,1 -2,0 0,1 -2,0 0,1 -1,0 0,1 -2,0 0,1 -2,0 0,1 -2,0 0,1 -2,0 0,1 -1,0 0,1 -2,0 0,1 -2,0 0,1 -2,0 0,1 -2,0 0,1 -1,0 0,1 -2,0 0,1 -2,0 0,1 -2,0 0,1 -1,0 0,1 -2,0 0,1 -2,0 0,1 -1,0 0,1 -2,0 0,1 -2,0 0,1 -1,0 0,1 -2,0 0,1 -2,0 0,1 -1,0 0,1 -2,0 0,1 -2,0 0,1 -2,0 0,1 -1,0 0,1 -2,0 0,1 -2,0 0,1 -1,0 0,1 -2,0 0,1 -2,0 0,1 -1,0 0,1 -2,0 0,1 -2,0 0,1 -1,0 0,1 -2,0 0,1 -2,0 0,1 -2,0 0,1 -1,0 0,1 -2,0 0,1 -1,0 0,1 -2,0 0,1 -2,0 0,1 -1,0 0,1 -2,0 0,1 -1,0 0,1 -2,0 0,1 -2,0 0,1 -1,0 0,1 -2,0 0,1 -1,0 0,1 -2,0 0,1 -2,0 0,1 -1,0 0,1 -2,0 0,1 -1,0 0,1 -2,0 0,1 -2,0 0,1 -1,0 0,1 -2,0 0,1 -1,0 0,1 -2,0 0,1 -2,0 0,1 -1,0 0,1 -2,0 0,1 -1,0 0,1 -2,0 0,1 -2,0 0,1 -1,0 0,1 -2,0 0,1 -1,0 0,1 -2,0 0,1 -1,0 0,1 -2,0 0,1 -1,0 0,1 -2,0 0,1 -1,0 0,1 -2,0 0,1 -1,0 0,1 -2,0 0,1 -1,0 0,1 -2,0 0,1 -1,0 0,1 -2,0 0,1 -1,0 0,1 -2,0 0,1 -2,0 0,1 -1,0 0,1 -2,0 0,1 -1,0 0,1 -2,0 0,1 -1,0 0,1 -2,0 0,1 -1,0 0,1 -2,0 0,1 -1,0 0,1 -2,0 0,1 -1,0 0,1 -2,0 0,1 -1,0 0,1 -2,0 0,1 -1,0 0,1 -1,0 0,1 -2,0 0,1 -1,0 0,1 -2,0 0,1 -1,0 0,1 -2,0 0,1 -1,0 0,1 -2,0 0,1 -1,0 0,1 -1,0 0,1 -2,0 0,1 -1,0 0,1 -2,0 0,1 -1,0 0,1 -2,0 0,1 -1,0 0,1 -2,0 0,1 -1,0 0,1 -1,0 0,1 -2,0 0,1 -1,0 0,1 -2,0 0,1 -1,0 0,1 -2,0 0,1 -1,0 0,1 -2,0 0,1 -1,0 0,1 -1,0 0,1 -2,0 0,1 -1,0 0,1 -1,0 0,1 -2,0 0,1 -1,0 0,1 -2,0 0,1 -1,0 0,1 -1,0 0,1 -2,0 0,1 -1,0 0,1 -1,0 0,1 -2,0 0,1 -1,0 0,1 -2,0 0,1 -1,0 0,1 -1,0 0,1 -2,0 0,1 -1,0 0,1 -1,0 0,1 -2,0 0,1 -1,0 0,1 -2,0 0,1 -1,0 0,1 -1,0 0,1 -2,0 0,1 -1,0 0,1 -1,0 0,1 -2,0 0,1 -1,0 0,1 -2,0 0,1 -1,0 0,1 -1,0 0,1 -2,0 0,1 -1,0 0,1 -1,0 0,1 -1,0 0,1 -2,0 0,1 -1,0 0,1 -1,0 0,1 -2,0 0,1 -1,0 0,1 -1,0 0,1 -2,0 0,1 -1,0 0,1 -1,0 0,1 -1,0 0,1 -2,0 0,1 -1,0 0,1 -1,0 0,1 -2,0 0,1 -1,0 0,1 -1,0 0,1 -2,0 0,1 -1,0 0,1 -1,0 0,1 -2,0 0,1 -1,0 0,1 -1,0 0,1 -1,0 0,1 -2,0 0,1 -1,0 0,1 -1,0 0,1 -2,0 0,1 -1,0 0,1 -1,0 0,1 -2,0 0,1 -1,0 0,1 -1,0 0,1 -1,0 0,1 -1,0 0,1 -2,0 0,1 -1,0 0,1 -1,0 0,1 -1,0 0,1 -2,0 0,1 -1,0 0,1 -1,0 0,1 -1,0 0,1 -2,0 0,1 -1,0 0,1 -1,0 0,1 -1,0 0,1 -2,0 0,1 -1,0 0,1 -1,0 0,1 -1,0 0,1 -2,0 0,1 -1,0 0,1 -1,0 0,1 -1,0 0,1 -2,0 0,1 -1,0 0,1 -1,0 0,1 -1,0 0,1 -2,0 0,1 -1,0 0,1 -1,0 0,1 -1,0 0,1 -2,0 0,1 -1,0 0,1 -1,0 0,1 -1,0 0,1 -1,0 0,1 -1,0 0,1 -2,0 0,1 -1,0 0,1 -1,0 0,1 -1,0 0,1 -1,0 0,1 -2,0 0,1 -1,0 0,1 -1,0 0,1 -1,0 0,1 -1,0 0,1 -1,0 0,1 -2,0 0,1 -1,0 0,1 -1,0 0,1 -1,0 0,1 -1,0 0,1 -2,0 0,1 -1,0 0,1 -1,0 0,1 -1,0 0,1 -1,0 0,1 -1,0 0,1 -2,0 0,1 -1,0 0,1 -1,0 0,1 -1,0 0,1 -1,0 0,1 -2,0 0,1 -1,0 0,1 -1,0 0,1 -1,0 0,1 -1,0 0,1 -1,0 0,1 -1,0 0,1 -2,0 0,1 -1,0 0,1 -1,0 0,1 -1,0 0,1 -1,0 0,1 -1,0 0,1 -1,0 0,1 -2,0 0,1 -1,0 0,1 -1,0 0,1 -1,0 0,1 -1,0 0,1 -1,0 0,1 -1,0 0,1 -1,0 0,1 -2,0 0,1 -1,0 0,1 -1,0 0,1 -1,0 0,1 -1,0 0,1 -1,0 0,1 -1,0 0,1 -1,0 0,1 -2,0 0,1 -1,0 0,1 -1,0 0,1 -1,0 0,1 -1,0 0,1 -1,0 0,1 -1,0 0,1 -1,0 0,1 -2,0 0,1 -1,0 0,1 -1,0 0,1 -1,0 0,1 -1,0 0,1 -1,0 0,1 -1,0 0,1 -1,0 0,1 -1,0 0,1 -1,0 0,1 -1,0 0,1 -1,0 0,1 -2,0 0,1 -1,0 0,1 -1,0 0,1 -1,0 0,1 -1,0 0,1 -1,0 0,1 -1,0 0,1 -1,0 0,1 -1,0 0,1 -1,0 0,1 -1,0 0,1 -1,0 0,1 -1,0 0,1 -1,0 0,1 -2,0 0,1 -1,0 0,1 -1,0 0,1 -1,0 0,1 -1,0 0,1 -1,0 0,1 -1,0 0,1 -1,0 0,1 -1,0 0,1 -1,0 0,1 -1,0 0,1 -1,0 0,1 -1,0 0,1 -2,0 0,1 -1,0 0,1 -1,0 0,1 -1,0 0,1 -1,0 0,1 -1,0 0,1 -1,0 0,1 -1,0 0,1 -1,0 0,1 -1,0 0,1 -1,0 0,1 -1,0 0,1 -1,0 0,1 -1,0 0,1 -1,0 0,1 -1,0 0,1 -1,0 0,1 -1,0 0,1 -1,0 0,1 -1,0 0,1 -1,0 0,1 -1,0 0,1 -1,0 0,1 -1,0 0,1 -1,0 0,1 -1,0 0,1 -1,0 0,1 -1,0 0,1 -1,0 0,1 -1,0 0,1 -1,0 0,1 -1,0 0,1 -1,0 0,1 -1,0 0,1 -1,0 0,1 -1,0 0,1 -1,0 0,1 -1,0 0,1 -1,0 0,1 -1,0 0,1 -1,0 0,1 -1,0 0,1 -1,0 0,1 -1,0 0,1 -1,0 0,1 -1,0 0,1 -1,0 0,1 -1,0 0,1 -1,0 0,1 -1,0 0,1 -1,0 0,1 -1,0 0,1 -1,0 0,1 -1,0 0,1 -1,0 0,1 -1,0 0,1 -1,0 0,1 -1,0 0,1 -1,0 0,1 -1,0 0,1 -1,0 0,1 -1,0 0,1 -1,0 0,1 -1,0 0,1 -1,0 0,1 -1,0 0,1 -1,0 0,1 -1,0 0,1 -1,0 0,1 -1,0 0,1 -1,0 0,1 -1,0 0,1 -1,0 0,1 -1,0 0,1 -1,0 0,1 -1,0 0,1 -1,0 0,1 -1,0 0,2 -1,0 0,1 -1,0 0,1 -1,0 0,1 -1,0 0,1 -1,0 0,1 -1,0 0,1 -1,0 0,1 -1,0 0,1 -1,0 0,1 -1,0 0,1 -1,0 0,1 -1,0 0,1 -1,0 0,2 -1,0 0,1 -1,0 0,1 -1,0 0,1 -1,0 0,1 -1,0 0,1 -1,0 0,1 -1,0 0,1 -1,0 0,1 -1,0 0,1 -1,0 0,1 -1,0 0,1 -1,0 0,1 -1,0 0,1 -1,0 0,2 -1,0 0,1 -1,0 0,1 -1,0 0,1 -1,0 0,1 -1,0 0,1 -1,0 0,1 -1,0 0,1 -1,0 0,1 -1,0 0,1 -1,0 0,1 -1,0 0,1 -1,0 0,2 -1,0 0,1 -1,0 0,1 -1,0 0,1 -1,0 0,1 -1,0 0,1 -1,0 0,1 -1,0 0,1 -1,0 0,2 -1,0 0,1 -1,0 0,1 -1,0 0,1 -1,0 0,1 -1,0 0,1 -1,0 0,1 -1,0 0,1 -1,0 0,2 -1,0 0,1 -1,0 0,1 -1,0 0,1 -1,0 0,1 -1,0 0,1 -1,0 0,1 -1,0 0,1 -1,0 0,2 -1,0 0,1 -1,0 0,1 -1,0 0,1 -1,0 0,1 -1,0 0,1 -1,0 0,1 -1,0 0,2 -1,0 0,1 -1,0 0,1 -1,0 0,1 -1,0 0,1 -1,0 0,1 -1,0 0,1 -1,0 0,2 -1,0 0,1 -1,0 0,1 -1,0 0,1 -1,0 0,1 -1,0 0,2 -1,0 0,1 -1,0 0,1 -1,0 0,1 -1,0 0,1 -1,0 0,1 -1,0 0,2 -1,0 0,1 -1,0 0,1 -1,0 0,1 -1,0 0,1 -1,0 0,2 -1,0 0,1 -1,0 0,1 -1,0 0,1 -1,0 0,1 -1,0 0,1 -1,0 0,2 -1,0 0,1 -1,0 0,1 -1,0 0,1 -1,0 0,1 -1,0 0,2 -1,0 0,1 -1,0 0,1 -1,0 0,1 -1,0 0,1 -1,0 0,1 -1,0 0,2 -1,0 0,1 -1,0 0,1 -1,0 0,1 -1,0 0,2 -1,0 0,1 -1,0 0,1 -1,0 0,1 -1,0 0,2 -1,0 0,1 -1,0 0,1 -1,0 0,1 -1,0 0,2 -1,0 0,1 -1,0 0,1 -1,0 0,1 -1,0 0,2 -1,0 0,1 -1,0 0,1 -1,0 0,1 -1,0 0,2 -1,0 0,1 -1,0 0,1 -1,0 0,1 -1,0 0,2 -1,0 0,1 -1,0 0,1 -1,0 0,1 -1,0 0,2 -1,0 0,1 -1,0 0,1 -1,0 0,1 -1,0 0,1 -1,0 0,2 -1,0 0,1 -1,0 0,1 -1,0 0,2 -1,0 0,1 -1,0 0,1 -1,0 0,2 -1,0 0,1 -1,0 0,1 -1,0 0,1 -1,0 0,2 -1,0 0,1 -1,0 0,1 -1,0 0,2 -1,0 0,1 -1,0 0,1 -1,0 0,2 -1,0 0,1 -1,0 0,1 -1,0 0,2 -1,0 0,1 -1,0 0,1 -1,0 0,1 -1,0 0,2 -1,0 0,1 -1,0 0,1 -1,0 0,2 -1,0 0,1 -1,0 0,1 -1,0 0,2 -1,0 0,1 -1,0 0,1 -1,0 0,1 -1,0 0,2 -1,0 0,1 -1,0 0,1 -1,0 0,2 -1,0 0,1 -1,0 0,2 -1,0 0,1 -1,0 0,1 -1,0 0,2 -1,0 0,1 -1,0 0,1 -1,0 0,2 -1,0 0,1 -1,0 0,2 -1,0 0,1 -1,0 0,1 -1,0 0,2 -1,0 0,1 -1,0 0,1 -1,0 0,2 -1,0 0,1 -1,0 0,2 -1,0 0,1 -1,0 0,1 -1,0 0,2 -1,0 0,1 -1,0 0,1 -1,0 0,2 -1,0 0,1 -1,0 0,2 -1,0 0,1 -1,0 0,1 -1,0 0,2 -1,0 0,1 -1,0 0,1 -1,0 0,2 -1,0 0,1 -1,0 0,2 -1,0 0,1 -1,0 0,2 -1,0 0,1 -1,0 0,2 -1,0 0,1 -1,0 0,1 -1,0 0,2 -1,0 0,1 -1,0 0,2 -1,0 0,1 -1,0 0,2 -1,0 0,1 -1,0 0,2 -1,0 0,1 -1,0 0,1 -1,0 0,2 -1,0 0,1 -1,0 0,2 -1,0 0,1 -1,0 0,2 -1,0 0,1 -1,0 0,2 -1,0 0,1 -1,0 0,1 -1,0 0,2 -1,0 0,1 -1,0 0,2 -1,0 0,1 -1,0 0,2 -1,0 0,1 -1,0 0,2 -1,0 0,1 -1,0 0,2 -1,0 0,1 -1,0 0,2 -1,0 0,1 -1,0 0,2 -1,0 0,1 -1,0 0,2 -1,0 0,2 -1,0 0,1 -1,0 0,2 -1,0 0,1 -1,0 0,2 -1,0 0,1 -1,0 0,2 -1,0 0,1 -1,0 0,2 -1,0 0,1 -1,0 0,2 -1,0 0,1 -1,0 0,2 -1,0 0,1 -1,0 0,2 -1,0 0,1 -1,0 0,2 -1,0 0,1 -1,0 0,2 -1,0 0,2 -1,0 0,1 -1,0 0,2 -1,0 0,1 -1,0 0,2 -1,0 0,2 -1,0 0,1 -1,0 0,2 -1,0 0,1 -1,0 0,2 -1,0 0,2 -1,0 0,1 -1,0 0,2 -1,0 0,1 -1,0 0,2 -1,0 0,2 -1,0 0,1 -1,0 0,2 -1,0 0,1 -1,0 0,2 -1,0 0,2 -1,0 0,1 -1,0 0,2 -1,0 0,1 -1,0 0,2 -1,0 0,2 -1,0 0,1 -1,0 0,2 -1,0 0,1 -1,0 0,2 -1,0 0,2 -1,0 0,2 -1,0 0,1 -1,0 0,2 -1,0 0,2 -1,0 0,1 -1,0 0,2 -1,0 0,2 -1,0 0,1 -1,0 0,2 -1,0 0,2 -1,0 0,1 -1,0 0,2 -1,0 0,2 -1,0 0,2 -1,0 0,1 -1,0 0,2 -1,0 0,2 -1,0 0,1 -1,0 0,2 -1,0 0,2 -1,0 0,1 -1,0 0,2 -1,0 0,2 -1,0 0,1 -1,0 0,2 -1,0 0,2 -1,0 0,2 -1,0 0,1 -1,0 0,2 -1,0 0,2 -1,0 0,2 -1,0 0,2 -1,0 0,1 -1,0 0,2 -1,0 0,2 -1,0 0,2 -1,0 0,2 -1,0 0,1 -1,0 0,2 -1,0 0,2 -1,0 0,2 -1,0 0,1 -1,0 0,2 -1,0 0,2 -1,0 0,2 -1,0 0,2 -1,0 0,1 -1,0 0,2 -1,0 0,2 -1,0 0,2 -1,0 0,2 -1,0 0,1 -1,0 0,2 -1,0 0,2 -1,0 0,2 -1,0 0,2 -1,0 0,2 -1,0 0,2 -1,0 0,2 -1,0 0,2 -1,0 0,1 -1,0 0,2 -1,0 0,2 -1,0 0,2 -1,0 0,2 -1,0 0,2 -1,0 0,2 -1,0 0,2 -1,0 0,2 -1,0 0,1 -1,0 0,2 -1,0 0,2 -1,0 0,2 -1,0 0,2 -1,0 0,2 -1,0 0,2 -1,0 0,2 -1,0 0,2 -1,0 0,2 -1,0 0,2 -1,0 0,2 -1,0 0,2 -1,0 0,2 -1,0 0,2 -1,0 0,2 -1,0 0,2 -1,0 0,2 -1,0 0,2 -1,0 0,2 -1,0 0,2 -1,0 0,2 -1,0 0,2 -1,0 0,2 -1,0 0,2 -1,0 0,2 -1,0 0,2 -1,0 0,2 -1,0 0,2 -1,0 0,2 -1,0 0,2 -1,0 0,2 -1,0 0,2 -1,0 0,2 -1,0 0,2 -1,0 0,2 -1,0 0,2 -1,0 0,3 -1,0 0,2 -1,0 0,2 -1,0 0,2 -1,0 0,2 -1,0 0,2 -1,0 0,2 -1,0 0,3 -1,0 0,2 -1,0 0,2 -1,0 0,2 -1,0 0,2 -1,0 0,2 -1,0 0,2 -1,0 0,2 -1,0 0,3 -1,0 0,2 -1,0 0,2 -1,0 0,2 -1,0 0,2 -1,0 0,2 -1,0 0,3 -1,0 0,2 -1,0 0,2 -1,0 0,3 -1,0 0,2 -1,0 0,2 -1,0 0,2 -1,0 0,3 -1,0 0,2 -1,0 0,2 -1,0 0,3 -1,0 0,2 -1,0 0,2 -1,0 0,2 -1,0 0,3 -1,0 0,2 -1,0 0,2 -1,0 0,3 -1,0 0,2 -1,0 0,2 -1,0 0,2 -1,0 0,3 -1,0 0,2 -1,0 0,3 -1,0 0,2 -1,0 0,3 -1,0 0,2 -1,0 0,3 -1,0 0,2 -1,0 0,2 -1,0 0,3 -1,0 0,2 -1,0 0,3 -1,0 0,2 -1,0 0,3 -1,0 0,2 -1,0 0,3 -1,0 0,2 -1,0 0,2 -1,0 0,3 -1,0 0,2 -1,0 0,3 -1,0 0,2 -1,0 0,3 -1,0 0,3 -1,0 0,2 -1,0 0,3 -1,0 0,2 -1,0 0,3 -1,0 0,3 -1,0 0,2 -1,0 0,3 -1,0 0,3 -1,0 0,2 -1,0 0,3 -1,0 0,3 -1,0 0,2 -1,0 0,3 -1,0 0,2 -1,0 0,3 -1,0 0,3 -1,0 0,2 -1,0 0,3 -1,0 0,3 -1,0 0,3 -1,0 0,3 -1,0 0,2 -1,0 0,3 -1,0 0,3 -1,0 0,3 -1,0 0,3 -1,0 0,3 -1,0 0,2 -1,0 0,3 -1,0 0,3 -1,0 0,3 -1,0 0,3 -1,0 0,3 -1,0 0,2 -1,0 0,3 -1,0 0,3 -1,0 0,3 -1,0 0,3 -1,0 0,3 -1,0 0,3 -1,0 0,4 -1,0 0,3 -1,0 0,3 -1,0 0,3 -1,0 0,3 -1,0 0,3 -1,0 0,3 -1,0 0,3 -1,0 0,3 -1,0 0,3 -1,0 0,3 -1,0 0,3 -1,0 0,4 -1,0 0,3 -1,0 0,3 -1,0 0,4 -1,0 0,3 -1,0 0,3 -1,0 0,4 -1,0 0,3 -1,0 0,3 -1,0 0,4 -1,0 0,3 -1,0 0,3 -1,0 0,4 -1,0 0,3 -1,0 0,3 -1,0 0,4 -1,0 0,3 -1,0 0,4 -1,0 0,3 -1,0 0,4 -1,0 0,4 -1,0 0,4 -1,0 0,3 -1,0 0,4 -1,0 0,4 -1,0 0,3 -1,0 0,4 -1,0 0,4 -1,0 0,3 -1,0 0,4 -1,0 0,4 -1,0 0,4 -1,0 0,4 -1,0 0,4 -1,0 0,4 -1,0 0,4 -1,0 0,4 -1,0 0,4 -1,0 0,4 -1,0 0,4 -1,0 0,4 -1,0 0,4 -1,0 0,5 -1,0 0,4 -1,0 0,4 -1,0 0,4 -1,0 0,5 -1,0 0,4 -1,0 0,5 -1,0 0,4 -1,0 0,5 -1,0 0,5 -1,0 0,4 -1,0 0,5 -1,0 0,4 -1,0 0,5 -1,0 0,5 -1,0 0,4 -1,0 0,6 -1,0 0,5 -1,0 0,5 -1,0 0,5 -1,0 0,6 -1,0 0,5 -1,0 0,5 -1,0 0,5 -1,0 0,5 -1,0 0,6 -1,0 0,5 -1,0 0,6 -1,0 0,7 -1,0 0,6 -1,0 0,6 -1,0 0,6 -1,0 0,6 -1,0 0,6 -1,0 0,6 -1,0 0,6 -1,0 0,7 -1,0 0,7 -1,0 0,8 -1,0 0,7 -1,0 0,7 -1,0 0,7 -1,0 0,7 -1,0 0,8 -1,0 0,9 -1,0 0,8 -1,0 0,9 -1,0 0,9 -1,0 0,9 -1,0 0,8 -1,0 0,11 -1,0 0,11 -1,0 0,12 -1,0 0,11 -1,0 0,11 -1,0 0,14 -1,0 0,16 -1,0 0,16 -1,0 0,16 -1,0 0,26 -1,0 0,26 -1,0 0,132 1,0 0,27 1,0 0,26 1,0 0,15 1,0 0,16 1,0 0,16 1,0 0,14 1,0 0,11 1,0 0,12 1,0 0,11 1,0 0,11 1,0 0,11 1,0 0,9 1,0 0,9 1,0 0,8 1,0 0,9 1,0 0,9 1,0 0,8 1,0 0,8 1,0 0,7 1,0 0,8 1,0 0,7 1,0 0,7 1,0 0,7 1,0 0,7 1,0 0,7 1,0 0,7 1,0 0,6 1,0 0,6 1,0 0,6 1,0 0,6 1,0 0,6 1,0 0,6 1,0 0,6 1,0 0,6 1,0 0,6 1,0 0,5 1,0 0,5 1,0 0,5 1,0 0,6 1,0 0,5 1,0 0,5 1,0 0,5 1,0 0,5 1,0 0,6 1,0 0,5 1,0 0,5 1,0 0,4 1,0 0,5 1,0 0,5 1,0 0,4 1,0 0,5 1,0 0,4 1,0 0,5 1,0 0,4 1,0 0,5 1,0 0,5 1,0 0,4 1,0 0,5 1,0 0,4 1,0 0,4 1,0 0,4 1,0 0,4 1,0 0,4 1,0 0,4 1,0 0,4 1,0 0,4 1,0 0,4 1,0 0,5 1,0 0,4 1,0 0,4 1,0 0,4 1,0 0,4 1,0 0,3 1,0 0,4 1,0 0,4 1,0 0,3 1,0 0,4 1,0 0,4 1,0 0,3 1,0 0,4 1,0 0,4 1,0 0,3 1,0 0,4 1,0 0,4 1,0 0,4 1,0 0,3 1,0 0,4 1,0 0,3 1,0 0,3 1,0 0,4 1,0 0,3 1,0 0,3 1,0 0,4 1,0 0,3 1,0 0,3 1,0 0,4 1,0 0,3 1,0 0,4 1,0 0,3 1,0 0,3 1,0 0,4 1,0 0,3 1,0 0,3 1,0 0,3 1,0 0,3 1,0 0,3 1,0 0,3 1,0 0,3 1,0 0,3 1,0 0,4 1,0 0,3 1,0 0,3 1,0 0,3 1,0 0,3 1,0 0,3 1,0 0,3 1,0 0,3 1,0 0,3 1,0 0,3 1,0 0,3 1,0 0,3 1,0 0,3 1,0 0,3 1,0 0,2 1,0 0,3 1,0 0,3 1,0 0,3 1,0 0,3 1,0 0,3 1,0 0,2 1,0 0,3 1,0 0,3 1,0 0,3 1,0 0,3 1,0 0,3 1,0 0,2 1,0 0,3 1,0 0,3 1,0 0,3 1,0 0,2 1,0 0,3 1,0 0,3 1,0 0,2 1,0 0,3 1,0 0,2 1,0 0,3 1,0 0,3 1,0 0,2 1,0 0,3 1,0 0,3 1,0 0,2 1,0 0,3 1,0 0,3 1,0 0,2 1,0 0,3 1,0 0,2 1,0 0,3 1,0 0,3 1,0 0,2 1,0 0,2 1,0 0,3 1,0 0,2 1,0 0,3 1,0 0,2 1,0 0,3 1,0 0,2 1,0 0,3 1,0 0,2 1,0 0,3 1,0 0,2 1,0 0,2 1,0 0,3 1,0 0,2 1,0 0,3 1,0 0,2 1,0 0,3 1,0 0,2 1,0 0,3 1,0 0,2 1,0 0,2 1,0 0,2 1,0 0,3 1,0 0,2 1,0 0,2 1,0 0,3 1,0 0,2 1,0 0,2 1,0 0,2 1,0 0,3 1,0 0,2 1,0 0,2 1,0 0,3 1,0 0,2 1,0 0,2 1,0 0,2 1,0 0,3 1,0 0,2 1,0 0,2 1,0 0,3 1,0 0,2 1,0 0,2 1,0 0,2 1,0 0,2 1,0 0,3 1,0 0,2 1,0 0,2 1,0 0,2 1,0 0,2 1,0 0,2 1,0 0,2 1,0 0,3 1,0 0,2 1,0 0,2 1,0 0,2 1,0 0,2 1,0 0,2 1,0 0,2 1,0 0,3 1,0 0,2 1,0 0,2 1,0 0,2 1,0 0,2 1,0 0,2 1,0 0,2 1,0 0,2 1,0 0,2 1,0 0,2 1,0 0,3 1,0 0,2 1,0 0,2 1,0 0,2 1,0 0,2 1,0 0,2 1,0 0,2 1,0 0,2 1,0 0,2 1,0 0,2 1,0 0,2 1,0 0,2 1,0 0,2 1,0 0,2 1,0 0,2 1,0 0,2 1,0 0,2 1,0 0,2 1,0 0,2 1,0 0,2 1,0 0,2 1,0 0,2 1,0 0,2 1,0 0,2 1,0 0,1 1,0 0,2 1,0 0,2 1,0 0,2 1,0 0,2 1,0 0,2 1,0 0,2 1,0 0,2 1,0 0,2 1,0 0,1 1,0 0,2 1,0 0,2 1,0 0,2 1,0 0,2 1,0 0,2 1,0 0,2 1,0 0,2 1,0 0,2 1,0 0,2 1,0 0,1 1,0 0,2 1,0 0,2 1,0 0,2 1,0 0,2 1,0 0,2 1,0 0,2 1,0 0,1 1,0 0,2 1,0 0,2 1,0 0,2 1,0 0,2 1,0 0,1 1,0 0,2 1,0 0,2 1,0 0,2 1,0 0,1 1,0 0,2 1,0 0,2 1,0 0,2 1,0 0,2 1,0 0,1 1,0 0,2 1,0 0,2 1,0 0,2 1,0 0,2 1,0 0,1 1,0 0,2 1,0 0,2 1,0 0,2 1,0 0,2 1,0 0,1 1,0 0,2 1,0 0,2 1,0 0,1 1,0 0,2 1,0 0,2 1,0 0,1 1,0 0,2 1,0 0,2 1,0 0,1 1,0 0,2 1,0 0,2 1,0 0,2 1,0 0,1 1,0 0,2 1,0 0,2 1,0 0,1 1,0 0,2 1,0 0,2 1,0 0,1 1,0 0,2 1,0 0,2 1,0 0,1 1,0 0,2 1,0 0,2 1,0 0,2 1,0 0,1 1,0 0,2 1,0 0,2 1,0 0,1 1,0 0,2 1,0 0,1 1,0 0,2 1,0 0,2 1,0 0,1 1,0 0,2 1,0 0,1 1,0 0,2 1,0 0,2 1,0 0,1 1,0 0,2 1,0 0,1 1,0 0,2 1,0 0,2 1,0 0,1 1,0 0,2 1,0 0,1 1,0 0,2 1,0 0,2 1,0 0,1 1,0 0,2 1,0 0,1 1,0 0,2 1,0 0,2 1,0 0,1 1,0 0,2 1,0 0,1 1,0 0,2 1,0 0,2 1,0 0,1 1,0 0,2 1,0 0,1 1,0 0,2 1,0 0,1 1,0 0,2 1,0 0,1 1,0 0,2 1,0 0,1 1,0 0,2 1,0 0,1 1,0 0,2 1,0 0,1 1,0 0,2 1,0 0,1 1,0 0,2 1,0 0,1 1,0 0,2 1,0 0,1 1,0 0,2 1,0 0,1 1,0 0,2 1,0 0,1 1,0 0,2 1,0 0,2 1,0 0,1 1,0 0,2 1,0 0,1 1,0 0,2 1,0 0,1 1,0 0,2 1,0 0,1 1,0 0,1 1,0 0,2 1,0 0,1 1,0 0,2 1,0 0,1 1,0 0,2 1,0 0,1 1,0 0,1 1,0 0,2 1,0 0,1 1,0 0,2 1,0 0,1 1,0 0,2 1,0 0,1 1,0 0,2 1,0 0,1 1,0 0,1 1,0 0,2 1,0 0,1 1,0 0,2 1,0 0,1 1,0 0,2 1,0 0,1 1,0 0,2 1,0 0,1 1,0 0,1 1,0 0,2 1,0 0,1 1,0 0,2 1,0 0,1 1,0 0,1 1,0 0,2 1,0 0,1 1,0 0,2 1,0 0,1 1,0 0,1 1,0 0,2 1,0 0,1 1,0 0,1 1,0 0,2 1,0 0,1 1,0 0,2 1,0 0,1 1,0 0,1 1,0 0,2 1,0 0,1 1,0 0,1 1,0 0,2 1,0 0,1 1,0 0,2 1,0 0,1 1,0 0,1 1,0 0,2 1,0 0,1 1,0 0,1 1,0 0,2 1,0 0,1 1,0 0,1 1,0 0,2 1,0 0,1 1,0 0,2 1,0 0,1 1,0 0,1 1,0 0,2 1,0 0,1 1,0 0,1 1,0 0,1 1,0 0,2 1,0 0,1 1,0 0,1 1,0 0,2 1,0 0,1 1,0 0,1 1,0 0,2 1,0 0,1 1,0 0,1 1,0 0,1 1,0 0,2 1,0 0,1 1,0 0,1 1,0 0,2 1,0 0,1 1,0 0,1 1,0 0,2 1,0 0,1 1,0 0,1 1,0 0,2 1,0 0,1 1,0 0,1 1,0 0,1 1,0 0,2 1,0 0,1 1,0 0,1 1,0 0,2 1,0 0,1 1,0 0,1 1,0 0,1 1,0 0,2 1,0 0,1 1,0 0,1 1,0 0,1 1,0 0,2 1,0 0,1 1,0 0,1 1,0 0,1 1,0 0,2 1,0 0,1 1,0 0,1 1,0 0,1 1,0 0,2 1,0 0,1 1,0 0,1 1,0 0,1 1,0 0,1 1,0 0,2 1,0 0,1 1,0 0,1 1,0 0,1 1,0 0,2 1,0 0,1 1,0 0,1 1,0 0,1 1,0 0,2 1,0 0,1 1,0 0,1 1,0 0,1 1,0 0,2 1,0 0,1 1,0 0,1 1,0 0,1 1,0 0,1 1,0 0,2 1,0 0,1 1,0 0,1 1,0 0,1 1,0 0,1 1,0 0,2 1,0 0,1 1,0 0,1 1,0 0,1 1,0 0,1 1,0 0,1 1,0 0,2 1,0 0,1 1,0 0,1 1,0 0,1 1,0 0,1 1,0 0,2 1,0 0,1 1,0 0,1 1,0 0,1 1,0 0,1 1,0 0,1 1,0 0,2 1,0 0,1 1,0 0,1 1,0 0,1 1,0 0,1 1,0 0,2 1,0 0,1 1,0 0,1 1,0 0,1 1,0 0,1 1,0 0,1 1,0 0,2 1,0 0,1 1,0 0,1 1,0 0,1 1,0 0,1 1,0 0,1 1,0 0,1 1,0 0,1 1,0 0,2 1,0 0,1 1,0 0,1 1,0 0,1 1,0 0,1 1,0 0,1 1,0 0,1 1,0 0,2 1,0 0,1 1,0 0,1 1,0 0,1 1,0 0,1 1,0 0,1 1,0 0,1 1,0 0,1 1,0 0,2 1,0 0,1 1,0 0,1 1,0 0,1 1,0 0,1 1,0 0,1 1,0 0,1 1,0 0,1 1,0 0,2 1,0 0,1 1,0 0,1 1,0 0,1 1,0 0,1 1,0 0,1 1,0 0,1 1,0 0,1 1,0 0,1 1,0 0,1 1,0 0,2 1,0 0,1 1,0 0,1 1,0 0,1 1,0 0,1 1,0 0,1 1,0 0,1 1,0 0,1 1,0 0,1 1,0 0,1 1,0 0,1 1,0 0,1 1,0 0,1 1,0 0,1 1,0 0,2 1,0 0,1 1,0 0,1 1,0 0,1 1,0 0,1 1,0 0,1 1,0 0,1 1,0 0,1 1,0 0,1 1,0 0,1 1,0 0,1 1,0 0,1 1,0 0,1 1,0 0,2 1,0 0,1 1,0 0,1 1,0 0,1 1,0 0,1 1,0 0,1 1,0 0,1 1,0 0,1 1,0 0,1 1,0 0,1 1,0 0,1 1,0 0,1 1,0 0,1 1,0 0,1 1,0 0,1 1,0 0,1 1,0 0,1 1,0 0,1 1,0 0,1 1,0 0,1 1,0 0,1 1,0 0,1 1,0 0,1 1,0 0,1 1,0 0,1 1,0 0,1 1,0 0,1 1,0 0,1 1,0 0,1 1,0 0,1 1,0 0,1 1,0 0,1 1,0 0,2 1,0 0,1 1,0 0,1 1,0 0,1 1,0 0,1 1,0 0,1 1,0 0,1 1,0 0,1 1,0 0,1 1,0 0,1 1,0 0,1 1,0 0,1 1,0 0,1 1,0 0,1 1,0 0,1 1,0 0,1 1,0 0,1 1,0 0,1 1,0 0,1 1,0 0,1 1,0 0,1 1,0 0,1 1,0 0,1 1,0 0,1 2,0 0,1 1,0 0,1 1,0 0,1 1,0 0,1 1,0 0,1 1,0 0,1 1,0 0,1 1,0 0,1 1,0 0,1 1,0 0,1 1,0 0,1 1,0 0,1 1,0 0,1 1,0 0,1 1,0 0,1 1,0 0,1 1,0 0,1 1,0 0,1 1,0 0,1 1,0 0,1 1,0 0,1 1,0 0,1 1,0 0,1 1,0 0,1 1,0 0,1 1,0 0,1 1,0 0,1 1,0 0,1 1,0 0,1 1,0 0,1 1,0 0,1 2,0 0,1 1,0 0,1 1,0 0,1 1,0 0,1 1,0 0,1 1,0 0,1 1,0 0,1 1,0 0,1 1,0 0,1 1,0 0,1 1,0 0,1 1,0 0,1 1,0 0,1 2,0 0,1 1,0 0,1 1,0 0,1 1,0 0,1 1,0 0,1 1,0 0,1 1,0 0,1 1,0 0,1 1,0 0,1 1,0 0,1 1,0 0,1 1,0 0,1 1,0 0,1 1,0 0,1 2,0 0,1 1,0 0,1 1,0 0,1 1,0 0,1 1,0 0,1 1,0 0,1 1,0 0,1 1,0 0,1 1,0 0,1 1,0 0,1 2,0 0,1 1,0 0,1 1,0 0,1 1,0 0,1 1,0 0,1 1,0 0,1 1,0 0,1 1,0 0,1 2,0 0,1 1,0 0,1 1,0 0,1 1,0 0,1 1,0 0,1 1,0 0,1 1,0 0,1 1,0 0,1 2,0 0,1 1,0 0,1 1,0 0,1 1,0 0,1 1,0 0,1 1,0 0,1 1,0 0,1 1,0 0,1 2,0 0,1 1,0 0,1 1,0 0,1 1,0 0,1 1,0 0,1 1,0 0,1 1,0 0,1 1,0 0,1 2,0 0,1 1,0 0,1 1,0 0,1 1,0 0,1 1,0 0,1 2,0 0,1 1,0 0,1 1,0 0,1 1,0 0,1 1,0 0,1 1,0 0,1 2,0 0,1 1,0 0,1 1,0 0,1 1,0 0,1 1,0 0,1 2,0 0,1 1,0 0,1 1,0 0,1 1,0 0,1 1,0 0,1 1,0 0,1 2,0 0,1 1,0 0,1 1,0 0,1 1,0 0,1 1,0 0,1 2,0 0,1 1,0 0,1 1,0 0,1 1,0 0,1 1,0 0,1 2,0 0,1 1,0 0,1 1,0 0,1 1,0 0,1 1,0 0,1 2,0 0,1 1,0 0,1 1,0 0,1 1,0 0,1 2,0 0,1 1,0 0,1 1,0 0,1 1,0 0,1 1,0 0,1 2,0 0,1 1,0 0,1 1,0 0,1 1,0 0,1 2,0 0,1 1,0 0,1 1,0 0,1 1,0 0,1 2,0 0,1 1,0 0,1 1,0 0,1 1,0 0,1 2,0 0,1 1,0 0,1 1,0 0,1 1,0 0,1 2,0 0,1 1,0 0,1 1,0 0,1 1,0 0,1 2,0 0,1 1,0 0,1 1,0 0,1 1,0 0,1 2,0 0,1 1,0 0,1 1,0 0,1 1,0 0,1 2,0 0,1 1,0 0,1 1,0 0,1 2,0 0,1 1,0 0,1 1,0 0,1 2,0 0,1 1,0 0,1 1,0 0,1 2,0 0,1 1,0 0,1 1,0 0,1 1,0 0,1 2,0 0,1 1,0 0,1 1,0 0,1 2,0 0,1 1,0 0,1 1,0 0,1 2,0 0,1 1,0 0,1 1,0 0,1 1,0 0,1 2,0 0,1 1,0 0,1 1,0 0,1 2,0 0,1 1,0 0,1 1,0 0,1 2,0 0,1 1,0 0,1 1,0 0,1 2,0 0,1 1,0 0,1 2,0 0,1 1,0 0,1 1,0 0,1 2,0 0,1 1,0 0,1 1,0 0,1 2,0 0,1 1,0 0,1 1,0 0,1 2,0 0,1 1,0 0,1 2,0 0,1 1,0 0,1 1,0 0,1 2,0 0,1 1,0 0,1 1,0 0,1 2,0 0,1 1,0 0,1 2,0 0,1 1,0 0,1 1,0 0,1 2,0 0,1 1,0 0,1 1,0 0,1 2,0 0,1 1,0 0,1 2,0 0,1 1,0 0,1 1,0 0,1 2,0 0,1 1,0 0,1 2,0 0,1 1,0 0,1 2,0 0,1 1,0 0,1 2,0 0,1 1,0 0,1 1,0 0,1 2,0 0,1 1,0 0,1 2,0 0,1 1,0 0,1 2,0 0,1 1,0 0,1 2,0 0,1 1,0 0,1 1,0 0,1 2,0 0,1 1,0 0,1 2,0 0,1 1,0 0,1 2,0 0,1 1,0 0,1 1,0 0,1 2,0 0,1 1,0 0,1 2,0 0,1 1,0 0,1 2,0 0,1 1,0 0,1 2,0 0,1 1,0 0,1 2,0 0,1 1,0 0,1 2,0 0,1 1,0 0,1 2,0 0,1 1,0 0,1 2,0 0,1 1,0 0,1 2,0 0,1 2,0 0,1 1,0 0,1 2,0 0,1 1,0 0,1 2,0 0,1 1,0 0,1 2,0 0,1 1,0 0,1 2,0 0,1 1,0 0,1 2,0 0,1 1,0 0,1 2,0 0,1 1,0 0,1 2,0 0,1 1,0 0,1 2,0 0,1 1,0 0,1 2,0 0,1 2,0 0,1 1,0 0,1 2,0 0,1 1,0 0,1 2,0 0,1 2,0 0,1 1,0 0,1 2,0 0,1 1,0 0,1 2,0 0,1 2,0 0,1 1,0 0,1 2,0 0,1 1,0 0,1 2,0 0,1 2,0 0,1 1,0 0,1 2,0 0,1 1,0 0,1 2,0 0,1 2,0 0,1 1,0 0,1 2,0 0,1 1,0 0,1 2,0 0,1 2,0 0,1 1,0 0,1 2,0 0,1 2,0 0,1 1,0 0,1 2,0 0,1 2,0 0,1 1,0 0,1 2,0 0,1 2,0 0,1 1,0 0,1 2,0 0,1 2,0 0,1 1,0 0,1 2,0 0,1 2,0 0,1 2,0 0,1 1,0 0,1 2,0 0,1 2,0 0,1 1,0 0,1 2,0 0,1 2,0 0,1 1,0 0,1 2,0 0,1 2,0 0,1 1,0 0,1 2,0 0,1 2,0 0,1 2,0 0,1 1,0 0,1 2,0 0,1 2,0 0,1 2,0 0,1 1,0 0,1 2,0 0,1 2,0 0,1 2,0 0,1 2,0 0,1 1,0 0,1 2,0 0,1 2,0 0,1 2,0 0,1 2,0 0,1 1,0 0,1 2,0 0,1 2,0 0,1 2,0 0,1 1,0 0,1 2,0 0,1 2,0 0,1 2,0 0,1 2,0 0,1 1,0 0,1 2,0 0,1 2,0 0,1 2,0 0,1 2,0 0,1 2,0 0,1 1,0 0,1 2,0 0,1 2,0 0,1 2,0 0,1 2,0 0,1 2,0 0,1 2,0 0,1 2,0 0,1 2,0 0,1 1,0 0,1 2,0 0,1 2,0 0,1 2,0 0,1 2,0 0,1 2,0 0,1 2,0 0,1 2,0 0,1 2,0 0,1 2,0 0,1 1,0 0,1 2,0 0,1 2,0 0,1 2,0 0,1 2,0 0,1 2,0 0,1 2,0 0,1 2,0 0,1 2,0 0,1 2,0 0,1 2,0 0,1 2,0 0,1 2,0 0,1 2,0 0,1 2,0 0,1 2,0 0,1 2,0 0,1 2,0 0,1 2,0 0,1 2,0 0,1 2,0 0,1 2,0 0,1 2,0 0,1 2,0 0,1 2,0 0,1 2,0 0,1 2,0 0,1 2,0 0,1 2,0 0,1 2,0 0,1 2,0 0,1 3,0 0,1 2,0 0,1 2,0 0,1 2,0 0,1 2,0 0,1 2,0 0,1 2,0 0,1 3,0 0,1 2,0 0,1 2,0 0,1 2,0 0,1 2,0 0,1 2,0 0,1 2,0 0,1 3,0 0,1 2,0 0,1 2,0 0,1 2,0 0,1 2,0 0,1 2,0 0,1 2,0 0,1 3,0 0,1 2,0 0,1 2,0 0,1 2,0 0,1 3,0 0,1 2,0 0,1 2,0 0,1 2,0 0,1 3,0 0,1 2,0 0,1 2,0 0,1 3,0 0,1 2,0 0,1 2,0 0,1 2,0 0,1 3,0 0,1 2,0 0,1 2,0 0,1 3,0 0,1 2,0 0,1 2,0 0,1 2,0 0,1 3,0 0,1 2,0 0,1 2,0 0,1 3,0 0,1 2,0 0,1 3,0 0,1 2,0 0,1 3,0 0,1 2,0 0,1 3,0 0,1 2,0 0,1 3,0 0,1 2,0 0,1 2,0 0,1 3,0 0,1 2,0 0,1 3,0 0,1 2,0 0,1 3,0 0,1 2,0 0,1 3,0 0,1 2,0 0,1 2,0 0,1 3,0 0,1 3,0 0,1 2,0 0,1 3,0 0,1 3,0 0,1 2,0 0,1 3,0 0,1 2,0 0,1 3,0 0,1 3,0 0,1 2,0 0,1 3,0 0,1 3,0 0,1 2,0 0,1 3,0 0,1 3,0 0,1 2,0 0,1 3,0 0,1 2,0 0,1 3,0 0,1 3,0 0,1 3,0 0,1 3,0 0,1 2,0 0,1 3,0 0,1 3,0 0,1 3,0 0,1 3,0 0,1 3,0 0,1 3,0 0,1 2,0 0,1 3,0 0,1 3,0 0,1 3,0 0,1 3,0 0,1 3,0 0,1 2,0 0,1 3,0 0,1 3,0 0,1 3,0 0,1 3,0 0,1 3,0 0,1 4,0 0,1 3,0 0,1 3,0 0,1 3,0 0,1 3,0 0,1 3,0 0,1 3,0 0,1 3,0 0,1 3,0 0,1 3,0 0,1 3,0 0,1 3,0 0,1 4,0 0,1 3,0 0,1 3,0 0,1 3,0 0,1 4,0 0,1 3,0 0,1 4,0 0,1 3,0 0,1 3,0 0,1 4,0 0,1 3,0 0,1 3,0 0,1 4,0 0,1 3,0 0,1 3,0 0,1 4,0 0,1 3,0 0,1 4,0 0,1 3,0 0,1 4,0 0,1 4,0 0,1 3,0 0,1 4,0 0,1 4,0 0,1 3,0 0,1 4,0 0,1 4,0 0,1 4,0 0,1 3,0 0,1 4,0 0,1 4,0 0,1 3,0 0,1 4,0 0,1 4,0 0,1 4,0 0,1 5,0 0,1 4,0 0,1 4,0 0,1 4,0 0,1 4,0 0,1 4,0 0,1 4,0 0,1 4,0 0,1 4,0 0,1 4,0 0,1 5,0 0,1 4,0 0,1 5,0 0,1 4,0 0,1 5,0 0,1 5,0 0,1 4,0 0,1 5,0 0,1 4,0 0,1 5,0 0,1 5,0 0,1 4,0 0,1 5,0 0,1 5,0 0,1 5,0 0,1 5,0 0,1 6,0 0,1 5,0 0,1 5,0 0,1 5,0 0,1 6,0 0,1 5,0 0,1 5,0 0,1 6,0 0,1 6,0 0,1 6,0 0,1 6,0 0,1 6,0 0,1 6,0 0,1 6,0 0,1 6,0 0,1 6,0 0,1 6,0 0,1 7,0 0,1 7,0 0,1 7,0 0,1 7,0 0,1 8,0 0,1 7,0 0,1 7,0 0,1 7,0 0,1 9,0 0,1 9,0 0,1 8,0 0,1 9,0 0,1 9,0 0,1 9,0 0,1 10,0 0,1 11,0 0,1 11,0 0,1 11,0 0,1 12,0 0,1 12,0 0,1 16,0 0,1 16,0 0,1 16,0 0,1 22,0 0,1 27,0 0,1 149,0 0,-1 26,0 0,-1 23,0 0,-1 15,0 0,-1 16,0 0,-1 16,0 0,-1 13,0 0,-1 11,0 0,-1 11,0 0,-1 12,0 0,-1 11,0 0,-1 10,0 0,-1 9,0 0,-1 8,0 0,-1 9,0 0,-1 9,0 0,-1 9,0 0,-1 8,0 0,-1 8,0 0,-1 7,0 0,-1 7,0 0,-1 7,0 0,-1 7,0 0,-1 7,0 0,-1 7,0 0,-1 8,0 0,-1 6,0 0,-1 6,0 0,-1 6,0 0,-1 6,0 0,-1 6,0 0,-1 6,0 0,-1 6,0 0,-1 6,0 0,-1 6,0 0,-1 5,0 0,-1 6,0 0,-1 5,0 0,-1 5,0 0,-1 5,0 0,-1 5,0 0,-1 6,0 0,-1 5,0 0,-1 5,0 0,-1 5,0 0,-1 6,0 0,-1 4,0 0,-1 5,0 0,-1 4,0 0,-1 5,0 0,-1 5,0 0,-1 4,0 0,-1 5,0 0,-1 4,0 0,-1 5,0 0,-1 5,0 0,-1 4,0 0,-1 5,0 0,-1 4,0 0,-1 4,0 0,-1 4,0 0,-1 4,0 0,-1 4,0 0,-1 4,0 0,-1 5,0 0,-1 4,0 0,-1 4,0 0,-1 4,0 0,-1 4,0 0,-1 4,0 0,-1 4,0 0,-1 4,0 0,-1 4,0 0,-1 3,0 0,-1 4,0 0,-1 4,0 0,-1 4,0 0,-1 3,0 0,-1 4,0 0,-1 4,0 0,-1 3,0 0,-1 4,0 0,-1 4,0 0,-1 3,0 0,-1 4,0 0,-1 4,0 0,-1 3,0 0,-1 4,0 0,-1 3,0 0,-1 3,0 0,-1 4,0 0,-1 3,0 0,-1 3,0 0,-1 4,0 0,-1 3,0 0,-1 4,0 0,-1 3,0 0,-1 3,0 0,-1 4,0 0,-1 3,0 0,-1 3,0 0,-1 4,0 0,-1 3,0 0,-1 3,0 0,-1 3,0 0,-1 3,0 0,-1 3,0 0,-1 3,0 0,-1 3,0 0,-1 3,0 0,-1 4,0 0,-1 3,0 0,-1 3,0 0,-1 3,0 0,-1 3,0 0,-1 3,0 0,-1 3,0 0,-1 3,0 0,-1 3,0 0,-1 3,0 0,-1 3,0 0,-1 3,0 0,-1 3,0 0,-1 3,0 0,-1 2,0 0,-1 3,0 0,-1 3,0 0,-1 3,0 0,-1 3,0 0,-1 3,0 0,-1 2,0 0,-1 3,0 0,-1 3,0 0,-1 3,0 0,-1 3,0 0,-1 3,0 0,-1 2,0 0,-1 3,0 0,-1 3,0 0,-1 3,0 0,-1 2,0 0,-1 3,0 0,-1 2,0 0,-1 3,0 0,-1 3,0 0,-1 2,0 0,-1 3,0 0,-1 3,0 0,-1 2,0 0,-1 3,0 0,-1 3,0 0,-1 2,0 0,-1 3,0 0,-1 2,0 0,-1 3,0 0,-1 3,0 0,-1 2,0 0,-1 3,0 0,-1 2,0 0,-1 3,0 0,-1 2,0 0,-1 3,0 0,-1 2,0 0,-1 3,0 0,-1 2,0 0,-1 3,0 0,-1 2,0 0,-1 2,0 0,-1 3,0 0,-1 2,0 0,-1 3,0 0,-1 2,0 0,-1 3,0 0,-1 2,0 0,-1 3,0 0,-1 2,0 0,-1 2,0 0,-1 3,0 0,-1 2,0 0,-1 3,0 0,-1 2,0 0,-1 2,0 0,-1 3,0 0,-1 2,0 0,-1 2,0 0,-1 2,0 0,-1 3,0 0,-1 2,0 0,-1 2,0 0,-1 3,0 0,-1 2,0 0,-1 2,0 0,-1 2,0 0,-1 3,0 0,-1 2,0 0,-1 2,0 0,-1 3,0 0,-1 2,0 0,-1 2,0 0,-1 2,0 0,-1 3,0 0,-1 2,0 0,-1 2,0 0,-1 2,0 0,-1 2,0 0,-1 2,0 0,-1 3,0 0,-1 2,0 0,-1 2,0 0,-1 2,0 0,-1 2,0 0,-1 2,0 0,-1 2,0 0,-1 3,0 0,-1 2,0 0,-1 2,0 0,-1 2,0 0,-1 2,0 0,-1 2,0 0,-1 2,0 0,-1 3,0 0,-1 2,0 0,-1 2,0 0,-1 2,0 0,-1 2,0 0,-1 2,0 0,-1 2,0 0,-1 2,0 0,-1 2,0 0,-1 2,0 0,-1 2,0 0,-1 2,0 0,-1 2,0 0,-1 2,0 0,-1 2,0 0,-1 2,0 0,-1 2,0 0,-1 2,0 0,-1 2,0 0,-1 2,0 0,-1 2,0 0,-1 2,0 0,-1 2,0 0,-1 2,0 0,-1 2,0 0,-1 2,0 0,-1 2,0 0,-1 2,0 0,-1 2,0 0,-1 2,0 0,-1 2,0 0,-1 2,0 0,-1 2,0 0,-1 2,0 0,-1 2,0 0,-1 2,0 0,-1 2,0 0,-1 2,0 0,-1 1,0 0,-1 2,0 0,-1 2,0 0,-1 2,0 0,-1 2,0 0,-1 2,0 0,-1 2,0 0,-1 2,0 0,-1 2,0 0,-1 2,0 0,-1 1,0 0,-1 2,0 0,-1 2,0 0,-1 2,0 0,-1 2,0 0,-1 2,0 0,-1 2,0 0,-1 2,0 0,-1 1,0 0,-1 2,0 0,-1 2,0 0,-1 2,0 0,-1 2,0 0,-1 1,0 0,-1 2,0 0,-1 2,0 0,-1 2,0 0,-1 2,0 0,-1 1,0 0,-1 2,0 0,-1 2,0 0,-1 2,0 0,-1 1,0 0,-1 2,0 0,-1 2,0 0,-1 2,0 0,-1 2,0 0,-1 1,0 0,-1 2,0 0,-1 2,0 0,-1 2,0 0,-1 2,0 0,-1 1,0 0,-1 2,0 0,-1 2,0 0,-1 2,0 0,-1 1,0 0,-1 2,0 0,-1 2,0 0,-1 1,0 0,-1 2,0 0,-1 2,0 0,-1 1,0 0,-1 2,0 0,-1 2,0 0,-1 1,0 0,-1 2,0 0,-1 2,0 0,-1 2,0 0,-1 1,0 0,-1 2,0 0,-1 2,0 0,-1 1,0 0,-1 2,0 0,-1 2,0 0,-1 1,0 0,-1 2,0 0,-1 2,0 0,-1 1,0 0,-1 2,0 0,-1 2,0 0,-1 2,0 0,-1 1,0 0,-1 2,0 0,-1 1,0 0,-1 2,0 0,-1 2,0 0,-1 1,0 0,-1 2,0 0,-1 1,0 0,-1 2,0 0,-1 2,0 0,-1 1,0 0,-1 2,0 0,-1 1,0 0,-1 2,0 0,-1 2,0 0,-1 1,0 0,-1 2,0 0,-1 1,0 0,-1 2,0 0,-1 2,0 0,-1 1,0 0,-1 2,0 0,-1 1,0 0,-1 2,0 0,-1 2,0 0,-1 1,0 0,-1 2,0 0,-1 1,0 0,-1 2,0 0,-1 2,0 0,-1 1,0 0,-1 2,0 0,-1 1,0 0,-1 2,0 0,-1 1,0 0,-1 2,0 0,-1 1,0 0,-1 2,0 0,-1 1,0 0,-1 2,0 0,-1 1,0 0,-1 2,0 0,-1 1,0 0,-1 2,0 0,-1 1,0 0,-1 2,0 0,-1 1,0 0,-1 2,0 0,-1 1,0 0,-1 2,0 0,-1 1,0 0,-1 2,0 0,-1 2,0 0,-1 1,0 0,-1 2,0 0,-1 1,0 0,-1 2,0 0,-1 1,0 0,-1 2,0 0,-1 1,0 0,-1 2,0 0,-1 1,0 0,-1 1,0 0,-1 2,0 0,-1 1,0 0,-1 2,0 0,-1 1,0 0,-1 2,0 0,-1 1,0 0,-1 2,0 0,-1 1,0 0,-1 1,0 0,-1 2,0 0,-1 1,0 0,-1 2,0 0,-1 1,0 0,-1 2,0 0,-1 1,0 0,-1 2,0 0,-1 1,0 0,-1 1,0 0,-1 2,0 0,-1 1,0 0,-1 2,0 0,-1 1,0 0,-1 2,0 0,-1 1,0 0,-1 2,0 0,-1 1,0 0,-1 1,0 0,-1 2,0 0,-1 1,0 0,-1 2,0 0,-1 1,0 0,-1 1,0 0,-1 2,0 0,-1 1,0 0,-1 1,0 0,-1 2,0 0,-1 1,0 0,-1 2,0 0,-1 1,0 0,-1 1,0 0,-1 2,0 0,-1 1,0 0,-1 1,0 0,-1 2,0 0,-1 1,0 0,-1 2,0 0,-1 1,0 0,-1 1,0 0,-1 2,0 0,-1 1,0 0,-1 1,0 0,-1 2,0 0,-1 1,0 0,-1 2,0 0,-1 1,0 0,-1 1,0 0,-1 2,0 0,-1 1,0 0,-1 1,0 0,-1 2,0 0,-1 1,0 0,-1 1,0 0,-1 2,0 0,-1 1,0 0,-1 1,0 0,-1 2,0 0,-1 1,0 0,-1 1,0 0,-1 2,0 0,-1 1,0 0,-1 1,0 0,-1 1,0 0,-1 2,0 0,-1 1,0 0,-1 1,0 0,-1 2,0 0,-1 1,0 0,-1 1,0 0,-1 2,0 0,-1 1,0 0,-1 1,0 0,-1 1,0 0,-1 2,0 0,-1 1,0 0,-1 1,0 0,-1 2,0 0,-1 1,0 0,-1 1,0 0,-1 2,0 0,-1 1,0 0,-1 1,0 0,-1 2,0 0,-1 1,0 0,-1 1,0 0,-1 1,0 0,-1 2,0 0,-1 1,0 0,-1 1,0 0,-1 1,0 0,-1 2,0 0,-1 1,0 0,-1 1,0 0,-1 1,0 0,-1 2,0 0,-1 1,0 0,-1 1,0 0,-1 1,0 0,-1 2,0 0,-1 1,0 0,-1 1,0 0,-1 1,0 0,-1 1,0 0,-1 2,0 0,-1 1,0 0,-1 1,0 0,-1 1,0 0,-1 2,0 0,-1 1,0 0,-1 1,0 0,-1 1,0 0,-1 2,0 0,-1 1,0 0,-1 1,0 0,-1 1,0 0,-1 2,0 0,-1 1,0 0,-1 1,0 0,-1 1,0 0,-1 2,0 0,-1 1,0 0,-1 1,0 0,-1 1,0 0,-1 1,0 0,-1 1,0 0,-1 2,0 0,-1 1,0 0,-1 1,0 0,-1 1,0 0,-1 1,0 0,-1 2,0 0,-1 1,0 0,-1 1,0 0,-1 1,0 0,-1 1,0 0,-1 1,0 0,-1 2,0 0,-1 1,0 0,-1 1,0 0,-1 1,0 0,-1 1,0 0,-1 2,0 0,-1 1,0 0,-1 1,0 0,-1 1,0 0,-1 1,0 0,-1 1,0 0,-1 2,0 0,-1 1,0 0,-1 1,0 0,-1 1,0 0,-1 1,0 0,-1 2,0 0,-1 1,0 0,-1 1,0 0,-1 1,0 0,-1 1,0 0,-1 1,0 0,-1 1,0 0,-1 2,0 0,-1 1,0 0,-1 1,0 0,-1 1,0 0,-1 1,0 0,-1 1,0 0,-1 1,0 0,-1 1,0 0,-1 2,0 0,-1 1,0 0,-1 1,0 0,-1 1,0 0,-1 1,0 0,-1 1,0 0,-1 1,0 0,-1 1,0 0,-1 2,0 0,-1 1,0 0,-1 1,0 0,-1 1,0 0,-1 1,0 0,-1 1,0 0,-1 1,0 0,-1 1,0 0,-1 2,0 0,-1 1,0 0,-1 1,0 0,-1 1,0 0,-1 1,0 0,-1 1,0 0,-1 1,0 0,-1 1,0 0,-1 2,0 0,-1 1,0 0,-1 1,0 0,-1 1,0 0,-1 1,0 0,-1 1,0 0,-1 1,0 0,-1 1,0 0,-1 1,0 0,-1 1,0 0,-1 1,0 0,-1 1,0 0,-1 1,0 0,-1 2,0 0,-1 1,0 0,-1 1,0 0,-1 1,0 0,-1 1,0 0,-1 1,0 0,-1 1,0 0,-1 1,0 0,-1 1,0 0,-1 1,0 0,-1 1,0 0,-1 1,0 0,-1 1,0 0,-1 2,0 0,-1 1,0 0,-1 1,0 0,-1 1,0 0,-1 1,0 0,-1 1,0 0,-1 1,0 0,-1 1,0 0,-1 1,0 0,-1 1,0 0,-1 1,0 0,-1 1,0 0,-1 1,0 0,-1 1,0 0,-1 1,0 0,-1 1,0 0,-1 1,0 0,-1 1,0 0,-1 1,0 0,-1 1,0 0,-1 2,0 0,-1 1,0 0,-1 1,0 0,-1 1,0 0,-1 1,0 0,-1 1,0 0,-1 1,0 0,-1 1,0 0,-1 1,0 0,-1 1,0 0,-1 1,0 0,-1 1,0 0,-1 1,0 0,-1 1,0 0,-1 1,0 0,-1 1,0 0,-1 1,0 0,-1 1,0 0,-1 1,0 0,-1 1,0 0,-1 1,0 0,-1 1,0 0,-1 1,0 0,-1 1,0 0,-1 1,0 0,-1 1,0 0,-1 1,0 0,-1 1,0 0,-1 1,0 0,-1 1,0 0,-1 1,0 0,-1 1,0 0,-1 1,0 0,-1 1,0 0,-1 1,0 0,-1 1,0 0,-1 1,0 0,-1 1,0 0,-1 1,0 0,-1 1,0 0,-1 1,0 0,-1 1,0 0,-1 1,0 0,-1 1,0 0,-1 1,0 0,-1 1,0 0,-1 1,0 0,-1 1,0 0,-1 1,0 0,-1 1,0 0,-1 1,0 0,-1 1,0 0,-1 1,0 0,-1 1,0 0,-1 1,0 0,-1 1,0 0,-1 1,0 0,-1 1,0 0,-1 1,0 0,-2 1,0 0,-1 1,0 0,-1 1,0 0,-1 1,0 0,-1 1,0 0,-1 1,0 0,-1 1,0 0,-1 1,0 0,-1 1,0 0,-1 1,0 0,-1 1,0 0,-1 1,0 0,-1 1,0 0,-1 1,0 0,-1 1,0 0,-1 1,0 0,-1 1,0 0,-1 1,0 0,-1 1,0 0,-1 1,0 0,-2 1,0 0,-1 1,0 0,-1 1,0 0,-1 1,0 0,-1 1,0 0,-1 1,0 0,-1 1,0 0,-1 1,0 0,-1 1,0 0,-1 1,0 0,-1 1,0 0,-1 1,0 0,-1 1,0 0,-2 1,0 0,-1 1,0 0,-1 1,0 0,-1 1,0 0,-1 1,0 0,-1 1,0 0,-1 1,0 0,-1 1,0 0,-1 1,0 0,-1 1,0 0,-1 1,0 0,-1 1,0 0,-1 1,0 0,-1 1,0 0,-2 1,0 0,-1 1,0 0,-1 1,0 0,-1 1,0 0,-1 1,0 0,-1 1,0 0,-1 1,0 0,-2 1,0 0,-1 1,0 0,-1 1,0 0,-1 1,0 0,-1 1,0 0,-1 1,0 0,-1 1,0 0,-1 1,0 0,-2 1,0 0,-1 1,0 0,-1 1,0 0,-1 1,0 0,-1 1,0 0,-1 1,0 0,-1 1,0 0,-1 1,0 0,-2 1,0 0,-1 1,0 0,-1 1,0 0,-1 1,0 0,-1 1,0 0,-1 1,0 0,-1 1,0 0,-1 1,0 0,-2 1,0 0,-1 1,0 0,-1 1,0 0,-1 1,0 0,-1 1,0 0,-1 1,0 0,-1 1,0 0,-2 1,0 0,-1 1,0 0,-1 1,0 0,-1 1,0 0,-1 1,0 0,-1 1,0 0,-2 1,0 0,-1 1,0 0,-1 1,0 0,-1 1,0 0,-1 1,0 0,-2 1,0 0,-1 1,0 0,-1 1,0 0,-1 1,0 0,-1 1,0 0,-2 1,0 0,-1 1,0 0,-1 1,0 0,-1 1,0 0,-1 1,0 0,-1 1,0 0,-2 1,0 0,-1 1,0 0,-1 1,0 0,-1 1,0 0,-1 1,0 0,-2 1,0 0,-1 1,0 0,-1 1,0 0,-1 1,0 0,-1 1,0 0,-1 1,0 0,-2 1,0 0,-1 1,0 0,-1 1,0 0,-1 1,0 0,-2 1,0 0,-1 1,0 0,-1 1,0 0,-1 1,0 0,-2 1,0 0,-1 1,0 0,-1 1,0 0,-1 1,0 0,-2 1,0 0,-1 1,0 0,-1 1,0 0,-1 1,0 0,-1 1,0 0,-2 1,0 0,-1 1,0 0,-1 1,0 0,-1 1,0 0,-2 1,0 0,-1 1,0 0,-1 1,0 0,-1 1,0 0,-2 1,0 0,-1 1,0 0,-1 1,0 0,-1 1,0 0,-2 1,0 0,-1 1,0 0,-1 1,0 0,-1 1,0 0,-2 1,0 0,-1 1,0 0,-1 1,0 0,-1 1,0 0,-2 1,0 0,-1 1,0 0,-1 1,0 0,-2 1,0 0,-1 1,0 0,-1 1,0 0,-2 1,0 0,-1 1,0 0,-1 1,0 0,-1 1,0 0,-2 1,0 0,-1 1,0 0,-1 1,0 0,-2 1,0 0,-1 1,0 0,-1 1,0 0,-2 1,0 0,-1 1,0 0,-1 1,0 0,-2 1,0 0,-1 1,0 0,-1 1,0 0,-1 1,0 0,-2 1,0 0,-1 1,0 0,-1 1,0 0,-2 1,0 0,-1 1,0 0,-1 1,0 0,-2 1,0 0,-1 1,0 0,-1 1,0 0,-2 1,0 0,-1 1,0 0,-1 1,0 0,-2 1,0 0,-1 1,0 0,-1 1,0 0,-2 1,0 0,-1 1,0 0,-2 1,0 0,-1 1,0 0,-1 1,0 0,-2 1,0 0,-1 1,0 0,-1 1,0 0,-2 1,0 0,-1 1,0 0,-1 1,0 0,-2 1,0 0,-1 1,0 0,-2 1,0 0,-1 1,0 0,-1 1,0 0,-2 1,0 0,-1 1,0 0,-1 1,0 0,-2 1,0 0,-1 1,0 0,-2 1,0 0,-1 1,0 0,-1 1,0 0,-2 1,0 0,-1 1,0 0,-2 1,0 0,-1 1,0 0,-1 1,0 0,-2 1,0 0,-1 1,0 0,-2 1,0 0,-1 1,0 0,-2 1,0 0,-1 1,0 0,-1 1,0 0,-2 1,0 0,-1 1,0 0,-2 1,0 0,-1 1,0 0,-2 1,0 0,-1 1,0 0,-2 1,0 0,-1 1,0 0,-1 1,0 0,-2 1,0 0,-1 1,0 0,-2 1,0 0,-1 1,0 0,-2 1,0 0,-1 1,0 0,-2 1,0 0,-1 1,0 0,-1 1,0 0,-2 1,0 0,-1 1,0 0,-2 1,0 0,-1 1,0 0,-2 1,0 0,-1 1,0 0,-2 1,0 0,-1 1,0 0,-2 1,0 0,-1 1,0 0,-2 1,0 0,-1 1,0 0,-2 1,0 0,-1 1,0 0,-2 1,0 0,-2 1,0 0,-1 1,0 0,-2 1,0 0,-1 1,0 0,-2 1,0 0,-1 1,0 0,-2 1,0 0,-1 1,0 0,-2 1,0 0,-1 1,0 0,-2 1,0 0,-1 1,0 0,-2 1,0 0,-1 1,0 0,-2 1,0 0,-1 1,0 0,-2 1,0 0,-1 1,0 0,-2 1,0 0,-1 1,0 0,-2 1,0 0,-2 1,0 0,-1 1,0 0,-2 1,0 0,-1 1,0 0,-2 1,0 0,-2 1,0 0,-1 1,0 0,-2 1,0 0,-2 1,0 0,-1 1,0 0,-2 1,0 0,-1 1,0 0,-2 1,0 0,-2 1,0 0,-1 1,0 0,-2 1,0 0,-1 1,0 0,-2 1,0 0,-2 1,0 0,-1 1,0 0,-2 1,0 0,-1 1,0 0,-2 1,0 0,-2 1,0 0,-1 1,0 0,-2 1,0 0,-1 1,0 0,-2 1,0 0,-2 1,0 0,-1 1,0 0,-2 1,0 0,-2 1,0 0,-2 1,0 0,-1 1,0 0,-2 1,0 0,-2 1,0 0,-1 1,0 0,-2 1,0 0,-2 1,0 0,-1 1,0 0,-2 1,0 0,-2 1,0 0,-1 1,0 0,-2 1,0 0,-2 1,0 0,-2 1,0 0,-1 1,0 0,-2 1,0 0,-2 1,0 0,-1 1,0 0,-2 1,0 0,-2 1,0 0,-1 1,0 0,-2 1,0 0,-2 1,0 0,-2 1,0 0,-1 1,0 0,-2 1,0 0,-2 1,0 0,-2 1,0 0,-1 1,0 0,-2 1,0 0,-2 1,0 0,-2 1,0 0,-2 1,0 0,-1 1,0 0,-2 1,0 0,-2 1,0 0,-2 1,0 0,-2 1,0 0,-1 1,0 0,-2 1,0 0,-2 1,0 0,-2 1,0 0,-2 1,0 0,-1 1,0 0,-2 1,0 0,-2 1,0 0,-2 1,0 0,-1 1,0 0,-2 1,0 0,-2 1,0 0,-2 1,0 0,-2 1,0 0,-2 1,0 0,-2 1,0 0,-2 1,0 0,-1 1,0 0,-2 1,0 0,-2 1,0 0,-2 1,0 0,-2 1,0 0,-2 1,0 0,-2 1,0 0,-2 1,0 0,-2 1,0 0,-1 1,0 0,-2 1,0 0,-2 1,0 0,-2 1,0 0,-2 1,0 0,-2 1,0 0,-2 1,0 0,-2 1,0 0,-2 1,0 0,-2 1,0 0,-1 1,0 0,-2 1,0 0,-2 1,0 0,-2 1,0 0,-2 1,0 0,-2 1,0 0,-2 1,0 0,-2 1,0 0,-2 1,0 0,-2 1,0 0,-3 1,0 0,-2 1,0 0,-2 1,0 0,-2 1,0 0,-2 1,0 0,-2 1,0 0,-2 1,0 0,-2 1,0 0,-2 1,0 0,-2 1,0 0,-2 1,0 0,-2 1,0 0,-2 1,0 0,-2 1,0 0,-2 1,0 0,-2 1,0 0,-2 1,0 0,-2 1,0 0,-2 1,0 0,-2 1,0 0,-2 1,0 0,-3 1,0 0,-2 1,0 0,-2 1,0 0,-2 1,0 0,-2 1,0 0,-2 1,0 0,-2 1,0 0,-3 1,0 0,-2 1,0 0,-2 1,0 0,-2 1,0 0,-2 1,0 0,-2 1,0 0,-2 1,0 0,-3 1,0 0,-2 1,0 0,-2 1,0 0,-2 1,0 0,-2 1,0 0,-2 1,0 0,-3 1,0 0,-2 1,0 0,-2 1,0 0,-3 1,0 0,-2 1,0 0,-2 1,0 0,-2 1,0 0,-3 1,0 0,-2 1,0 0,-2 1,0 0,-3 1,0 0,-2 1,0 0,-2 1,0 0,-2 1,0 0,-3 1,0 0,-2 1,0 0,-2 1,0 0,-3 1,0 0,-2 1,0 0,-2 1,0 0,-2 1,0 0,-3 1,0 0,-2 1,0 0,-3 1,0 0,-2 1,0 0,-3 1,0 0,-2 1,0 0,-3 1,0 0,-2 1,0 0,-2 1,0 0,-3 1,0 0,-2 1,0 0,-3 1,0 0,-2 1,0 0,-3 1,0 0,-2 1,0 0,-3 1,0 0,-2 1,0 0,-2 1,0 0,-3 1,0 0,-2 1,0 0,-3 1,0 0,-2 1,0 0,-3 1,0 0,-3 1,0 0,-2 1,0 0,-3 1,0 0,-3 1,0 0,-2 1,0 0,-3 1,0 0,-3 1,0 0,-2 1,0 0,-3 1,0 0,-2 1,0 0,-3 1,0 0,-3 1,0 0,-2 1,0 0,-3 1,0 0,-3 1,0 0,-2 1,0 0,-3 1,0 0,-2 1,0 0,-3 1,0 0,-3 1,0 0,-3 1,0 0,-3 1,0 0,-3 1,0 0,-3 1,0 0,-2 1,0 0,-3 1,0 0,-3 1,0 0,-3 1,0 0,-3 1,0 0,-3 1,0 0,-2 1,0 0,-3 1,0 0,-3 1,0 0,-3 1,0 0,-3 1,0 0,-3 1,0 0,-3 1,0 0,-3 1,0 0,-3 1,0 0,-3 1,0 0,-3 1,0 0,-3 1,0 0,-3 1,0 0,-3 1,0 0,-3 1,0 0,-3 1,0 0,-3 1,0 0,-3 1,0 0,-4 1,0 0,-3 1,0 0,-3 1,0 0,-3 1,0 0,-3 1,0 0,-3 1,0 0,-3 1,0 0,-4 1,0 0,-3 1,0 0,-3 1,0 0,-4 1,0 0,-3 1,0 0,-4 1,0 0,-3 1,0 0,-3 1,0 0,-4 1,0 0,-3 1,0 0,-3 1,0 0,-4 1,0 0,-3 1,0 0,-3 1,0 0,-4 1,0 0,-4 1,0 0,-3 1,0 0,-4 1,0 0,-4 1,0 0,-3 1,0 0,-4 1,0 0,-4 1,0 0,-3 1,0 0,-4 1,0 0,-4 1,0 0,-4 1,0 0,-3 1,0 0,-4 1,0 0,-4 1,0 0,-3 1,0 0,-5 1,0 0,-4 1,0 0,-4 1,0 0,-4 1,0 0,-4 1,0 0,-4 1,0 0,-4 1,0 0,-4 1,0 0,-4 1,0 0,-4 1,0 0,-5 1,0 0,-4 1,0 0,-4 1,0 0,-4 1,0 0,-5 1,0 0,-5 1,0 0,-4 1,0 0,-5 1,0 0,-4 1,0 0,-5 1,0 0,-5 1,0 0,-4 1,0 0,-5 1,0 0,-4 1,0 0,-5 1,0 0,-5 1,0 0,-5 1,0 0,-6 1,0 0,-5 1,0 0,-5 1,0 0,-5 1,0 0,-5 1,0 0,-6 1,0 0,-5 1,0 0,-5 1,0 0,-6 1,0 0,-6 1,0 0,-6 1,0 0,-6 1,0 0,-6 1,0 0,-6 1,0 0,-6 1,0 0,-6 1,0 0,-6 1,0 0,-6 1,0 0,-7 1,0 0,-7 1,0 0,-7 1,0 0,-7 1,0 0,-7 1,0 0,-8 1,0 0,-7 1,0 0,-7 1,0 0,-9 1,0 0,-8 1,0 0,-9 1,0 0,-9 1,0 0,-9 1,0 0,-8 1,0 0,-10 1,0 0,-11 1,0 0,-12 1,0 0,-11 1,0 0,-11 1,0 0,-12 1,0 0,-16 1,0 0,-16 1,0 0,-16 1,0 0,-21 1,0 0,-27 1,0 0,-43 1,0 0,-68 -1,0 0,-43 -1,0 0,-26 -1,0 0,-22 -1,0 0,-16 -1,0 0,-15 -1,0 0,-16 -1,0 0,-13 -1,0 0,-11 -1,0 0,-11 -1,0 0,-11 -1,0 0,-12 -1,0 0,-9 -1,0 0,-9 -1,0 0,-9 -1,0 0,-9 -1,0 0,-8 -1,0 0,-9 -1,0 0,-9 -1,0 0,-7 -1,0 0,-7 -1,0 0,-7 -1,0 0,-7 -1,0 0,-7 -1,0 0,-8 -1,0 0,-7 -1,0 0,-7 -1,0 0,-6 -1,0 0,-6 -1,0 0,-6 -1,0 0,-6 -1,0 0,-6 -1,0 0,-6 -1,0 0,-6 -1,0 0,-6 -1,0 0,-6 -1,0 0,-6 -1,0 0,-5 -1,0 0,-5 -1,0 0,-5 -1,0 0,-5 -1,0 0,-6 -1,0 0,-5 -1,0 0,-5 -1,0 0,-5 -1,0 0,-5 -1,0 0,-6 -1,0 0,-4 -1,0 0,-5 -1,0 0,-4 -1,0 0,-5 -1,0 0,-5 -1,0 0,-4 -1,0 0,-5 -1,0 0,-4 -1,0 0,-5 -1,0 0,-5 -1,0 0,-4 -1,0 0,-5 -1,0 0,-4 -1,0 0,-4 -1,0 0,-4 -1,0 0,-4 -1,0 0,-4 -1,0 0,-4 -1,0 0,-5 -1,0 0,-4 -1,0 0,-4 -1,0 0,-4 -1,0 0,-4 -1,0 0,-4 -1,0 0,-4 -1,0 0,-4 -1,0 0,-4 -1,0 0,-3 -1,0 0,-4 -1,0 0,-4 -1,0 0,-4 -1,0 0,-3 -1,0 0,-4 -1,0 0,-4 -1,0 0,-3 -1,0 0,-4 -1,0 0,-4 -1,0 0,-3 -1,0 0,-4 -1,0 0,-4 -1,0 0,-3 -1,0 0,-4 -1,0 0,-3 -1,0 0,-3 -1,0 0,-4 -1,0 0,-3 -1,0 0,-3 -1,0 0,-4 -1,0 0,-3 -1,0 0,-3 -1,0 0,-4 -1,0 0,-3 -1,0 0,-4 -1,0 0,-3 -1,0 0,-3 -1,0 0,-4 -1,0 0,-3 -1,0 0,-3 -1,0 0,-3 -1,0 0,-3 -1,0 0,-3 -1,0 0,-3 -1,0 0,-3 -1,0 0,-3 -1,0 0,-3 -1,0 0,-4 -1,0 0,-3 -1,0 0,-3 -1,0 0,-3 -1,0 0,-3 -1,0 0,-3 -1,0 0,-3 -1,0 0,-3 -1,0 0,-3 -1,0 0,-3 -1,0 0,-3 -1,0 0,-3 -1,0 0,-2 -1,0 0,-3 -1,0 0,-3 -1,0 0,-3 -1,0 0,-3 -1,0 0,-3 -1,0 0,-2 -1,0 0,-3 -1,0 0,-3 -1,0 0,-3 -1,0 0,-3 -1,0 0,-3 -1,0 0,-2 -1,0 0,-3 -1,0 0,-3 -1,0 0,-3 -1,0 0,-2 -1,0 0,-3 -1,0 0,-3 -1,0 0,-2 -1,0 0,-3 -1,0 0,-3 -1,0 0,-2 -1,0 0,-3 -1,0 0,-2 -1,0 0,-3 -1,0 0,-3 -1,0 0,-2 -1,0 0,-3 -1,0 0,-3 -1,0 0,-2 -1,0 0,-3 -1,0 0,-3 -1,0 0,-2 -1,0 0,-3 -1,0 0,-2 -1,0 0,-3 -1,0 0,-2 -1,0 0,-3 -1,0 0,-2 -1,0 0,-2 -1,0 0,-3 -1,0 0,-2 -1,0 0,-3 -1,0 0,-2 -1,0 0,-3 -1,0 0,-2 -1,0 0,-3 -1,0 0,-2 -1,0 0,-3 -1,0 0,-2 -1,0 0,-2 -1,0 0,-3 -1,0 0,-2 -1,0 0,-3 -1,0 0,-2 -1,0 0,-2 -1,0 0,-3 -1,0 0,-2 -1,0 0,-2 -1,0 0,-3 -1,0 0,-2 -1,0 0,-2 -1,0 0,-2 -1,0 0,-3 -1,0 0,-2 -1,0 0,-2 -1,0 0,-3 -1,0 0,-2 -1,0 0,-2 -1,0 0,-2 -1,0 0,-3 -1,0 0,-2 -1,0 0,-2 -1,0 0,-3 -1,0 0,-2 -1,0 0,-2 -1,0 0,-2 -1,0 0,-3 -1,0 0,-2 -1,0 0,-2 -1,0 0,-2 -1,0 0,-2 -1,0 0,-2 -1,0 0,-3 -1,0 0,-2 -1,0 0,-2 -1,0 0,-2 -1,0 0,-2 -1,0 0,-2 -1,0 0,-2 -1,0 0,-3 -1,0 0,-2 -1,0 0,-2 -1,0 0,-2 -1,0 0,-2 -1,0 0,-2 -1,0 0,-2 -1,0 0,-3 -1,0 0,-2 -1,0 0,-2 -1,0 0,-2 -1,0 0,-2 -1,0 0,-2 -1,0 0,-2 -1,0 0,-2 -1,0 0,-2 -1,0 0,-2 -1,0 0,-2 -1,0 0,-2 -1,0 0,-2 -1,0 0,-2 -1,0 0,-2 -1,0 0,-2 -1,0 0,-2 -1,0 0,-2 -1,0 0,-2 -1,0 0,-2 -1,0 0,-2 -1,0 0,-2 -1,0 0,-2 -1,0 0,-2 -1,0 0,-2 -1,0 0,-2 -1,0 0,-2 -1,0 0,-2 -1,0 0,-2 -1,0 0,-2 -1,0 0,-2 -1,0 0,-2 -1,0 0,-2 -1,0 0,-2 -1,0 0,-2 -1,0 0,-1 -1,0 0,-2 -1,0 0,-2 -1,0 0,-2 -1,0 0,-2 -1,0 0,-2 -1,0 0,-2 -1,0 0,-2 -1,0 0,-2 -1,0 0,-2 -1,0 0,-1 -1,0 0,-2 -1,0 0,-2 -1,0 0,-2 -1,0 0,-2 -1,0 0,-2 -1,0 0,-2 -1,0 0,-2 -1,0 0,-2 -1,0 0,-1 -1,0 0,-2 -1,0 0,-2 -1,0 0,-2 -1,0 0,-2 -1,0 0,-1 -1,0 0,-2 -1,0 0,-2 -1,0 0,-2 -1,0 0,-1 -1,0 0,-2 -1,0 0,-2 -1,0 0,-2 -1,0 0,-2 -1,0 0,-1 -1,0 0,-2 -1,0 0,-2 -1,0 0,-2 -1,0 0,-2 -1,0 0,-1 -1,0 0,-2 -1,0 0,-2 -1,0 0,-2 -1,0 0,-2 -1,0 0,-1 -1,0 0,-2 -1,0 0,-2 -1,0 0,-2 -1,0 0,-1 -1,0 0,-2 -1,0 0,-2 -1,0 0,-1 -1,0 0,-2 -1,0 0,-2 -1,0 0,-1 -1,0 0,-2 -1,0 0,-2 -1,0 0,-2 -1,0 0,-1 -1,0 0,-2 -1,0 0,-2 -1,0 0,-1 -1,0 0,-2 -1,0 0,-2 -1,0 0,-1 -1,0 0,-2 -1,0 0,-2 -1,0 0,-1 -1,0 0,-2 -1,0 0,-2 -1,0 0,-1 -1,0 0,-2 -1,0 0,-2 -1,0 0,-2 -1,0 0,-1 -1,0 0,-2 -1,0 0,-1 -1,0 0,-2 -1,0 0,-2 -1,0 0,-1 -1,0 0,-2 -1,0 0,-2 -1,0 0,-1 -1,0 0,-2 -1,0 0,-1 -1,0 0,-2 -1,0 0,-2 -1,0 0,-1 -1,0 0,-2 -1,0 0,-1 -1,0 0,-2 -1,0 0,-2 -1,0 0,-1 -1,0 0,-2 -1,0 0,-1 -1,0 0,-2 -1,0 0,-2 -1,0 0,-1 -1,0 0,-2 -1,0 0,-1 -1,0 0,-2 -1,0 0,-2 -1,0 0,-1 -1,0 0,-2 -1,0 0,-1 -1,0 0,-2 -1,0 0,-1 -1,0 0,-2 -1,0 0,-1 -1,0 0,-2 -1,0 0,-1 -1,0 0,-2 -1,0 0,-1 -1,0 0,-2 -1,0 0,-1 -1,0 0,-2 -1,0 0,-2 -1,0 0,-1 -1,0 0,-2 -1,0 0,-1 -1,0 0,-2 -1,0 0,-1 -1,0 0,-2 -1,0 0,-1 -1,0 0,-2 -1,0 0,-1 -1,0 0,-2 -1,0 0,-1 -1,0 0,-2 -1,0 0,-1 -1,0 0,-2 -1,0 0,-1 -1,0 0,-2 -1,0 0,-1 -1,0 0,-2 -1,0 0,-1 -1,0 0,-2 -1,0 0,-1 -1,0 0,-2 -1,0 0,-1 -1,0 0,-2 -1,0 0,-1 -1,0 0,-1 -1,0 0,-2 -1,0 0,-1 -1,0 0,-2 -1,0 0,-1 -1,0 0,-2 -1,0 0,-1 -1,0 0,-1 -1,0 0,-2 -1,0 0,-1 -1,0 0,-2 -1,0 0,-1 -1,0 0,-2 -1,0 0,-1 -1,0 0,-2 -1,0 0,-1 -1,0 0,-1 -1,0 0,-2 -1,0 0,-1 -1,0 0,-2 -1,0 0,-1 -1,0 0,-2 -1,0 0,-1 -1,0 0,-2 -1,0 0,-1 -1,0 0,-1 -1,0 0,-2 -1,0 0,-1 -1,0 0,-1 -1,0 0,-2 -1,0 0,-1 -1,0 0,-2 -1,0 0,-1 -1,0 0,-1 -1,0 0,-2 -1,0 0,-1 -1,0 0,-1 -1,0 0,-2 -1,0 0,-1 -1,0 0,-2 -1,0 0,-1 -1,0 0,-1 -1,0 0,-2 -1,0 0,-1 -1,0 0,-1 -1,0 0,-2 -1,0 0,-1 -1,0 0,-1 -1,0 0,-2 -1,0 0,-1 -1,0 0,-2 -1,0 0,-1 -1,0 0,-1 -1,0 0,-2 -1,0 0,-1 -1,0 0,-1 -1,0 0,-2 -1,0 0,-1 -1,0 0,-1 -1,0 0,-2 -1,0 0,-1 -1,0 0,-1 -1,0 0,-2 -1,0 0,-1 -1,0 0,-1 -1,0 0,-2 -1,0 0,-1 -1,0 0,-1 -1,0 0,-1 -1,0 0,-2 -1,0 0,-1 -1,0 0,-1 -1,0 0,-2 -1,0 0,-1 -1,0 0,-1 -1,0 0,-2 -1,0 0,-1 -1,0 0,-1 -1,0 0,-1 -1,0 0,-2 -1,0 0,-1 -1,0 0,-1 -1,0 0,-2 -1,0 0,-1 -1,0 0,-1 -1,0 0,-2 -1,0 0,-1 -1,0 0,-1 -1,0 0,-2 -1,0 0,-1 -1,0 0,-1 -1,0 0,-1 -1,0 0,-2 -1,0 0,-1 -1,0 0,-1 -1,0 0,-1 -1,0 0,-2 -1,0 0,-1 -1,0 0,-1 -1,0 0,-1 -1,0 0,-1 -1,0 0,-2 -1,0 0,-1 -1,0 0,-1 -1,0 0,-1 -1,0 0,-2 -1,0 0,-1 -1,0 0,-1 -1,0 0,-1 -1,0 0,-2 -1,0 0,-1 -1,0 0,-1 -1,0 0,-1 -1,0 0,-2 -1,0 0,-1 -1,0 0,-1 -1,0 0,-1 -1,0 0,-2 -1,0 0,-1 -1,0 0,-1 -1,0 0,-1 -1,0 0,-2 -1,0 0,-1 -1,0 0,-1 -1,0 0,-1 -1,0 0,-1 -1,0 0,-2 -1,0 0,-1 -1,0 0,-1 -1,0 0,-1 -1,0 0,-1 -1,0 0,-1 -1,0 0,-2 -1,0 0,-1 -1,0 0,-1 -1,0 0,-1 -1,0 0,-1 -1,0 0,-2 -1,0 0,-1 -1,0 0,-1 -1,0 0,-1 -1,0 0,-1 -1,0 0,-2 -1,0 0,-1 -1,0 0,-1 -1,0 0,-1 -1,0 0,-1 -1,0 0,-1 -1,0 0,-2 -1,0 0,-1 -1,0 0,-1 -1,0 0,-1 -1,0 0,-1 -1,0 0,-2 -1,0 0,-1 -1,0 0,-1 -1,0 0,-1 -1,0 0,-1 -1,0 0,-1 -1,0 0,-2 -1,0 0,-1 -1,0 0,-1 -1,0 0,-1 -1,0 0,-1 -1,0 0,-1 -1,0 0,-1 -1,0 0,-1 -1,0 0,-2 -1,0 0,-1 -1,0 0,-1 -1,0 0,-1 -1,0 0,-1 -1,0 0,-1 -1,0 0,-1 -1,0 0,-1 -1,0 0,-2 -1,0 0,-1 -1,0 0,-1 -1,0 0,-1 -1,0 0,-1 -1,0 0,-1 -1,0 0,-1 -1,0 0,-2 -1,0 0,-1 -1,0 0,-1 -1,0 0,-1 -1,0 0,-1 -1,0 0,-1 -1,0 0,-1 -1,0 0,-1 -1,0 0,-2 -1,0 0,-1 -1,0 0,-1 -1,0 0,-1 -1,0 0,-1 -1,0 0,-1 -1,0 0,-1 -1,0 0,-1 -1,0 0,-1 -1,0 0,-1 -1,0 0,-2 -1,0 0,-1 -1,0 0,-1 -1,0 0,-1 -1,0 0,-1 -1,0 0,-1 -1,0 0,-1 -1,0 0,-1 -1,0 0,-1 -1,0 0,-1 -1,0 0,-1 -1,0 0,-1 -1,0 0,-1 -1,0 0,-1 -1,0 0,-2 -1,0 0,-1 -1,0 0,-1 -1,0 0,-1 -1,0 0,-1 -1,0 0,-1 -1,0 0,-1 -1,0 0,-1 -1,0 0,-1 -1,0 0,-1 -1,0 0,-1 -1,0 0,-1 -1,0 0,-1 -1,0 0,-2 -1,0 0,-1 -1,0 0,-1 -1,0 0,-1 -1,0 0,-1 -1,0 0,-1 -1,0 0,-1 -1,0 0,-1 -1,0 0,-1 -1,0 0,-1 -1,0 0,-1 -1,0 0,-1 -1,0 0,-1 -1,0 0,-1 -1,0 0,-1 -1,0 0,-1 -1,0 0,-1 -1,0 0,-1 -1,0 0,-1 -1,0 0,-1 -1,0 0,-1 -1,0 0,-1 -1,0 0,-1 -1,0 0,-1 -1,0 0,-1 -1,0 0,-1 -1,0 0,-1 -1,0 0,-1 -1,0 0,-1 -1,0 0,-1 -1,0 0,-2 -1,0 0,-1 -1,0 0,-1 -1,0 0,-1 -1,0 0,-1 -1,0 0,-1 -1,0 0,-1 -1,0 0,-1 -1,0 0,-1 -1,0 0,-1 -1,0 0,-1 -1,0 0,-1 -1,0 0,-1 -1,0 0,-1 -1,0 0,-1 -1,0 0,-1 -1,0 0,-1 -1,0 0,-1 -1,0 0,-1 -1,0 0,-1 -1,0 0,-1 -1,0 0,-1 -1,0 0,-1 -1,0 0,-1 -1,0 0,-1 -1,0 0,-1 -1,0 0,-1 -1,0 0,-1 -1,0 0,-1 -2,0 0,-1 -1,0 0,-1 -1,0 0,-1 -1,0 0,-1 -1,0 0,-1 -1,0 0,-1 -1,0 0,-1 -1,0 0,-1 -1,0 0,-1 -1,0 0,-1 -1,0 0,-1 -1,0 0,-1 -1,0 0,-1 -1,0 0,-1 -1,0 0,-1 -1,0 0,-1 -1,0 0,-1 -1,0 0,-1 -1,0 0,-1 -1,0 0,-1 -1,0 0,-1 -1,0 0,-1 -1,0 0,-1 -1,0 0,-1 -1,0 0,-1 -1,0 0,-1 -1,0 0,-1 -1,0 0,-1 -1,0 0,-1 -2,0 0,-1 -1,0 0,-1 -1,0 0,-1 -1,0 0,-1 -1,0 0,-1 -1,0 0,-1 -1,0 0,-1 -1,0 0,-1 -1,0 0,-1 -1,0 0,-1 -1,0 0,-1 -1,0 0,-1 -1,0 0,-1 -1,0 0,-1 -2,0 0,-1 -1,0 0,-1 -1,0 0,-1 -1,0 0,-1 -1,0 0,-1 -1,0 0,-1 -1,0 0,-1 -1,0 0,-1 -1,0 0,-1 -1,0 0,-1 -1,0 0,-1 -1,0 0,-1 -1,0 0,-1 -2,0 0,-1 -1,0 0,-1 -1,0 0,-1 -1,0 0,-1 -1,0 0,-1 -1,0 0,-1 -1,0 0,-1 -1,0 0,-1 -1,0 0,-1 -1,0 0,-1 -2,0 0,-1 -1,0 0,-1 -1,0 0,-1 -1,0 0,-1 -1,0 0,-1 -1,0 0,-1 -1,0 0,-1 -1,0 0,-1 -2,0 0,-1 -1,0 0,-1 -1,0 0,-1 -1,0 0,-1 -1,0 0,-1 -1,0 0,-1 -1,0 0,-1 -1,0 0,-1 -2,0 0,-1 -1,0 0,-1 -1,0 0,-1 -1,0 0,-1 -1,0 0,-1 -1,0 0,-1 -1,0 0,-1 -1,0 0,-1 -2,0 0,-1 -1,0 0,-1 -1,0 0,-1 -1,0 0,-1 -1,0 0,-1 -1,0 0,-1 -1,0 0,-1 -1,0 0,-1 -2,0 0,-1 -1,0 0,-1 -1,0 0,-1 -1,0 0,-1 -1,0 0,-1 -2,0 0,-1 -1,0 0,-1 -1,0 0,-1 -1,0 0,-1 -1,0 0,-1 -1,0 0,-1 -2,0 0,-1 -1,0 0,-1 -1,0 0,-1 -1,0 0,-1 -1,0 0,-1 -2,0 0,-1 -1,0 0,-1 -1,0 0,-1 -1,0 0,-1 -1,0 0,-1 -1,0 0,-1 -2,0 0,-1 -1,0 0,-1 -1,0 0,-1 -1,0 0,-1 -1,0 0,-1 -2,0 0,-1 -1,0 0,-1 -1,0 0,-1 -1,0 0,-1 -1,0 0,-1 -1,0 0,-1 -2,0 0,-1 -1,0 0,-1 -1,0 0,-1 -1,0 0,-1 -2,0 0,-1 -1,0 0,-1 -1,0 0,-1 -1,0 0,-1 -2,0 0,-1 -1,0 0,-1 -1,0 0,-1 -1,0 0,-1 -1,0 0,-1 -2,0 0,-1 -1,0 0,-1 -1,0 0,-1 -1,0 0,-1 -2,0 0,-1 -1,0 0,-1 -1,0 0,-1 -1,0 0,-1 -2,0 0,-1 -1,0 0,-1 -1,0 0,-1 -1,0 0,-1 -2,0 0,-1 -1,0 0,-1 -1,0 0,-1 -1,0 0,-1 -2,0 0,-1 -1,0 0,-1 -1,0 0,-1 -1,0 0,-1 -2,0 0,-1 -1,0 0,-1 -1,0 0,-1 -1,0 0,-1 -2,0 0,-1 -1,0 0,-1 -1,0 0,-1 -2,0 0,-1 -1,0 0,-1 -1,0 0,-1 -1,0 0,-1 -2,0 0,-1 -1,0 0,-1 -1,0 0,-1 -2,0 0,-1 -1,0 0,-1 -1,0 0,-1 -2,0 0,-1 -1,0 0,-1 -1,0 0,-1 -1,0 0,-1 -2,0 0,-1 -1,0 0,-1 -1,0 0,-1 -2,0 0,-1 -1,0 0,-1 -1,0 0,-1 -2,0 0,-1 -1,0 0,-1 -1,0 0,-1 -2,0 0,-1 -1,0 0,-1 -1,0 0,-1 -1,0 0,-1 -2,0 0,-1 -1,0 0,-1 -1,0 0,-1 -2,0 0,-1 -1,0 0,-1 -1,0 0,-1 -2,0 0,-1 -1,0 0,-1 -2,0 0,-1 -1,0 0,-1 -1,0 0,-1 -2,0 0,-1 -1,0 0,-1 -1,0 0,-1 -2,0 0,-1 -1,0 0,-1 -2,0 0,-1 -1,0 0,-1 -1,0 0,-1 -2,0 0,-1 -1,0 0,-1 -1,0 0,-1 -2,0 0,-1 -1,0 0,-1 -2,0 0,-1 -1,0 0,-1 -1,0 0,-1 -2,0 0,-1 -1,0 0,-1 -1,0 0,-1 -2,0 0,-1 -1,0 0,-1 -1,0 0,-1 -2,0 0,-1 -1,0 0,-1 -2,0 0,-1 -1,0 0,-1 -2,0 0,-1 -1,0 0,-1 -1,0 0,-1 -2,0 0,-1 -1,0 0,-1 -2,0 0,-1 -1,0 0,-1 -2,0 0,-1 -1,0 0,-1 -1,0 0,-1 -2,0 0,-1 -1,0 0,-1 -2,0 0,-1 -1,0 0,-1 -2,0 0,-1 -1,0 0,-1 -2,0 0,-1 -1,0 0,-1 -1,0 0,-1 -2,0 0,-1 -1,0 0,-1 -2,0 0,-1 -1,0 0,-1 -2,0 0,-1 -1,0 0,-1 -2,0 0,-1 -1,0 0,-1 -1,0 0,-1 -2,0 0,-1 -1,0 0,-1 -2,0 0,-1 -1,0 0,-1 -2,0 0,-1 -1,0 0,-1 -2,0 0,-1 -1,0 0,-1 -2,0 0,-1 -1,0 0,-1 -2,0 0,-1 -2,0 0,-1 -1,0 0,-1 -2,0 0,-1 -1,0 0,-1 -2,0 0,-1 -1,0 0,-1 -2,0 0,-1 -1,0 0,-1 -2,0 0,-1 -1,0 0,-1 -2,0 0,-1 -1,0 0,-1 -2,0 0,-1 -1,0 0,-1 -2,0 0,-1 -1,0 0,-1 -2,0 0,-1 -1,0 0,-1 -2,0 0,-1 -1,0 0,-1 -2,0 0,-1 -2,0 0,-1 -1,0 0,-1 -2,0 0,-1 -1,0 0,-1 -2,0 0,-1 -2,0 0,-1 -1,0 0,-1 -2,0 0,-1 -1,0 0,-1 -2,0 0,-1 -2,0 0,-1 -1,0 0,-1 -2,0 0,-1 -1,0 0,-1 -2,0 0,-1 -2,0 0,-1 -1,0 0,-1 -2,0 0,-1 -1,0 0,-1 -2,0 0,-1 -2,0 0,-1 -1,0 0,-1 -2,0 0,-1 -1,0 0,-1 -2,0 0,-1 -2,0 0,-1 -1,0 0,-1 -2,0 0,-1 -1,0 0,-1 -2,0 0,-1 -2,0 0,-1 -1,0 0,-1 -2,0 0,-1 -2,0 0,-1 -1,0 0,-1 -2,0 0,-1 -2,0 0,-1 -2,0 0,-1 -1,0 0,-1 -2,0 0,-1 -2,0 0,-1 -1,0 0,-1 -2,0 0,-1 -2,0 0,-1 -1,0 0,-1 -2,0 0,-1 -2,0 0,-1 -1,0 0,-1 -2,0 0,-1 -2,0 0,-1 -2,0 0,-1 -1,0 0,-1 -2,0 0,-1 -2,0 0,-1 -1,0 0,-1 -2,0 0,-1 -2,0 0,-1 -1,0 0,-1 -2,0 0,-1 -2,0 0,-1 -2,0 0,-1 -2,0 0,-1 -1,0 0,-1 -2,0 0,-1 -2,0 0,-1 -2,0 0,-1 -2,0 0,-1 -1,0 0,-1 -2,0 0,-1 -2,0 0,-1 -2,0 0,-1 -2,0 0,-1 -1,0 0,-1 -2,0 0,-1 -2,0 0,-1 -2,0 0,-1 -1,0 0,-1 -2,0 0,-1 -2,0 0,-1 -2,0 0,-1 -2,0 0,-1 -1,0 0,-1 -2,0 0,-1 -2,0 0,-1 -2,0 0,-1 -2,0 0,-1 -2,0 0,-1 -2,0 0,-1 -1,0 0,-1 -2,0 0,-1 -2,0 0,-1 -2,0 0,-1 -2,0 0,-1 -2,0 0,-1 -2,0 0,-1 -2,0 0,-1 -2,0 0,-1 -1,0 0,-1 -2,0 0,-1 -2,0 0,-1 -2,0 0,-1 -2,0 0,-1 -2,0 0,-1 -2,0 0,-1 -2,0 0,-1 -2,0 0,-1 -2,0 0,-1 -1,0 0,-1 -2,0 0,-1 -2,0 0,-1 -2,0 0,-1 -2,0 0,-1 -2,0 0,-1 -2,0 0,-1 -2,0 0,-1 -2,0 0,-1 -2,0 0,-1 -2,0 0,-1 -2,0 0,-1 -2,0 0,-1 -2,0 0,-1 -2,0 0,-1 -2,0 0,-1 -2,0 0,-1 -2,0 0,-1 -2,0 0,-1 -2,0 0,-1 -2,0 0,-1 -2,0 0,-1 -2,0 0,-1 -2,0 0,-1 -2,0 0,-1 -2,0 0,-1 -2,0 0,-1 -3,0 0,-1 -2,0 0,-1 -2,0 0,-1 -2,0 0,-1 -2,0 0,-1 -2,0 0,-1 -2,0 0,-1 -3,0 0,-1 -2,0 0,-1 -2,0 0,-1 -2,0 0,-1 -2,0 0,-1 -2,0 0,-1 -2,0 0,-1 -3,0 0,-1 -2,0 0,-1 -2,0 0,-1 -2,0 0,-1 -2,0 0,-1 -2,0 0,-1 -2,0 0,-1 -3,0 0,-1 -2,0 0,-1 -2,0 0,-1 -2,0 0,-1 -2,0 0,-1 -3,0 0,-1 -2,0 0,-1 -2,0 0,-1 -2,0 0,-1 -3,0 0,-1 -2,0 0,-1 -2,0 0,-1 -3,0 0,-1 -2,0 0,-1 -2,0 0,-1 -2,0 0,-1 -3,0 0,-1 -2,0 0,-1 -2,0 0,-1 -3,0 0,-1 -2,0 0,-1 -2,0 0,-1 -2,0 0,-1 -3,0 0,-1 -2,0 0,-1 -2,0 0,-1 -3,0 0,-1 -2,0 0,-1 -3,0 0,-1 -2,0 0,-1 -3,0 0,-1 -2,0 0,-1 -3,0 0,-1 -2,0 0,-1 -2,0 0,-1 -3,0 0,-1 -2,0 0,-1 -3,0 0,-1 -2,0 0,-1 -3,0 0,-1 -2,0 0,-1 -3,0 0,-1 -2,0 0,-1 -2,0 0,-1 -3,0 0,-1 -2,0 0,-1 -3,0 0,-1 -3,0 0,-1 -2,0 0,-1 -3,0 0,-1 -2,0 0,-1 -3,0 0,-1 -3,0 0,-1 -2,0 0,-1 -3,0 0,-1 -3,0 0,-1 -2,0 0,-1 -3,0 0,-1 -2,0 0,-1 -3,0 0,-1 -3,0 0,-1 -2,0 0,-1 -3,0 0,-1 -3,0 0,-1 -2,0 0,-1 -3,0 0,-1 -3,0 0,-1 -2,0 0,-1 -3,0 0,-1 -3,0 0,-1 -3,0 0,-1 -3,0 0,-1 -3,0 0,-1 -3,0 0,-1 -2,0 0,-1 -3,0 0,-1 -3,0 0,-1 -3,0 0,-1 -3,0 0,-1 -3,0 0,-1 -2,0 0,-1 -3,0 0,-1 -3,0 0,-1 -3,0 0,-1 -3,0 0,-1 -3,0 0,-1 -3,0 0,-1 -3,0 0,-1 -3,0 0,-1 -3,0 0,-1 -3,0 0,-1 -3,0 0,-1 -3,0 0,-1 -3,0 0,-1 -4,0 0,-1 -3,0 0,-1 -3,0 0,-1 -3,0 0,-1 -3,0 0,-1 -3,0 0,-1 -3,0 0,-1 -3,0 0,-1 -3,0 0,-1 -4,0 0,-1 -3,0 0,-1 -3,0 0,-1 -4,0 0,-1 -3,0 0,-1 -4,0 0,-1 -3,0 0,-1 -3,0 0,-1 -4,0 0,-1 -3,0 0,-1 -3,0 0,-1 -4,0 0,-1 -3,0 0,-1 -3,0 0,-1 -4,0 0,-1 -3,0 0,-1 -4,0 0,-1 -4,0 0,-1 -3,0 0,-1 -4,0 0,-1 -4,0 0,-1 -4,0 0,-1 -3,0 0,-1 -4,0 0,-1 -4,0 0,-1 -3,0 0,-1 -4,0 0,-1 -4,0 0,-1 -3,0 0,-1 -4,0 0,-1 -4,0 0,-1 -4,0 0,-1 -4,0 0,-1 -4,0 0,-1 -5,0 0,-1 -4,0 0,-1 -4,0 0,-1 -4,0 0,-1 -4,0 0,-1 -4,0 0,-1 -4,0 0,-1 -4,0 0,-1 -4,0 0,-1 -5,0 0,-1 -4,0 0,-1 -5,0 0,-1 -5,0 0,-1 -4,0 0,-1 -5,0 0,-1 -4,0 0,-1 -5,0 0,-1 -4,0 0,-1 -5,0 0,-1 -5,0 0,-1 -4,0 0,-1 -5,0 0,-1 -5,0 0,-1 -6,0 0,-1 -5,0 0,-1 -5,0 0,-1 -5,0 0,-1 -5,0 0,-1 -6,0 0,-1 -5,0 0,-1 -5,0 0,-1 -5,0 0,-1 -6,0 0,-1 -6,0 0,-1 -6,0 0,-1 -6,0 0,-1 -6,0 0,-1 -6,0 0,-1 -6,0 0,-1 -6,0 0,-1 -6,0 0,-1 -7,0 0,-1 -7,0 0,-1 -7,0 0,-1 -7,0 0,-1 -7,0 0,-1 -7,0 0,-1 -8,0 0,-1 -7,0 0,-1 -7,0 0,-1 -9,0 0,-1 -9,0 0,-1 -9,0 0,-1 -8,0 0,-1 -9,0 0,-1 -9,0 0,-1 -11,0 0,-1 -11,0 0,-1 -11,0 0,-1 -12,0 0,-1 -11,0 0,-1 -14,0 0,-1 -16,0 0,-1 -16,0 0,-1 -15,0 0,-1 -26,0 0,-1 -27,0 0,-1 -132,0 z m 979,1208 0,-1 27,0 0,1 7,0 0,1 6,0 0,1 5,0 0,1 4,0 0,1 4,0 0,1 3,0 0,1 3,0 0,1 3,0 0,1 2,0 0,1 3,0 0,1 2,0 0,1 2,0 0,1 3,0 0,1 2,0 0,1 2,0 0,1 2,0 0,1 2,0 0,1 1,0 0,1 2,0 0,1 2,0 0,1 1,0 0,1 2,0 0,1 2,0 0,1 1,0 0,1 1,0 0,1 2,0 0,1 1,0 0,1 1,0 0,1 2,0 0,1 1,0 0,1 2,0 0,1 1,0 0,1 1,0 0,1 1,0 0,1 1,0 0,1 1,0 0,1 1,0 0,1 1,0 0,1 2,0 0,1 1,0 0,1 1,0 0,1 1,0 0,1 1,0 0,2 1,0 0,1 1,0 0,1 1,0 0,1 1,0 0,1 1,0 0,1 1,0 0,1 1,0 0,1 1,0 0,2 1,0 0,1 1,0 0,1 1,0 0,2 1,0 0,1 1,0 0,1 1,0 0,2 1,0 0,1 1,0 0,2 1,0 0,1 1,0 0,2 1,0 0,2 1,0 0,1 1,0 0,2 1,0 0,2 1,0 0,2 1,0 0,2 1,0 0,2 1,0 0,2 1,0 0,2 1,0 0,2 1,0 0,3 1,0 0,3 1,0 0,2 1,0 0,3 1,0 0,4 1,0 0,3 1,0 0,4 1,0 0,4 1,0 0,7 1,0 0,6 1,0 0,34 -1,0 0,13 -1,0 0,6 -1,0 0,5 -1,0 0,6 -1,0 0,5 -1,0 0,4 -1,0 0,3 -1,0 0,3 -1,0 0,2 -1,0 0,3 -1,0 0,3 -1,0 0,3 -1,0 0,3 -1,0 0,2 -1,0 0,1 -1,0 0,2 -1,0 0,2 -1,0 0,2 -1,0 0,2 -1,0 0,1 -1,0 0,2 -1,0 0,2 -1,0 0,2 -1,0 0,1 -1,0 0,1 -1,0 0,2 -1,0 0,1 -1,0 0,1 -1,0 0,1 -1,0 0,2 -1,0 0,1 -1,0 0,1 -1,0 0,2 -1,0 0,1 -1,0 0,1 -1,0 0,1 -1,0 0,1 -1,0 0,1 -1,0 0,1 -1,0 0,1 -1,0 0,1 -1,0 0,1 -1,0 0,1 -1,0 0,1 -1,0 0,1 -1,0 0,1 -1,0 0,1 -2,0 0,1 -1,0 0,1 -1,0 0,1 -1,0 0,1 -1,0 0,1 -1,0 0,1 -2,0 0,1 -1,0 0,1 -1,0 0,1 -2,0 0,1 -1,0 0,1 -2,0 0,1 -1,0 0,1 -1,0 0,1 -2,0 0,1 -1,0 0,1 -1,0 0,1 -2,0 0,1 -1,0 0,1 -2,0 0,1 -2,0 0,1 -1,0 0,1 -2,0 0,1 -1,0 0,1 -2,0 0,1 -2,0 0,1 -1,0 0,1 -2,0 0,1 -1,0 0,1 -2,0 0,1 -2,0 0,1 -2,0 0,1 -1,0 0,1 -2,0 0,1 -2,0 0,1 -1,0 0,1 -2,0 0,1 -2,0 0,1 -2,0 0,1 -1,0 0,1 -2,0 0,1 -2,0 0,1 -2,0 0,1 -1,0 0,1 -2,0 0,1 -2,0 0,1 -2,0 0,1 -1,0 0,1 -2,0 0,1 -2,0 0,1 -2,0 0,1 -1,0 0,1 -2,0 0,1 -2,0 0,1 -2,0 0,1 -1,0 0,1 -2,0 0,1 -2,0 0,1 -2,0 0,1 -1,0 0,1 -2,0 0,1 -2,0 0,1 -1,0 0,1 -2,0 0,1 -2,0 0,1 -2,0 0,1 -1,0 0,1 -2,0 0,1 -2,0 0,1 -2,0 0,1 -1,0 0,1 -2,0 0,1 -2,0 0,1 -2,0 0,1 -2,0 0,1 -2,0 0,1 -2,0 0,1 -2,0 0,1 -1,0 0,1 -2,0 0,1 -2,0 0,1 -2,0 0,1 -2,0 0,1 -2,0 0,1 -2,0 0,1 -2,0 0,1 -2,0 0,1 -2,0 0,1 -1,0 0,1 -2,0 0,1 -2,0 0,1 -2,0 0,1 -2,0 0,1 -2,0 0,1 -2,0 0,1 -2,0 0,1 -2,0 0,1 -2,0 0,1 -1,0 0,1 -2,0 0,1 -2,0 0,1 -2,0 0,1 -2,0 0,1 -2,0 0,1 -2,0 0,1 -2,0 0,1 -2,0 0,1 -1,0 0,1 -2,0 0,1 -2,0 0,1 -2,0 0,1 -2,0 0,1 -2,0 0,1 -2,0 0,1 -3,0 0,1 -2,0 0,1 -2,0 0,1 -2,0 0,1 -2,0 0,1 -2,0 0,1 -2,0 0,1 -2,0 0,1 -2,0 0,1 -2,0 0,1 -2,0 0,1 -2,0 0,1 -2,0 0,1 -3,0 0,1 -2,0 0,1 -2,0 0,1 -2,0 0,1 -2,0 0,1 -2,0 0,1 -2,0 0,1 -2,0 0,1 -2,0 0,1 -2,0 0,1 -2,0 0,1 -2,0 0,1 -2,0 0,1 -3,0 0,1 -2,0 0,1 -2,0 0,1 -2,0 0,1 -2,0 0,1 -2,0 0,1 -2,0 0,1 -2,0 0,1 -3,0 0,1 -2,0 0,1 -2,0 0,1 -2,0 0,1 -3,0 0,1 -2,0 0,1 -2,0 0,1 -3,0 0,1 -2,0 0,1 -2,0 0,1 -2,0 0,1 -3,0 0,1 -2,0 0,1 -2,0 0,1 -3,0 0,1 -2,0 0,1 -2,0 0,1 -2,0 0,1 -3,0 0,1 -2,0 0,1 -2,0 0,1 -3,0 0,1 -2,0 0,1 -2,0 0,1 -2,0 0,1 -3,0 0,1 -2,0 0,1 -2,0 0,1 -3,0 0,1 -2,0 0,1 -2,0 0,1 -2,0 0,1 -3,0 0,1 -2,0 0,1 -3,0 0,1 -2,0 0,1 -3,0 0,1 -2,0 0,1 -3,0 0,1 -3,0 0,1 -2,0 0,1 -3,0 0,1 -2,0 0,1 -3,0 0,1 -2,0 0,1 -3,0 0,1 -2,0 0,1 -3,0 0,1 -2,0 0,1 -3,0 0,1 -2,0 0,1 -3,0 0,1 -2,0 0,1 -3,0 0,1 -2,0 0,1 -3,0 0,1 -3,0 0,1 -2,0 0,1 -3,0 0,1 -2,0 0,1 -3,0 0,1 -2,0 0,1 -3,0 0,1 -2,0 0,1 -3,0 0,1 -3,0 0,1 -3,0 0,1 -3,0 0,1 -2,0 0,1 -3,0 0,1 -3,0 0,1 -3,0 0,1 -3,0 0,1 -3,0 0,1 -2,0 0,1 -3,0 0,1 -3,0 0,1 -3,0 0,1 -3,0 0,1 -3,0 0,1 -2,0 0,1 -3,0 0,1 -3,0 0,1 -3,0 0,1 -3,0 0,1 -2,0 0,1 -3,0 0,1 -3,0 0,1 -3,0 0,1 -3,0 0,1 -3,0 0,1 -2,0 0,1 -4,0 0,1 -3,0 0,1 -3,0 0,1 -3,0 0,1 -3,0 0,1 -3,0 0,1 -4,0 0,1 -3,0 0,1 -3,0 0,1 -3,0 0,1 -3,0 0,1 -3,0 0,1 -4,0 0,1 -3,0 0,1 -3,0 0,1 -3,0 0,1 -3,0 0,1 -4,0 0,1 -3,0 0,1 -3,0 0,1 -3,0 0,1 -3,0 0,1 -3,0 0,1 -4,0 0,1 -3,0 0,1 -3,0 0,1 -4,0 0,1 -3,0 0,1 -4,0 0,1 -4,0 0,1 -3,0 0,1 -4,0 0,1 -3,0 0,1 -4,0 0,1 -4,0 0,1 -3,0 0,1 -4,0 0,1 -3,0 0,1 -4,0 0,1 -4,0 0,1 -3,0 0,1 -4,0 0,1 -3,0 0,1 -4,0 0,1 -4,0 0,1 -3,0 0,1 -4,0 0,1 -3,0 0,1 -4,0 0,1 -5,0 0,1 -4,0 0,1 -4,0 0,1 -4,0 0,1 -4,0 0,1 -4,0 0,1 -5,0 0,1 -4,0 0,1 -4,0 0,1 -4,0 0,1 -4,0 0,1 -4,0 0,1 -4,0 0,1 -5,0 0,1 -4,0 0,1 -4,0 0,1 -4,0 0,1 -4,0 0,1 -4,0 0,1 -5,0 0,1 -5,0 0,1 -5,0 0,1 -5,0 0,1 -4,0 0,1 -5,0 0,1 -5,0 0,1 -5,0 0,1 -5,0 0,1 -5,0 0,1 -5,0 0,1 -5,0 0,1 -4,0 0,1 -5,0 0,1 -5,0 0,1 -5,0 0,1 -5,0 0,1 -5,0 0,1 -6,0 0,1 -6,0 0,1 -5,0 0,1 -6,0 0,1 -6,0 0,1 -6,0 0,1 -6,0 0,1 -6,0 0,1 -5,0 0,1 -6,0 0,1 -6,0 0,1 -6,0 0,1 -6,0 0,1 -6,0 0,1 -6,0 0,1 -7,0 0,1 -7,0 0,1 -8,0 0,1 -7,0 0,1 -7,0 0,1 -7,0 0,1 -8,0 0,1 -7,0 0,1 -7,0 0,1 -8,0 0,1 -7,0 0,1 -7,0 0,1 -10,0 0,1 -9,0 0,1 -10,0 0,1 -9,0 0,1 -10,0 0,1 -9,0 0,1 -10,0 0,1 -9,0 0,1 -10,0 0,1 -12,0 0,1 -13,0 0,1 -14,0 0,1 -13,0 0,1 -14,0 0,1 -13,0 0,1 -14,0 0,1 -22,0 0,1 -23,0 0,1 -23,0 0,1 -23,0 0,1 -67,0 0,1 -50,0 0,-1 -64,0 0,-1 -35,0 0,-1 -22,0 0,-1 -21,0 0,-1 -22,0 0,-1 -21,0 0,-1 -16,0 0,-1 -13,0 0,-1 -13,0 0,-1 -13,0 0,-1 -13,0 0,-1 -13,0 0,-1 -13,0 0,-1 -13,0 0,-1 -12,0 0,-1 -9,0 0,-1 -9,0 0,-1 -10,0 0,-1 -9,0 0,-1 -9,0 0,-1 -10,0 0,-1 -9,0 0,-1 -10,0 0,-1 -9,0 0,-1 -9,0 0,-1 -10,0 0,-1 -7,0 0,-1 -8,0 0,-1 -7,0 0,-1 -7,0 0,-1 -8,0 0,-1 -7,0 0,-1 -7,0 0,-1 -8,0 0,-1 -7,0 0,-1 -8,0 0,-1 -7,0 0,-1 -7,0 0,-1 -8,0 0,-1 -7,0 0,-1 -7,0 0,-1 -6,0 0,-1 -6,0 0,-1 -6,0 0,-1 -6,0 0,-1 -6,0 0,-1 -6,0 0,-1 -7,0 0,-1 -6,0 0,-1 -6,0 0,-1 -6,0 0,-1 -6,0 0,-1 -6,0 0,-1 -6,0 0,-1 -6,0 0,-1 -7,0 0,-1 -6,0 0,-1 -6,0 0,-1 -5,0 0,-1 -5,0 0,-1 -5,0 0,-1 -6,0 0,-1 -5,0 0,-1 -5,0 0,-1 -5,0 0,-1 -6,0 0,-1 -5,0 0,-1 -5,0 0,-1 -5,0 0,-1 -6,0 0,-1 -5,0 0,-1 -5,0 0,-1 -5,0 0,-1 -6,0 0,-1 -5,0 0,-1 -5,0 0,-1 -6,0 0,-1 -5,0 0,-1 -4,0 0,-1 -5,0 0,-1 -5,0 0,-1 -4,0 0,-1 -5,0 0,-1 -5,0 0,-1 -4,0 0,-1 -5,0 0,-1 -4,0 0,-1 -5,0 0,-1 -5,0 0,-1 -4,0 0,-1 -5,0 0,-1 -5,0 0,-1 -4,0 0,-1 -5,0 0,-1 -5,0 0,-1 -4,0 0,-1 -5,0 0,-1 -5,0 0,-1 -4,0 0,-1 -5,0 0,-1 -4,0 0,-1 -5,0 0,-1 -4,0 0,-1 -4,0 0,-1 -3,0 0,-1 -4,0 0,-1 -3,0 0,-1 -3,0 0,-1 -2,0 0,-1 -3,0 0,-1 -3,0 0,-1 -2,0 0,-1 -2,0 0,-1 -2,0 0,-1 -2,0 0,-1 -3,0 0,-1 -2,0 0,-1 -1,0 0,-1 -2,0 0,-1 -2,0 0,-1 -2,0 0,-1 -1,0 0,-1 -2,0 0,-1 -2,0 0,-1 -1,0 0,-1 -2,0 0,-1 -1,0 0,-1 -1,0 0,-1 -2,0 0,-1 -1,0 0,-1 -2,0 0,-1 -1,0 0,-1 -1,0 0,-1 -1,0 0,-1 -1,0 0,-1 -1,0 0,-1 -2,0 0,-1 -1,0 0,-1 -1,0 0,-1 -1,0 0,-1 -1,0 0,-1 -1,0 0,-1 -1,0 0,-1 -1,0 0,-1 -1,0 0,-1 -1,0 0,-1 -1,0 0,-1 -1,0 0,-2 -1,0 0,-1 -1,0 0,-1 -1,0 0,-1 -1,0 0,-2 -1,0 0,-1 -1,0 0,-1 -1,0 0,-1 -1,0 0,-2 -1,0 0,-2 -1,0 0,-1 -1,0 0,-2 -1,0 0,-1 -1,0 0,-2 -1,0 0,-1 -1,0 0,-2 -1,0 0,-2 -1,0 0,-2 -1,0 0,-2 -1,0 0,-2 -1,0 0,-2 -1,0 0,-2 -1,0 0,-3 -1,0 0,-2 -1,0 0,-3 -1,0 0,-2 -1,0 0,-3 -1,0 0,-3 -1,0 0,-4 -1,0 0,-3 -1,0 0,-4 -1,0 0,-5 -1,0 0,-5 -1,0 0,-5 -1,0 0,-9 -1,0 0,-14 -1,0 0,-17 1,0 0,-11 1,0 0,-7 1,0 0,-5 1,0 0,-4 1,0 0,-4 1,0 0,-3 1,0 0,-3 1,0 0,-3 1,0 0,-3 1,0 0,-3 1,0 0,-2 1,0 0,-2 1,0 0,-3 1,0 0,-2 1,0 0,-2 1,0 0,-2 1,0 0,-2 1,0 0,-1 1,0 0,-2 1,0 0,-2 1,0 0,-2 1,0 0,-1 1,0 0,-2 1,0 0,-1 1,0 0,-2 1,0 0,-1 1,0 0,-2 1,0 0,-1 1,0 0,-1 1,0 0,-2 1,0 0,-1 1,0 0,-1 1,0 0,-1 1,0 0,-2 1,0 0,-1 1,0 0,-1 1,0 0,-1 1,0 0,-1 1,0 0,-1 1,0 0,-1 1,0 0,-1 1,0 0,-1 1,0 0,-1 1,0 0,-1 1,0 0,-1 1,0 0,-1 1,0 0,-1 1,0 0,-1 1,0 0,-1 1,0 0,-1 1,0 0,-1 2,0 0,-1 1,0 0,-1 1,0 0,-1 2,0 0,-1 1,0 0,-1 1,0 0,-1 1,0 0,-1 2,0 0,-1 1,0 0,-1 2,0 0,-1 2,0 0,-1 1,0 0,-1 2,0 0,-1 1,0 0,-1 2,0 0,-1 2,0 0,-1 2,0 0,-1 2,0 0,-1 2,0 0,-1 2,0 0,-1 2,0 0,-1 3,0 0,-1 2,0 0,-1 3,0 0,-1 3,0 0,-1 2,0 0,-1 4,0 0,-1 4,0 0,-1 4,0 0,-1 4,0 0,-1 6,0 0,-1 7,0 0,-1 16,0 0,-1 3,0 0,1 13,0 0,1 7,0 0,1 6,0 0,1 5,0 0,1 5,0 0,1 5,0 0,1 4,0 0,1 5,0 0,1 4,0 0,1 4,0 0,1 4,0 0,1 5,0 0,1 4,0 0,1 4,0 0,1 4,0 0,1 4,0 0,1 4,0 0,1 4,0 0,1 4,0 0,1 4,0 0,1 5,0 0,1 4,0 0,1 5,0 0,1 5,0 0,1 5,0 0,1 5,0 0,1 5,0 0,1 5,0 0,1 5,0 0,1 5,0 0,1 5,0 0,1 6,0 0,1 5,0 0,1 5,0 0,1 5,0 0,1 5,0 0,1 5,0 0,1 5,0 0,1 5,0 0,1 5,0 0,1 6,0 0,1 6,0 0,1 6,0 0,1 5,0 0,1 6,0 0,1 6,0 0,1 5,0 0,1 6,0 0,1 6,0 0,1 6,0 0,1 5,0 0,1 6,0 0,1 6,0 0,1 5,0 0,1 6,0 0,1 7,0 0,1 6,0 0,1 7,0 0,1 7,0 0,1 6,0 0,1 7,0 0,1 6,0 0,1 7,0 0,1 7,0 0,1 6,0 0,1 7,0 0,1 6,0 0,1 7,0 0,1 7,0 0,1 8,0 0,1 8,0 0,1 8,0 0,1 8,0 0,1 8,0 0,1 7,0 0,1 8,0 0,1 8,0 0,1 8,0 0,1 8,0 0,1 8,0 0,1 10,0 0,1 9,0 0,1 10,0 0,1 10,0 0,1 10,0 0,1 10,0 0,1 10,0 0,1 10,0 0,1 10,0 0,1 12,0 0,1 14,0 0,1 13,0 0,1 13,0 0,1 14,0 0,1 13,0 0,1 14,0 0,1 21,0 0,1 22,0 0,1 22,0 0,1 22,0 0,1 53,0 0,1 91,0 0,-1 46,0 0,-1 22,0 0,-1 22,0 0,-1 22,0 0,-1 15,0 0,-1 13,0 0,-1 13,0 0,-1 13,0 0,-1 14,0 0,-1 13,0 0,-1 10,0 0,-1 10,0 0,-1 9,0 0,-1 9,0 0,-1 10,0 0,-1 9,0 0,-1 9,0 0,-1 9,0 0,-1 10,0 0,-1 7,0 0,-1 7,0 0,-1 7,0 0,-1 7,0 0,-1 7,0 0,-1 8,0 0,-1 7,0 0,-1 7,0 0,-1 7,0 0,-1 7,0 0,-1 7,0 0,-1 6,0 0,-1 6,0 0,-1 6,0 0,-1 6,0 0,-1 5,0 0,-1 6,0 0,-1 6,0 0,-1 6,0 0,-1 6,0 0,-1 6,0 0,-1 5,0 0,-1 6,0 0,-1 6,0 0,-1 5,0 0,-1 5,0 0,-1 5,0 0,-1 5,0 0,-1 4,0 0,-1 5,0 0,-1 5,0 0,-1 5,0 0,-1 5,0 0,-1 5,0 0,-1 5,0 0,-1 5,0 0,-1 4,0 0,-1 5,0 0,-1 5,0 0,-1 5,0 0,-1 4,0 0,-1 4,0 0,-1 4,0 0,-1 5,0 0,-1 4,0 0,-1 4,0 0,-1 4,0 0,-1 4,0 0,-1 4,0 0,-1 5,0 0,-1 4,0 0,-1 4,0 0,-1 4,0 0,-1 4,0 0,-1 4,0 0,-1 5,0 0,-1 4,0 0,-1 4,0 0,-1 4,0 0,-1 3,0 0,-1 4,0 0,-1 3,0 0,-1 4,0 0,-1 4,0 0,-1 3,0 0,-1 4,0 0,-1 4,0 0,-1 3,0 0,-1 4,0 0,-1 4,0 0,-1 3,0 0,-1 4,0 0,-1 3,0 0,-1 4,0 0,-1 4,0 0,-1 3,0 0,-1 4,0 0,-1 4,0 0,-1 3,0 0,-1 3,0 0,-1 3,0 0,-1 4,0 0,-1 3,0 0,-1 3,0 0,-1 3,0 0,-1 3,0 0,-1 3,0 0,-1 4,0 0,-1 3,0 0,-1 3,0 0,-1 3,0 0,-1 3,0 0,-1 4,0 0,-1 3,0 0,-1 3,0 0,-1 3,0 0,-1 3,0 0,-1 4,0 0,-1 3,0 0,-1 3,0 0,-1 3,0 0,-1 3,0 0,-1 3,0 0,-1 3,0 0,-1 3,0 0,-1 3,0 0,-1 2,0 0,-1 3,0 0,-1 3,0 0,-1 3,0 0,-1 3,0 0,-1 3,0 0,-1 2,0 0,-1 3,0 0,-1 3,0 0,-1 3,0 0,-1 3,0 0,-1 3,0 0,-1 3,0 0,-1 2,0 0,-1 3,0 0,-1 3,0 0,-1 3,0 0,-1 3,0 0,-1 3,0 0,-1 2,0 0,-1 3,0 0,-1 3,0 0,-1 2,0 0,-1 3,0 0,-1 2,0 0,-1 3,0 0,-1 2,0 0,-1 3,0 0,-1 2,0 0,-1 3,0 0,-1 3,0 0,-1 2,0 0,-1 3,0 0,-1 2,0 0,-1 3,0 0,-1 2,0 0,-1 3,0 0,-1 2,0 0,-1 3,0 0,-1 3,0 0,-1 2,0 0,-1 3,0 0,-1 2,0 0,-1 3,0 0,-1 2,0 0,-1 3,0 0,-1 2,0 0,-1 3,0 0,-1 2,0 0,-1 2,0 0,-1 3,0 0,-1 2,0 0,-1 2,0 0,-1 3,0 0,-1 2,0 0,-1 2,0 0,-1 3,0 0,-1 2,0 0,-1 2,0 0,-1 2,0 0,-1 3,0 0,-1 2,0 0,-1 2,0 0,-1 3,0 0,-1 2,0 0,-1 2,0 0,-1 3,0 0,-1 2,0 0,-1 2,0 0,-1 2,0 0,-1 3,0 0,-1 2,0 0,-1 2,0 0,-1 3,0 0,-1 2,0 0,-1 2,0 0,-1 3,0 0,-1 2,0 0,-1 2,0 0,-1 2,0 0,-1 2,0 0,-1 2,0 0,-1 2,0 0,-1 2,0 0,-1 2,0 0,-1 2,0 0,-1 3,0 0,-1 2,0 0,-1 2,0 0,-1 2,0 0,-1 2,0 0,-1 2,0 0,-1 2,0 0,-1 2,0 0,-1 2,0 0,-1 2,0 0,-1 2,0 0,-1 2,0 0,-1 3,0 0,-1 2,0 0,-1 2,0 0,-1 2,0 0,-1 2,0 0,-1 2,0 0,-1 2,0 0,-1 2,0 0,-1 2,0 0,-1 2,0 0,-1 2,0 0,-1 2,0 0,-1 2,0 0,-1 2,0 0,-1 2,0 0,-1 2,0 0,-1 2,0 0,-1 2,0 0,-1 2,0 0,-1 1,0 0,-1 2,0 0,-1 2,0 0,-1 2,0 0,-1 2,0 0,-1 2,0 0,-1 2,0 0,-1 2,0 0,-1 2,0 0,-1 2,0 0,-1 1,0 0,-1 2,0 0,-1 2,0 0,-1 2,0 0,-1 2,0 0,-1 2,0 0,-1 2,0 0,-1 2,0 0,-1 2,0 0,-1 2,0 0,-1 1,0 0,-1 2,0 0,-1 2,0 0,-1 2,0 0,-1 2,0 0,-1 2,0 0,-1 2,0 0,-1 1,0 0,-1 2,0 0,-1 2,0 0,-1 2,0 0,-1 1,0 0,-1 2,0 0,-1 2,0 0,-1 2,0 0,-1 1,0 0,-1 2,0 0,-1 2,0 0,-1 1,0 0,-1 2,0 0,-1 2,0 0,-1 2,0 0,-1 1,0 0,-1 2,0 0,-1 2,0 0,-1 2,0 0,-1 1,0 0,-1 2,0 0,-1 2,0 0,-1 2,0 0,-1 1,0 0,-1 2,0 0,-1 2,0 0,-1 1,0 0,-1 2,0 0,-1 2,0 0,-1 2,0 0,-1 1,0 0,-1 2,0 0,-1 2,0 0,-1 2,0 0,-1 1,0 0,-1 2,0 0,-1 2,0 0,-1 1,0 0,-1 2,0 0,-1 2,0 0,-1 1,0 0,-1 2,0 0,-1 2,0 0,-1 1,0 0,-1 2,0 0,-1 2,0 0,-1 2,0 0,-1 2,0 0,-1 1,0 0,-1 2,0 0,-1 2,0 0,-1 2,0 0,-1 2,0 0,-1 2,0 0,-1 2,0 0,-1 2,0 0,-1 3,0 0,-1 2,0 0,-1 2,0 0,-1 3,0 0,-1 2,0 0,-1 3,0 0,-1 3,0 0,-1 3,0 0,-1 4,0 0,-1 4,0 0,-1 4,0 0,-1 6,0 0,-1 7,0 z m 261,604 0,-1 3,0 0,1 18,0 0,1 6,0 0,1 7,0 0,1 5,0 0,1 4,0 0,1 4,0 0,1 4,0 0,1 4,0 0,1 3,0 0,1 2,0 0,1 3,0 0,1 3,0 0,1 2,0 0,1 3,0 0,1 2,0 0,1 2,0 0,1 2,0 0,1 2,0 0,1 2,0 0,1 3,0 0,1 2,0 0,1 1,0 0,1 2,0 0,1 2,0 0,1 1,0 0,1 2,0 0,1 2,0 0,1 1,0 0,1 2,0 0,1 2,0 0,1 1,0 0,1 1,0 0,1 2,0 0,1 1,0 0,1 1,0 0,1 2,0 0,1 1,0 0,1 1,0 0,1 2,0 0,1 1,0 0,1 1,0 0,1 1,0 0,1 1,0 0,1 2,0 0,1 1,0 0,1 1,0 0,1 1,0 0,1 1,0 0,1 1,0 0,1 1,0 0,1 1,0 0,1 1,0 0,1 1,0 0,1 1,0 0,1 1,0 0,1 1,0 0,1 1,0 0,1 1,0 0,1 1,0 0,1 1,0 0,2 1,0 0,1 1,0 0,1 1,0 0,1 1,0 0,1 1,0 0,1 1,0 0,2 1,0 0,1 1,0 0,2 1,0 0,1 1,0 0,1 1,0 0,2 1,0 0,1 1,0 0,1 1,0 0,2 1,0 0,1 1,0 0,2 1,0 0,2 1,0 0,1 1,0 0,2 1,0 0,2 1,0 0,1 1,0 0,2 1,0 0,2 1,0 0,2 1,0 0,2 1,0 0,2 1,0 0,2 1,0 0,2 1,0 0,3 1,0 0,2 1,0 0,2 1,0 0,3 1,0 0,3 1,0 0,3 1,0 0,3 1,0 0,2 1,0 0,4 1,0 0,4 1,0 0,4 1,0 0,4 1,0 0,6 1,0 0,7 1,0 0,8 1,0 0,33 -1,0 0,14 -1,0 0,7 -1,0 0,6 -1,0 0,7 -1,0 0,5 -1,0 0,4 -1,0 0,3 -1,0 0,4 -1,0 0,3 -1,0 0,3 -1,0 0,4 -1,0 0,3 -1,0 0,3 -1,0 0,2 -1,0 0,2 -1,0 0,2 -1,0 0,2 -1,0 0,2 -1,0 0,2 -1,0 0,3 -1,0 0,2 -1,0 0,2 -1,0 0,2 -1,0 0,1 -1,0 0,2 -1,0 0,1 -1,0 0,2 -1,0 0,1 -1,0 0,2 -1,0 0,1 -1,0 0,2 -1,0 0,1 -1,0 0,2 -1,0 0,1 -1,0 0,2 -1,0 0,1 -1,0 0,2 -1,0 0,1 -1,0 0,1 -1,0 0,1 -1,0 0,1 -1,0 0,1 -1,0 0,1 -1,0 0,2 -1,0 0,1 -1,0 0,1 -1,0 0,1 -1,0 0,1 -1,0 0,1 -1,0 0,1 -1,0 0,1 -1,0 0,1 -1,0 0,1 -1,0 0,1 -1,0 0,1 -1,0 0,1 -1,0 0,1 -1,0 0,1 -1,0 0,1 -1,0 0,1 -2,0 0,1 -1,0 0,1 -1,0 0,1 -1,0 0,1 -1,0 0,1 -2,0 0,1 -1,0 0,1 -1,0 0,1 -1,0 0,1 -1,0 0,1 -2,0 0,1 -1,0 0,1 -1,0 0,1 -1,0 0,1 -2,0 0,1 -1,0 0,1 -2,0 0,1 -1,0 0,1 -2,0 0,1 -1,0 0,1 -2,0 0,1 -2,0 0,1 -1,0 0,1 -2,0 0,1 -1,0 0,1 -2,0 0,1 -1,0 0,1 -2,0 0,1 -1,0 0,1 -2,0 0,1 -2,0 0,1 -1,0 0,1 -2,0 0,1 -2,0 0,1 -2,0 0,1 -1,0 0,1 -2,0 0,1 -2,0 0,1 -2,0 0,1 -1,0 0,1 -2,0 0,1 -2,0 0,1 -2,0 0,1 -1,0 0,1 -2,0 0,1 -2,0 0,1 -1,0 0,1 -2,0 0,1 -2,0 0,1 -2,0 0,1 -1,0 0,1 -2,0 0,1 -2,0 0,1 -2,0 0,1 -1,0 0,1 -2,0 0,1 -2,0 0,1 -2,0 0,1 -1,0 0,1 -2,0 0,1 -2,0 0,1 -2,0 0,1 -1,0 0,1 -2,0 0,1 -2,0 0,1 -2,0 0,1 -1,0 0,1 -2,0 0,1 -2,0 0,1 -2,0 0,1 -1,0 0,1 -2,0 0,1 -2,0 0,1 -2,0 0,1 -1,0 0,1 -2,0 0,1 -2,0 0,1 -2,0 0,1 -1,0 0,1 -2,0 0,1 -2,0 0,1 -2,0 0,1 -2,0 0,1 -2,0 0,1 -2,0 0,1 -2,0 0,1 -1,0 0,1 -2,0 0,1 -2,0 0,1 -2,0 0,1 -2,0 0,1 -2,0 0,1 -2,0 0,1 -2,0 0,1 -2,0 0,1 -2,0 0,1 -2,0 0,1 -2,0 0,1 -1,0 0,1 -2,0 0,1 -2,0 0,1 -2,0 0,1 -2,0 0,1 -2,0 0,1 -2,0 0,1 -2,0 0,1 -2,0 0,1 -2,0 0,1 -2,0 0,1 -2,0 0,1 -2,0 0,1 -1,0 0,1 -2,0 0,1 -2,0 0,1 -2,0 0,1 -2,0 0,1 -2,0 0,1 -2,0 0,1 -2,0 0,1 -2,0 0,1 -2,0 0,1 -2,0 0,1 -2,0 0,1 -1,0 0,1 -2,0 0,1 -2,0 0,1 -2,0 0,1 -2,0 0,1 -2,0 0,1 -2,0 0,1 -3,0 0,1 -2,0 0,1 -2,0 0,1 -2,0 0,1 -2,0 0,1 -2,0 0,1 -2,0 0,1 -2,0 0,1 -2,0 0,1 -2,0 0,1 -3,0 0,1 -2,0 0,1 -2,0 0,1 -2,0 0,1 -2,0 0,1 -2,0 0,1 -2,0 0,1 -2,0 0,1 -2,0 0,1 -3,0 0,1 -2,0 0,1 -2,0 0,1 -2,0 0,1 -2,0 0,1 -2,0 0,1 -2,0 0,1 -2,0 0,1 -2,0 0,1 -2,0 0,1 -3,0 0,1 -2,0 0,1 -2,0 0,1 -2,0 0,1 -2,0 0,1 -2,0 0,1 -2,0 0,1 -2,0 0,1 -2,0 0,1 -3,0 0,1 -2,0 0,1 -2,0 0,1 -2,0 0,1 -2,0 0,1 -3,0 0,1 -2,0 0,1 -2,0 0,1 -3,0 0,1 -2,0 0,1 -2,0 0,1 -3,0 0,1 -2,0 0,1 -2,0 0,1 -3,0 0,1 -2,0 0,1 -2,0 0,1 -3,0 0,1 -2,0 0,1 -2,0 0,1 -3,0 0,1 -2,0 0,1 -2,0 0,1 -2,0 0,1 -3,0 0,1 -2,0 0,1 -2,0 0,1 -3,0 0,1 -2,0 0,1 -2,0 0,1 -3,0 0,1 -2,0 0,1 -2,0 0,1 -3,0 0,1 -2,0 0,1 -2,0 0,1 -3,0 0,1 -2,0 0,1 -2,0 0,1 -3,0 0,1 -2,0 0,1 -2,0 0,1 -3,0 0,1 -2,0 0,1 -3,0 0,1 -2,0 0,1 -3,0 0,1 -2,0 0,1 -3,0 0,1 -2,0 0,1 -3,0 0,1 -3,0 0,1 -2,0 0,1 -3,0 0,1 -2,0 0,1 -3,0 0,1 -2,0 0,1 -3,0 0,1 -3,0 0,1 -2,0 0,1 -3,0 0,1 -2,0 0,1 -3,0 0,1 -2,0 0,1 -3,0 0,1 -3,0 0,1 -2,0 0,1 -3,0 0,1 -2,0 0,1 -3,0 0,1 -2,0 0,1 -3,0 0,1 -3,0 0,1 -2,0 0,1 -3,0 0,1 -2,0 0,1 -3,0 0,1 -2,0 0,1 -3,0 0,1 -2,0 0,1 -3,0 0,1 -3,0 0,1 -3,0 0,1 -2,0 0,1 -3,0 0,1 -3,0 0,1 -3,0 0,1 -3,0 0,1 -3,0 0,1 -3,0 0,1 -3,0 0,1 -2,0 0,1 -3,0 0,1 -3,0 0,1 -3,0 0,1 -3,0 0,1 -3,0 0,1 -3,0 0,1 -2,0 0,1 -3,0 0,1 -3,0 0,1 -3,0 0,1 -3,0 0,1 -3,0 0,1 -3,0 0,1 -2,0 0,1 -3,0 0,1 -3,0 0,1 -3,0 0,1 -3,0 0,1 -3,0 0,1 -3,0 0,1 -2,0 0,1 -3,0 0,1 -3,0 0,1 -3,0 0,1 -3,0 0,1 -3,0 0,1 -4,0 0,1 -3,0 0,1 -3,0 0,1 -3,0 0,1 -3,0 0,1 -4,0 0,1 -3,0 0,1 -3,0 0,1 -3,0 0,1 -3,0 0,1 -4,0 0,1 -3,0 0,1 -3,0 0,1 -3,0 0,1 -4,0 0,1 -3,0 0,1 -3,0 0,1 -3,0 0,1 -3,0 0,1 -4,0 0,1 -3,0 0,1 -3,0 0,1 -3,0 0,1 -3,0 0,1 -4,0 0,1 -3,0 0,1 -3,0 0,1 -3,0 0,1 -3,0 0,1 -4,0 0,1 -3,0 0,1 -4,0 0,1 -4,0 0,1 -3,0 0,1 -4,0 0,1 -4,0 0,1 -3,0 0,1 -4,0 0,1 -3,0 0,1 -4,0 0,1 -4,0 0,1 -3,0 0,1 -4,0 0,1 -4,0 0,1 -3,0 0,1 -4,0 0,1 -4,0 0,1 -3,0 0,1 -4,0 0,1 -3,0 0,1 -4,0 0,1 -4,0 0,1 -3,0 0,1 -4,0 0,1 -4,0 0,1 -3,0 0,1 -4,0 0,1 -4,0 0,1 -4,0 0,1 -4,0 0,1 -4,0 0,1 -4,0 0,1 -4,0 0,1 -4,0 0,1 -5,0 0,1 -4,0 0,1 -4,0 0,1 -4,0 0,1 -4,0 0,1 -4,0 0,1 -5,0 0,1 -4,0 0,1 -4,0 0,1 -4,0 0,1 -4,0 0,1 -4,0 0,1 -4,0 0,1 -5,0 0,1 -4,0 0,1 -4,0 0,1 -4,0 0,1 -4,0 0,1 -4,0 0,1 -5,0 0,1 -5,0 0,1 -5,0 0,1 -5,0 0,1 -5,0 0,1 -4,0 0,1 -5,0 0,1 -5,0 0,1 -5,0 0,1 -5,0 0,1 -5,0 0,1 -5,0 0,1 -4,0 0,1 -5,0 0,1 -5,0 0,1 -5,0 0,1 -5,0 0,1 -5,0 0,1 -4,0 0,1 -5,0 0,1 -5,0 0,1 -5,0 0,1 -6,0 0,1 -6,0 0,1 -5,0 0,1 -6,0 0,1 -6,0 0,1 -6,0 0,1 -5,0 0,1 -6,0 0,1 -6,0 0,1 -6,0 0,1 -5,0 0,1 -6,0 0,1 -6,0 0,1 -6,0 0,1 -5,0 0,1 -6,0 0,1 -6,0 0,1 -6,0 0,1 -6,0 0,1 -7,0 0,1 -7,0 0,1 -7,0 0,1 -8,0 0,1 -7,0 0,1 -7,0 0,1 -7,0 0,1 -7,0 0,1 -7,0 0,1 -7,0 0,1 -7,0 0,1 -7,0 0,1 -7,0 0,1 -7,0 0,1 -8,0 0,1 -9,0 0,1 -9,0 0,1 -9,0 0,1 -9,0 0,1 -10,0 0,1 -9,0 0,1 -9,0 0,1 -9,0 0,1 -9,0 0,1 -9,0 0,1 -9,0 0,1 -10,0 0,1 -13,0 0,1 -13,0 0,1 -13,0 0,1 -13,0 0,1 -13,0 0,1 -12,0 0,1 -13,0 0,1 -13,0 0,1 -18,0 0,1 -22,0 0,1 -21,0 0,1 -22,0 0,1 -21,0 0,1 -40,0 0,1 -64,0 0,1 -53,0 0,-1 -61,0 0,-1 -36,0 0,-1 -25,0 0,-1 -21,0 0,-1 -22,0 0,-1 -16,0 0,-1 -16,0 0,-1 -15,0 0,-1 -15,0 0,-1 -13,0 0,-1 -12,0 0,-1 -11,0 0,-1 -12,0 0,-1 -12,0 0,-1 -10,0 0,-1 -10,0 0,-1 -9,0 0,-1 -10,0 0,-1 -10,0 0,-1 -9,0 0,-1 -9,0 0,-1 -8,0 0,-1 -8,0 0,-1 -8,0 0,-1 -8,0 0,-1 -8,0 0,-1 -8,0 0,-1 -8,0 0,-1 -7,0 0,-1 -7,0 0,-1 -7,0 0,-1 -6,0 0,-1 -7,0 0,-1 -7,0 0,-1 -7,0 0,-1 -7,0 0,-1 -6,0 0,-1 -6,0 0,-1 -6,0 0,-1 -6,0 0,-1 -6,0 0,-1 -7,0 0,-1 -6,0 0,-1 -6,0 0,-1 -6,0 0,-1 -5,0 0,-1 -6,0 0,-1 -5,0 0,-1 -6,0 0,-1 -5,0 0,-1 -6,0 0,-1 -5,0 0,-1 -5,0 0,-1 -6,0 0,-1 -5,0 0,-1 -5,0 0,-1 -5,0 0,-1 -5,0 0,-1 -5,0 0,-1 -5,0 0,-1 -5,0 0,-1 -5,0 0,-1 -5,0 0,-1 -5,0 0,-1 -5,0 0,-1 -4,0 0,-1 -5,0 0,-1 -4,0 0,-1 -5,0 0,-1 -5,0 0,-1 -4,0 0,-1 -5,0 0,-1 -5,0 0,-1 -4,0 0,-1 -5,0 0,-1 -4,0 0,-1 -4,0 0,-1 -5,0 0,-1 -4,0 0,-1 -4,0 0,-1 -5,0 0,-1 -4,0 0,-1 -4,0 0,-1 -4,0 0,-1 -5,0 0,-1 -4,0 0,-1 -4,0 0,-1 -4,0 0,-1 -4,0 0,-1 -4,0 0,-1 -5,0 0,-1 -4,0 0,-1 -4,0 0,-1 -4,0 0,-1 -4,0 0,-1 -4,0 0,-1 -4,0 0,-1 -4,0 0,-1 -4,0 0,-1 -4,0 0,-1 -4,0 0,-1 -3,0 0,-1 -4,0 0,-1 -4,0 0,-1 -4,0 0,-1 -4,0 0,-1 -4,0 0,-1 -4,0 0,-1 -3,0 0,-1 -4,0 0,-1 -4,0 0,-1 -4,0 0,-1 -4,0 0,-1 -3,0 0,-1 -4,0 0,-1 -4,0 0,-1 -4,0 0,-1 -3,0 0,-1 -4,0 0,-1 -4,0 0,-1 -3,0 0,-1 -4,0 0,-1 -4,0 0,-1 -3,0 0,-1 -4,0 0,-1 -3,0 0,-1 -3,0 0,-1 -3,0 0,-1 -3,0 0,-1 -4,0 0,-1 -2,0 0,-1 -3,0 0,-1 -2,0 0,-1 -3,0 0,-1 -2,0 0,-1 -3,0 0,-1 -2,0 0,-1 -2,0 0,-1 -2,0 0,-1 -2,0 0,-1 -2,0 0,-1 -2,0 0,-1 -2,0 0,-1 -2,0 0,-1 -2,0 0,-1 -2,0 0,-1 -1,0 0,-1 -2,0 0,-1 -2,0 0,-1 -1,0 0,-1 -2,0 0,-1 -2,0 0,-1 -1,0 0,-1 -2,0 0,-1 -1,0 0,-1 -1,0 0,-1 -2,0 0,-1 -1,0 0,-1 -2,0 0,-1 -1,0 0,-1 -1,0 0,-1 -2,0 0,-1 -1,0 0,-1 -1,0 0,-1 -1,0 0,-1 -1,0 0,-1 -2,0 0,-1 -1,0 0,-1 -1,0 0,-1 -1,0 0,-1 -1,0 0,-1 -1,0 0,-1 -1,0 0,-1 -1,0 0,-1 -1,0 0,-1 -1,0 0,-1 -1,0 0,-1 -1,0 0,-1 -1,0 0,-1 -1,0 0,-1 -1,0 0,-1 -1,0 0,-1 -1,0 0,-1 -1,0 0,-2 -1,0 0,-1 -1,0 0,-1 -1,0 0,-1 -1,0 0,-2 -1,0 0,-1 -1,0 0,-1 -1,0 0,-1 -1,0 0,-2 -1,0 0,-1 -1,0 0,-2 -1,0 0,-1 -1,0 0,-2 -1,0 0,-1 -1,0 0,-2 -1,0 0,-1 -1,0 0,-2 -1,0 0,-2 -1,0 0,-2 -1,0 0,-2 -1,0 0,-2 -1,0 0,-1 -1,0 0,-2 -1,0 0,-2 -1,0 0,-3 -1,0 0,-2 -1,0 0,-2 -1,0 0,-3 -1,0 0,-2 -1,0 0,-3 -1,0 0,-3 -1,0 0,-3 -1,0 0,-3 -1,0 0,-3 -1,0 0,-3 -1,0 0,-4 -1,0 0,-4 -1,0 0,-4 -1,0 0,-6 -1,0 0,-6 -1,0 0,-6 -1,0 0,-10 -1,0 0,-18 -1,0 0,-10 1,0 0,-16 1,0 0,-7 1,0 0,-6 1,0 0,-5 1,0 0,-4 1,0 0,-4 1,0 0,-4 1,0 0,-4 1,0 0,-2 1,0 0,-3 1,0 0,-3 1,0 0,-3 1,0 0,-2 1,0 0,-3 1,0 0,-2 1,0 0,-2 1,0 0,-2 1,0 0,-2 1,0 0,-2 1,0 0,-2 1,0 0,-3 1,0 0,-1 1,0 0,-2 1,0 0,-2 1,0 0,-1 1,0 0,-2 1,0 0,-2 1,0 0,-1 1,0 0,-2 1,0 0,-2 1,0 0,-1 1,0 0,-1 1,0 0,-2 1,0 0,-1 1,0 0,-1 1,0 0,-2 1,0 0,-1 1,0 0,-1 1,0 0,-2 1,0 0,-1 1,0 0,-1 1,0 0,-1 1,0 0,-1 1,0 0,-2 1,0 0,-1 1,0 0,-1 1,0 0,-1 1,0 0,-1 1,0 0,-1 1,0 0,-1 1,0 0,-1 1,0 0,-1 1,0 0,-1 1,0 0,-1 1,0 0,-1 1,0 0,-1 1,0 0,-1 1,0 0,-1 1,0 0,-1 1,0 0,-1 1,0 0,-1 1,0 0,-1 2,0 0,-1 1,0 0,-1 1,0 0,-1 1,0 0,-1 2,0 0,-1 1,0 0,-1 1,0 0,-1 2,0 0,-1 1,0 0,-1 1,0 0,-1 2,0 0,-1 1,0 0,-1 1,0 0,-1 2,0 0,-1 2,0 0,-1 1,0 0,-1 2,0 0,-1 1,0 0,-1 2,0 0,-1 2,0 0,-1 1,0 0,-1 2,0 0,-1 2,0 0,-1 2,0 0,-1 2,0 0,-1 2,0 0,-1 2,0 0,-1 2,0 0,-1 3,0 0,-1 2,0 0,-1 3,0 0,-1 2,0 0,-1 3,0 0,-1 3,0 0,-1 3,0 0,-1 3,0 0,-1 4,0 0,-1 4,0 0,-1 4,0 0,-1 4,0 0,-1 7,0 0,-1 6,0 0,-1 13,0 0,-1 19,0 0,1 11,0 0,1 7,0 0,1 6,0 0,1 5,0 0,1 4,0 0,1 4,0 0,1 4,0 0,1 3,0 0,1 4,0 0,1 3,0 0,1 3,0 0,1 4,0 0,1 3,0 0,1 3,0 0,1 3,0 0,1 3,0 0,1 3,0 0,1 3,0 0,1 4,0 0,1 3,0 0,1 3,0 0,1 4,0 0,1 3,0 0,1 4,0 0,1 3,0 0,1 4,0 0,1 4,0 0,1 4,0 0,1 4,0 0,1 4,0 0,1 4,0 0,1 4,0 0,1 4,0 0,1 4,0 0,1 4,0 0,1 4,0 0,1 4,0 0,1 4,0 0,1 4,0 0,1 4,0 0,1 4,0 0,1 4,0 0,1 4,0 0,1 4,0 0,1 4,0 0,1 4,0 0,1 5,0 0,1 5,0 0,1 4,0 0,1 5,0 0,1 4,0 0,1 5,0 0,1 5,0 0,1 4,0 0,1 5,0 0,1 4,0 0,1 5,0 0,1 4,0 0,1 5,0 0,1 5,0 0,1 4,0 0,1 5,0 0,1 4,0 0,1 6,0 0,1 5,0 0,1 5,0 0,1 6,0 0,1 5,0 0,1 5,0 0,1 6,0 0,1 5,0 0,1 6,0 0,1 5,0 0,1 5,0 0,1 6,0 0,1 5,0 0,1 5,0 0,1 6,0 0,1 5,0 0,1 6,0 0,1 7,0 0,1 6,0 0,1 7,0 0,1 6,0 0,1 7,0 0,1 6,0 0,1 7,0 0,1 7,0 0,1 6,0 0,1 7,0 0,1 6,0 0,1 7,0 0,1 6,0 0,1 8,0 0,1 8,0 0,1 9,0 0,1 8,0 0,1 8,0 0,1 9,0 0,1 8,0 0,1 8,0 0,1 9,0 0,1 8,0 0,1 8,0 0,1 9,0 0,1 12,0 0,1 12,0 0,1 11,0 0,1 12,0 0,1 11,0 0,1 12,0 0,1 12,0 0,1 11,0 0,1 17,0 0,1 19,0 0,1 20,0 0,1 19,0 0,1 19,0 0,1 33,0 0,1 58,0 0,1 60,0 0,-1 62,0 0,-1 29,0 0,-1 21,0 0,-1 20,0 0,-1 21,0 0,-1 21,0 0,-1 14,0 0,-1 12,0 0,-1 13,0 0,-1 12,0 0,-1 13,0 0,-1 12,0 0,-1 12,0 0,-1 13,0 0,-1 10,0 0,-1 9,0 0,-1 9,0 0,-1 9,0 0,-1 9,0 0,-1 9,0 0,-1 9,0 0,-1 9,0 0,-1 8,0 0,-1 9,0 0,-1 9,0 0,-1 9,0 0,-1 7,0 0,-1 7,0 0,-1 6,0 0,-1 7,0 0,-1 7,0 0,-1 7,0 0,-1 7,0 0,-1 7,0 0,-1 7,0 0,-1 7,0 0,-1 7,0 0,-1 7,0 0,-1 6,0 0,-1 7,0 0,-1 6,0 0,-1 6,0 0,-1 6,0 0,-1 5,0 0,-1 6,0 0,-1 5,0 0,-1 6,0 0,-1 6,0 0,-1 5,0 0,-1 6,0 0,-1 6,0 0,-1 5,0 0,-1 6,0 0,-1 6,0 0,-1 5,0 0,-1 6,0 0,-1 5,0 0,-1 6,0 0,-1 4,0 0,-1 5,0 0,-1 5,0 0,-1 5,0 0,-1 4,0 0,-1 5,0 0,-1 5,0 0,-1 5,0 0,-1 4,0 0,-1 5,0 0,-1 5,0 0,-1 5,0 0,-1 4,0 0,-1 5,0 0,-1 5,0 0,-1 5,0 0,-1 4,0 0,-1 5,0 0,-1 5,0 0,-1 4,0 0,-1 4,0 0,-1 5,0 0,-1 4,0 0,-1 4,0 0,-1 4,0 0,-1 4,0 0,-1 4,0 0,-1 4,0 0,-1 4,0 0,-1 4,0 0,-1 4,0 0,-1 4,0 0,-1 5,0 0,-1 4,0 0,-1 4,0 0,-1 4,0 0,-1 4,0 0,-1 4,0 0,-1 4,0 0,-1 4,0 0,-1 4,0 0,-1 4,0 0,-1 4,0 0,-1 4,0 0,-1 3,0 0,-1 4,0 0,-1 4,0 0,-1 3,0 0,-1 4,0 0,-1 3,0 0,-1 4,0 0,-1 3,0 0,-1 4,0 0,-1 4,0 0,-1 3,0 0,-1 4,0 0,-1 3,0 0,-1 4,0 0,-1 4,0 0,-1 3,0 0,-1 4,0 0,-1 3,0 0,-1 4,0 0,-1 4,0 0,-1 3,0 0,-1 4,0 0,-1 3,0 0,-1 4,0 0,-1 3,0 0,-1 3,0 0,-1 3,0 0,-1 4,0 0,-1 3,0 0,-1 3,0 0,-1 3,0 0,-1 3,0 0,-1 3,0 0,-1 4,0 0,-1 3,0 0,-1 3,0 0,-1 3,0 0,-1 3,0 0,-1 4,0 0,-1 3,0 0,-1 3,0 0,-1 3,0 0,-1 3,0 0,-1 3,0 0,-1 4,0 0,-1 3,0 0,-1 3,0 0,-1 3,0 0,-1 3,0 0,-1 4,0 0,-1 3,0 0,-1 3,0 0,-1 3,0 0,-1 2,0 0,-1 3,0 0,-1 3,0 0,-1 3,0 0,-1 3,0 0,-1 3,0 0,-1 3,0 0,-1 2,0 0,-1 3,0 0,-1 3,0 0,-1 3,0 0,-1 3,0 0,-1 3,0 0,-1 3,0 0,-1 2,0 0,-1 3,0 0,-1 3,0 0,-1 3,0 0,-1 3,0 0,-1 3,0 0,-1 2,0 0,-1 3,0 0,-1 3,0 0,-1 3,0 0,-1 3,0 0,-1 3,0 0,-1 3,0 0,-1 2,0 0,-1 3,0 0,-1 3,0 0,-1 2,0 0,-1 3,0 0,-1 2,0 0,-1 3,0 0,-1 3,0 0,-1 2,0 0,-1 3,0 0,-1 2,0 0,-1 3,0 0,-1 2,0 0,-1 3,0 0,-1 3,0 0,-1 2,0 0,-1 3,0 0,-1 2,0 0,-1 3,0 0,-1 2,0 0,-1 3,0 0,-1 3,0 0,-1 2,0 0,-1 3,0 0,-1 2,0 0,-1 3,0 0,-1 2,0 0,-1 3,0 0,-1 3,0 0,-1 2,0 0,-1 3,0 0,-1 2,0 0,-1 3,0 0,-1 2,0 0,-1 3,0 0,-1 2,0 0,-1 2,0 0,-1 3,0 0,-1 2,0 0,-1 2,0 0,-1 3,0 0,-1 2,0 0,-1 2,0 0,-1 3,0 0,-1 2,0 0,-1 2,0 0,-1 3,0 0,-1 2,0 0,-1 2,0 0,-1 3,0 0,-1 2,0 0,-1 2,0 0,-1 3,0 0,-1 2,0 0,-1 2,0 0,-1 3,0 0,-1 2,0 0,-1 2,0 0,-1 3,0 0,-1 2,0 0,-1 2,0 0,-1 3,0 0,-1 2,0 0,-1 2,0 0,-1 3,0 0,-1 2,0 0,-1 2,0 0,-1 3,0 0,-1 2,0 0,-1 2,0 0,-1 2,0 0,-1 2,0 0,-1 2,0 0,-1 2,0 0,-1 3,0 0,-1 2,0 0,-1 2,0 0,-1 2,0 0,-1 2,0 0,-1 2,0 0,-1 2,0 0,-1 2,0 0,-1 2,0 0,-1 3,0 0,-1 2,0 0,-1 2,0 0,-1 2,0 0,-1 2,0 0,-1 2,0 0,-1 2,0 0,-1 2,0 0,-1 3,0 0,-1 2,0 0,-1 2,0 0,-1 2,0 0,-1 2,0 0,-1 2,0 0,-1 2,0 0,-1 2,0 0,-1 2,0 0,-1 3,0 0,-1 2,0 0,-1 2,0 0,-1 2,0 0,-1 2,0 0,-1 2,0 0,-1 2,0 0,-1 2,0 0,-1 2,0 0,-1 2,0 0,-1 2,0 0,-1 2,0 0,-1 2,0 0,-1 2,0 0,-1 1,0 0,-1 2,0 0,-1 2,0 0,-1 2,0 0,-1 2,0 0,-1 2,0 0,-1 2,0 0,-1 2,0 0,-1 2,0 0,-1 2,0 0,-1 2,0 0,-1 2,0 0,-1 2,0 0,-1 2,0 0,-1 1,0 0,-1 2,0 0,-1 2,0 0,-1 2,0 0,-1 2,0 0,-1 2,0 0,-1 2,0 0,-1 2,0 0,-1 2,0 0,-1 2,0 0,-1 2,0 0,-1 2,0 0,-1 2,0 0,-1 2,0 0,-1 1,0 0,-1 2,0 0,-1 2,0 0,-1 2,0 0,-1 2,0 0,-1 1,0 0,-1 2,0 0,-1 2,0 0,-1 2,0 0,-1 2,0 0,-1 1,0 0,-1 2,0 0,-1 2,0 0,-1 2,0 0,-1 1,0 0,-1 2,0 0,-1 2,0 0,-1 2,0 0,-1 1,0 0,-1 2,0 0,-1 2,0 0,-1 2,0 0,-1 1,0 0,-1 2,0 0,-1 2,0 0,-1 2,0 0,-1 2,0 0,-1 1,0 0,-1 2,0 0,-1 2,0 0,-1 2,0 0,-1 1,0 0,-1 2,0 0,-1 2,0 0,-1 2,0 0,-1 1,0 0,-1 2,0 0,-1 2,0 0,-1 2,0 0,-1 1,0 0,-1 2,0 0,-1 2,0 0,-1 2,0 0,-1 1,0 0,-1 2,0 0,-1 2,0 0,-1 2,0 0,-1 1,0 0,-1 2,0 0,-1 2,0 0,-1 1,0 0,-1 2,0 0,-1 2,0 0,-1 2,0 0,-1 2,0 0,-1 1,0 0,-1 2,0 0,-1 2,0 0,-1 2,0 0,-1 2,0 0,-1 2,0 0,-1 2,0 0,-1 2,0 0,-1 2,0 0,-1 2,0 0,-1 2,0 0,-1 2,0 0,-1 2,0 0,-1 3,0 0,-1 2,0 0,-1 3,0 0,-1 3,0 0,-1 2,0 0,-1 3,0 0,-1 3,0 0,-1 4,0 0,-1 4,0 0,-1 4,0 0,-1 4,0 0,-1 7,0 0,-1 6,0 0,-1 17,0 z m 265,704 0,-1 40,0 0,1 8,0 0,1 6,0 0,1 7,0 0,1 5,0 0,1 4,0 0,1 4,0 0,1 4,0 0,1 4,0 0,1 3,0 0,1 3,0 0,1 3,0 0,1 3,0 0,1 2,0 0,1 3,0 0,1 3,0 0,1 2,0 0,1 2,0 0,1 3,0 0,1 2,0 0,1 2,0 0,1 2,0 0,1 2,0 0,1 3,0 0,1 2,0 0,1 1,0 0,1 2,0 0,1 2,0 0,1 1,0 0,1 2,0 0,1 2,0 0,1 2,0 0,1 1,0 0,1 2,0 0,1 2,0 0,1 1,0 0,1 1,0 0,1 2,0 0,1 1,0 0,1 2,0 0,1 1,0 0,1 1,0 0,1 2,0 0,1 1,0 0,1 2,0 0,1 1,0 0,1 1,0 0,1 2,0 0,1 1,0 0,1 1,0 0,1 1,0 0,1 1,0 0,1 1,0 0,1 1,0 0,1 2,0 0,1 1,0 0,1 1,0 0,1 1,0 0,1 1,0 0,1 1,0 0,1 1,0 0,1 1,0 0,1 1,0 0,1 1,0 0,1 1,0 0,1 1,0 0,1 1,0 0,1 1,0 0,1 1,0 0,1 1,0 0,1 1,0 0,1 1,0 0,1 1,0 0,1 1,0 0,1 1,0 0,2 1,0 0,1 1,0 0,1 1,0 0,2 1,0 0,1 1,0 0,1 1,0 0,1 1,0 0,2 1,0 0,1 1,0 0,1 1,0 0,2 1,0 0,1 1,0 0,1 1,0 0,2 1,0 0,1 1,0 0,2 1,0 0,2 1,0 0,1 1,0 0,2 1,0 0,1 1,0 0,2 1,0 0,2 1,0 0,1 1,0 0,2 1,0 0,2 1,0 0,2 1,0 0,2 1,0 0,2 1,0 0,2 1,0 0,2 1,0 0,2 1,0 0,2 1,0 0,2 1,0 0,3 1,0 0,2 1,0 0,3 1,0 0,3 1,0 0,2 1,0 0,3 1,0 0,3 1,0 0,3 1,0 0,4 1,0 0,4 1,0 0,3 1,0 0,4 1,0 0,4 1,0 0,6 1,0 0,7 1,0 0,6 1,0 0,14 1,0 0,32 -1,0 0,12 -1,0 0,9 -1,0 0,6 -1,0 0,7 -1,0 0,5 -1,0 0,4 -1,0 0,5 -1,0 0,4 -1,0 0,4 -1,0 0,3 -1,0 0,3 -1,0 0,4 -1,0 0,3 -1,0 0,2 -1,0 0,3 -1,0 0,3 -1,0 0,2 -1,0 0,3 -1,0 0,2 -1,0 0,2 -1,0 0,2 -1,0 0,2 -1,0 0,3 -1,0 0,2 -1,0 0,2 -1,0 0,1 -1,0 0,2 -1,0 0,2 -1,0 0,2 -1,0 0,1 -1,0 0,2 -1,0 0,2 -1,0 0,1 -1,0 0,2 -1,0 0,1 -1,0 0,2 -1,0 0,1 -1,0 0,2 -1,0 0,1 -1,0 0,2 -1,0 0,1 -1,0 0,1 -1,0 0,2 -1,0 0,1 -1,0 0,1 -1,0 0,2 -1,0 0,1 -1,0 0,1 -1,0 0,1 -1,0 0,1 -1,0 0,2 -1,0 0,1 -1,0 0,1 -1,0 0,1 -1,0 0,1 -1,0 0,1 -1,0 0,1 -1,0 0,1 -1,0 0,1 -1,0 0,1 -1,0 0,1 -1,0 0,1 -1,0 0,1 -1,0 0,1 -1,0 0,1 -1,0 0,1 -1,0 0,1 -1,0 0,1 -1,0 0,1 -1,0 0,1 -1,0 0,1 -2,0 0,1 -1,0 0,1 -1,0 0,1 -1,0 0,1 -1,0 0,1 -2,0 0,1 -1,0 0,1 -1,0 0,1 -1,0 0,1 -2,0 0,1 -1,0 0,1 -1,0 0,1 -2,0 0,1 -1,0 0,1 -1,0 0,1 -2,0 0,1 -1,0 0,1 -2,0 0,1 -1,0 0,1 -2,0 0,1 -1,0 0,1 -2,0 0,1 -1,0 0,1 -2,0 0,1 -1,0 0,1 -2,0 0,1 -1,0 0,1 -2,0 0,1 -2,0 0,1 -1,0 0,1 -2,0 0,1 -2,0 0,1 -2,0 0,1 -1,0 0,1 -2,0 0,1 -2,0 0,1 -2,0 0,1 -1,0 0,1 -2,0 0,1 -2,0 0,1 -2,0 0,1 -1,0 0,1 -2,0 0,1 -2,0 0,1 -2,0 0,1 -1,0 0,1 -2,0 0,1 -2,0 0,1 -2,0 0,1 -1,0 0,1 -2,0 0,1 -2,0 0,1 -2,0 0,1 -1,0 0,1 -2,0 0,1 -2,0 0,1 -2,0 0,1 -1,0 0,1 -2,0 0,1 -2,0 0,1 -2,0 0,1 -2,0 0,1 -1,0 0,1 -2,0 0,1 -2,0 0,1 -2,0 0,1 -2,0 0,1 -2,0 0,1 -1,0 0,1 -2,0 0,1 -2,0 0,1 -2,0 0,1 -2,0 0,1 -2,0 0,1 -2,0 0,1 -1,0 0,1 -2,0 0,1 -2,0 0,1 -2,0 0,1 -2,0 0,1 -2,0 0,1 -2,0 0,1 -1,0 0,1 -2,0 0,1 -2,0 0,1 -2,0 0,1 -2,0 0,1 -2,0 0,1 -2,0 0,1 -2,0 0,1 -2,0 0,1 -2,0 0,1 -2,0 0,1 -2,0 0,1 -2,0 0,1 -1,0 0,1 -2,0 0,1 -2,0 0,1 -2,0 0,1 -2,0 0,1 -2,0 0,1 -2,0 0,1 -2,0 0,1 -2,0 0,1 -2,0 0,1 -2,0 0,1 -2,0 0,1 -2,0 0,1 -2,0 0,1 -2,0 0,1 -2,0 0,1 -2,0 0,1 -2,0 0,1 -2,0 0,1 -2,0 0,1 -2,0 0,1 -2,0 0,1 -2,0 0,1 -2,0 0,1 -2,0 0,1 -2,0 0,1 -2,0 0,1 -3,0 0,1 -2,0 0,1 -2,0 0,1 -2,0 0,1 -2,0 0,1 -2,0 0,1 -2,0 0,1 -2,0 0,1 -2,0 0,1 -2,0 0,1 -2,0 0,1 -2,0 0,1 -2,0 0,1 -3,0 0,1 -2,0 0,1 -2,0 0,1 -2,0 0,1 -2,0 0,1 -2,0 0,1 -2,0 0,1 -3,0 0,1 -2,0 0,1 -2,0 0,1 -2,0 0,1 -2,0 0,1 -3,0 0,1 -2,0 0,1 -2,0 0,1 -2,0 0,1 -2,0 0,1 -3,0 0,1 -2,0 0,1 -2,0 0,1 -2,0 0,1 -2,0 0,1 -3,0 0,1 -2,0 0,1 -2,0 0,1 -2,0 0,1 -2,0 0,1 -3,0 0,1 -2,0 0,1 -2,0 0,1 -3,0 0,1 -2,0 0,1 -2,0 0,1 -3,0 0,1 -2,0 0,1 -2,0 0,1 -3,0 0,1 -2,0 0,1 -2,0 0,1 -3,0 0,1 -2,0 0,1 -2,0 0,1 -3,0 0,1 -2,0 0,1 -2,0 0,1 -3,0 0,1 -2,0 0,1 -2,0 0,1 -3,0 0,1 -2,0 0,1 -2,0 0,1 -3,0 0,1 -2,0 0,1 -3,0 0,1 -2,0 0,1 -3,0 0,1 -2,0 0,1 -2,0 0,1 -3,0 0,1 -2,0 0,1 -3,0 0,1 -2,0 0,1 -3,0 0,1 -2,0 0,1 -3,0 0,1 -2,0 0,1 -3,0 0,1 -2,0 0,1 -3,0 0,1 -2,0 0,1 -2,0 0,1 -3,0 0,1 -2,0 0,1 -3,0 0,1 -3,0 0,1 -2,0 0,1 -3,0 0,1 -2,0 0,1 -3,0 0,1 -3,0 0,1 -2,0 0,1 -3,0 0,1 -3,0 0,1 -2,0 0,1 -3,0 0,1 -2,0 0,1 -3,0 0,1 -3,0 0,1 -2,0 0,1 -3,0 0,1 -2,0 0,1 -3,0 0,1 -3,0 0,1 -2,0 0,1 -3,0 0,1 -3,0 0,1 -3,0 0,1 -2,0 0,1 -3,0 0,1 -3,0 0,1 -3,0 0,1 -2,0 0,1 -3,0 0,1 -3,0 0,1 -3,0 0,1 -2,0 0,1 -3,0 0,1 -3,0 0,1 -3,0 0,1 -2,0 0,1 -3,0 0,1 -3,0 0,1 -3,0 0,1 -3,0 0,1 -2,0 0,1 -3,0 0,1 -3,0 0,1 -3,0 0,1 -3,0 0,1 -3,0 0,1 -3,0 0,1 -3,0 0,1 -3,0 0,1 -3,0 0,1 -3,0 0,1 -3,0 0,1 -3,0 0,1 -3,0 0,1 -3,0 0,1 -2,0 0,1 -3,0 0,1 -3,0 0,1 -3,0 0,1 -3,0 0,1 -3,0 0,1 -3,0 0,1 -4,0 0,1 -3,0 0,1 -3,0 0,1 -3,0 0,1 -3,0 0,1 -3,0 0,1 -3,0 0,1 -3,0 0,1 -4,0 0,1 -3,0 0,1 -3,0 0,1 -3,0 0,1 -3,0 0,1 -3,0 0,1 -3,0 0,1 -3,0 0,1 -4,0 0,1 -3,0 0,1 -3,0 0,1 -4,0 0,1 -3,0 0,1 -3,0 0,1 -4,0 0,1 -3,0 0,1 -3,0 0,1 -3,0 0,1 -4,0 0,1 -3,0 0,1 -3,0 0,1 -4,0 0,1 -3,0 0,1 -3,0 0,1 -4,0 0,1 -3,0 0,1 -4,0 0,1 -3,0 0,1 -4,0 0,1 -3,0 0,1 -4,0 0,1 -3,0 0,1 -4,0 0,1 -3,0 0,1 -4,0 0,1 -3,0 0,1 -4,0 0,1 -3,0 0,1 -4,0 0,1 -4,0 0,1 -3,0 0,1 -4,0 0,1 -3,0 0,1 -4,0 0,1 -4,0 0,1 -4,0 0,1 -3,0 0,1 -4,0 0,1 -4,0 0,1 -4,0 0,1 -3,0 0,1 -4,0 0,1 -4,0 0,1 -4,0 0,1 -4,0 0,1 -3,0 0,1 -4,0 0,1 -4,0 0,1 -4,0 0,1 -4,0 0,1 -4,0 0,1 -4,0 0,1 -4,0 0,1 -4,0 0,1 -4,0 0,1 -4,0 0,1 -4,0 0,1 -4,0 0,1 -4,0 0,1 -4,0 0,1 -4,0 0,1 -4,0 0,1 -4,0 0,1 -5,0 0,1 -4,0 0,1 -4,0 0,1 -5,0 0,1 -4,0 0,1 -4,0 0,1 -5,0 0,1 -4,0 0,1 -4,0 0,1 -5,0 0,1 -4,0 0,1 -4,0 0,1 -4,0 0,1 -5,0 0,1 -4,0 0,1 -5,0 0,1 -5,0 0,1 -4,0 0,1 -5,0 0,1 -5,0 0,1 -4,0 0,1 -5,0 0,1 -5,0 0,1 -4,0 0,1 -5,0 0,1 -5,0 0,1 -4,0 0,1 -5,0 0,1 -5,0 0,1 -5,0 0,1 -5,0 0,1 -5,0 0,1 -5,0 0,1 -5,0 0,1 -5,0 0,1 -5,0 0,1 -5,0 0,1 -5,0 0,1 -5,0 0,1 -6,0 0,1 -5,0 0,1 -5,0 0,1 -6,0 0,1 -5,0 0,1 -6,0 0,1 -5,0 0,1 -6,0 0,1 -5,0 0,1 -6,0 0,1 -5,0 0,1 -5,0 0,1 -6,0 0,1 -6,0 0,1 -6,0 0,1 -6,0 0,1 -6,0 0,1 -6,0 0,1 -6,0 0,1 -6,0 0,1 -6,0 0,1 -6,0 0,1 -6,0 0,1 -6,0 0,1 -7,0 0,1 -6,0 0,1 -7,0 0,1 -6,0 0,1 -7,0 0,1 -6,0 0,1 -7,0 0,1 -6,0 0,1 -7,0 0,1 -8,0 0,1 -7,0 0,1 -7,0 0,1 -7,0 0,1 -7,0 0,1 -7,0 0,1 -8,0 0,1 -7,0 0,1 -8,0 0,1 -8,0 0,1 -8,0 0,1 -8,0 0,1 -8,0 0,1 -8,0 0,1 -8,0 0,1 -8,0 0,1 -9,0 0,1 -9,0 0,1 -9,0 0,1 -9,0 0,1 -9,0 0,1 -8,0 0,1 -10,0 0,1 -10,0 0,1 -10,0 0,1 -10,0 0,1 -10,0 0,1 -11,0 0,1 -10,0 0,1 -11,0 0,1 -12,0 0,1 -12,0 0,1 -12,0 0,1 -12,0 0,1 -13,0 0,1 -14,0 0,1 -14,0 0,1 -14,0 0,1 -14,0 0,1 -17,0 0,1 -17,0 0,1 -18,0 0,1 -19,0 0,1 -22,0 0,1 -22,0 0,1 -26,0 0,1 -31,0 0,1 -41,0 0,1 -76,0 0,1 -49,0 0,-1 -80,0 0,-1 -45,0 0,-1 -27,0 0,-1 -27,0 0,-1 -24,0 0,-1 -19,0 0,-1 -20,0 0,-1 -19,0 0,-1 -16,0 0,-1 -15,0 0,-1 -14,0 0,-1 -15,0 0,-1 -15,0 0,-1 -12,0 0,-1 -12,0 0,-1 -11,0 0,-1 -12,0 0,-1 -12,0 0,-1 -12,0 0,-1 -10,0 0,-1 -10,0 0,-1 -9,0 0,-1 -10,0 0,-1 -10,0 0,-1 -10,0 0,-1 -10,0 0,-1 -8,0 0,-1 -9,0 0,-1 -8,0 0,-1 -9,0 0,-1 -8,0 0,-1 -8,0 0,-1 -9,0 0,-1 -8,0 0,-1 -8,0 0,-1 -7,0 0,-1 -7,0 0,-1 -7,0 0,-1 -8,0 0,-1 -7,0 0,-1 -7,0 0,-1 -8,0 0,-1 -7,0 0,-1 -7,0 0,-1 -6,0 0,-1 -7,0 0,-1 -6,0 0,-1 -6,0 0,-1 -7,0 0,-1 -6,0 0,-1 -7,0 0,-1 -6,0 0,-1 -6,0 0,-1 -7,0 0,-1 -5,0 0,-1 -6,0 0,-1 -6,0 0,-1 -6,0 0,-1 -5,0 0,-1 -6,0 0,-1 -6,0 0,-1 -5,0 0,-1 -6,0 0,-1 -6,0 0,-1 -6,0 0,-1 -5,0 0,-1 -5,0 0,-1 -5,0 0,-1 -5,0 0,-1 -5,0 0,-1 -5,0 0,-1 -6,0 0,-1 -5,0 0,-1 -5,0 0,-1 -5,0 0,-1 -5,0 0,-1 -5,0 0,-1 -5,0 0,-1 -5,0 0,-1 -5,0 0,-1 -4,0 0,-1 -5,0 0,-1 -4,0 0,-1 -5,0 0,-1 -5,0 0,-1 -4,0 0,-1 -5,0 0,-1 -5,0 0,-1 -4,0 0,-1 -5,0 0,-1 -5,0 0,-1 -4,0 0,-1 -4,0 0,-1 -4,0 0,-1 -5,0 0,-1 -4,0 0,-1 -4,0 0,-1 -4,0 0,-1 -5,0 0,-1 -4,0 0,-1 -4,0 0,-1 -4,0 0,-1 -4,0 0,-1 -5,0 0,-1 -4,0 0,-1 -4,0 0,-1 -4,0 0,-1 -4,0 0,-1 -4,0 0,-1 -4,0 0,-1 -4,0 0,-1 -3,0 0,-1 -4,0 0,-1 -4,0 0,-1 -4,0 0,-1 -4,0 0,-1 -4,0 0,-1 -4,0 0,-1 -3,0 0,-1 -4,0 0,-1 -4,0 0,-1 -4,0 0,-1 -4,0 0,-1 -3,0 0,-1 -4,0 0,-1 -3,0 0,-1 -4,0 0,-1 -4,0 0,-1 -3,0 0,-1 -4,0 0,-1 -3,0 0,-1 -4,0 0,-1 -3,0 0,-1 -4,0 0,-1 -3,0 0,-1 -4,0 0,-1 -3,0 0,-1 -4,0 0,-1 -3,0 0,-1 -4,0 0,-1 -3,0 0,-1 -3,0 0,-1 -3,0 0,-1 -3,0 0,-1 -3,0 0,-1 -3,0 0,-1 -3,0 0,-1 -2,0 0,-1 -2,0 0,-1 -3,0 0,-1 -2,0 0,-1 -3,0 0,-1 -2,0 0,-1 -2,0 0,-1 -2,0 0,-1 -2,0 0,-1 -2,0 0,-1 -2,0 0,-1 -2,0 0,-1 -2,0 0,-1 -2,0 0,-1 -1,0 0,-1 -2,0 0,-1 -2,0 0,-1 -1,0 0,-1 -2,0 0,-1 -2,0 0,-1 -1,0 0,-1 -2,0 0,-1 -1,0 0,-1 -2,0 0,-1 -1,0 0,-1 -2,0 0,-1 -1,0 0,-1 -2,0 0,-1 -1,0 0,-1 -2,0 0,-1 -1,0 0,-1 -1,0 0,-1 -1,0 0,-1 -2,0 0,-1 -1,0 0,-1 -1,0 0,-1 -1,0 0,-1 -1,0 0,-1 -2,0 0,-1 -1,0 0,-1 -1,0 0,-1 -1,0 0,-1 -1,0 0,-1 -1,0 0,-1 -1,0 0,-1 -1,0 0,-1 -1,0 0,-1 -2,0 0,-1 -1,0 0,-1 -1,0 0,-1 -1,0 0,-1 -1,0 0,-1 -1,0 0,-1 -1,0 0,-1 -1,0 0,-2 -1,0 0,-1 -1,0 0,-1 -1,0 0,-1 -1,0 0,-1 -1,0 0,-1 -1,0 0,-1 -1,0 0,-1 -1,0 0,-2 -1,0 0,-1 -1,0 0,-1 -1,0 0,-1 -1,0 0,-2 -1,0 0,-1 -1,0 0,-1 -1,0 0,-2 -1,0 0,-1 -1,0 0,-1 -1,0 0,-2 -1,0 0,-1 -1,0 0,-2 -1,0 0,-1 -1,0 0,-2 -1,0 0,-2 -1,0 0,-1 -1,0 0,-2 -1,0 0,-1 -1,0 0,-2 -1,0 0,-2 -1,0 0,-1 -1,0 0,-2 -1,0 0,-2 -1,0 0,-2 -1,0 0,-2 -1,0 0,-2 -1,0 0,-2 -1,0 0,-2 -1,0 0,-2 -1,0 0,-3 -1,0 0,-2 -1,0 0,-3 -1,0 0,-2 -1,0 0,-3 -1,0 0,-2 -1,0 0,-3 -1,0 0,-4 -1,0 0,-3 -1,0 0,-3 -1,0 0,-4 -1,0 0,-3 -1,0 0,-4 -1,0 0,-5 -1,0 0,-5 -1,0 0,-5 -1,0 0,-6 -1,0 0,-8 -1,0 0,-8 -1,0 0,-23 -1,0 0,-1 1,0 0,-21 1,0 0,-7 1,0 0,-7 1,0 0,-7 1,0 0,-5 1,0 0,-4 1,0 0,-4 1,0 0,-4 1,0 0,-4 1,0 0,-3 1,0 0,-3 1,0 0,-3 1,0 0,-3 1,0 0,-3 1,0 0,-3 1,0 0,-2 1,0 0,-3 1,0 0,-2 1,0 0,-2 1,0 0,-2 1,0 0,-3 1,0 0,-2 1,0 0,-2 1,0 0,-2 1,0 0,-2 1,0 0,-2 1,0 0,-2 1,0 0,-1 1,0 0,-2 1,0 0,-2 1,0 0,-1 1,0 0,-2 1,0 0,-2 1,0 0,-2 1,0 0,-1 1,0 0,-2 1,0 0,-1 1,0 0,-2 1,0 0,-1 1,0 0,-1 1,0 0,-2 1,0 0,-1 1,0 0,-2 1,0 0,-1 1,0 0,-1 1,0 0,-2 1,0 0,-1 1,0 0,-1 1,0 0,-2 1,0 0,-1 1,0 0,-1 1,0 0,-1 1,0 0,-1 1,0 0,-1 1,0 0,-1 1,0 0,-1 1,0 0,-2 1,0 0,-1 1,0 0,-1 1,0 0,-1 1,0 0,-1 1,0 0,-1 1,0 0,-1 1,0 0,-1 1,0 0,-1 1,0 0,-1 1,0 0,-1 1,0 0,-1 1,0 0,-1 1,0 0,-1 2,0 0,-1 1,0 0,-1 1,0 0,-1 1,0 0,-1 1,0 0,-1 1,0 0,-1 1,0 0,-1 1,0 0,-1 2,0 0,-1 1,0 0,-1 1,0 0,-1 2,0 0,-1 1,0 0,-1 1,0 0,-1 2,0 0,-1 1,0 0,-1 1,0 0,-1 2,0 0,-1 1,0 0,-1 2,0 0,-1 1,0 0,-1 2,0 0,-1 1,0 0,-1 2,0 0,-1 2,0 0,-1 1,0 0,-1 2,0 0,-1 2,0 0,-1 1,0 0,-1 2,0 0,-1 2,0 0,-1 2,0 0,-1 2,0 0,-1 2,0 0,-1 2,0 0,-1 2,0 0,-1 2,0 0,-1 2,0 0,-1 3,0 0,-1 2,0 0,-1 3,0 0,-1 3,0 0,-1 2,0 0,-1 3,0 0,-1 3,0 0,-1 3,0 0,-1 3,0 0,-1 4,0 0,-1 4,0 0,-1 4,0 0,-1 4,0 0,-1 5,0 0,-1 6,0 0,-1 7,0 0,-1 8,0 0,-1 20,0 0,-1 1,0 0,1 17,0 0,1 8,0 0,1 7,0 0,1 5,0 0,1 5,0 0,1 5,0 0,1 4,0 0,1 4,0 0,1 4,0 0,1 4,0 0,1 4,0 0,1 3,0 0,1 4,0 0,1 4,0 0,1 3,0 0,1 3,0 0,1 4,0 0,1 3,0 0,1 4,0 0,1 3,0 0,1 3,0 0,1 4,0 0,1 4,0 0,1 3,0 0,1 4,0 0,1 4,0 0,1 4,0 0,1 4,0 0,1 4,0 0,1 4,0 0,1 4,0 0,1 4,0 0,1 4,0 0,1 4,0 0,1 4,0 0,1 4,0 0,1 4,0 0,1 4,0 0,1 4,0 0,1 5,0 0,1 4,0 0,1 4,0 0,1 4,0 0,1 4,0 0,1 4,0 0,1 4,0 0,1 4,0 0,1 4,0 0,1 4,0 0,1 4,0 0,1 4,0 0,1 4,0 0,1 5,0 0,1 4,0 0,1 5,0 0,1 5,0 0,1 5,0 0,1 5,0 0,1 5,0 0,1 5,0 0,1 4,0 0,1 5,0 0,1 5,0 0,1 5,0 0,1 5,0 0,1 5,0 0,1 4,0 0,1 5,0 0,1 5,0 0,1 5,0 0,1 5,0 0,1 5,0 0,1 5,0 0,1 4,0 0,1 5,0 0,1 6,0 0,1 6,0 0,1 6,0 0,1 6,0 0,1 6,0 0,1 6,0 0,1 6,0 0,1 6,0 0,1 6,0 0,1 6,0 0,1 6,0 0,1 6,0 0,1 6,0 0,1 6,0 0,1 6,0 0,1 6,0 0,1 6,0 0,1 6,0 0,1 6,0 0,1 7,0 0,1 8,0 0,1 7,0 0,1 8,0 0,1 8,0 0,1 7,0 0,1 8,0 0,1 7,0 0,1 8,0 0,1 7,0 0,1 8,0 0,1 8,0 0,1 7,0 0,1 8,0 0,1 7,0 0,1 10,0 0,1 10,0 0,1 10,0 0,1 11,0 0,1 10,0 0,1 10,0 0,1 10,0 0,1 10,0 0,1 10,0 0,1 10,0 0,1 10,0 0,1 13,0 0,1 14,0 0,1 15,0 0,1 14,0 0,1 15,0 0,1 15,0 0,1 14,0 0,1 15,0 0,1 20,0 0,1 25,0 0,1 25,0 0,1 25,0 0,1 25,0 0,1 72,0 0,1 117,0 0,-1 48,0 0,-1 30,0 0,-1 29,0 0,-1 21,0 0,-1 21,0 0,-1 20,0 0,-1 16,0 0,-1 17,0 0,-1 16,0 0,-1 14,0 0,-1 14,0 0,-1 13,0 0,-1 14,0 0,-1 12,0 0,-1 12,0 0,-1 11,0 0,-1 11,0 0,-1 12,0 0,-1 11,0 0,-1 10,0 0,-1 9,0 0,-1 10,0 0,-1 10,0 0,-1 10,0 0,-1 9,0 0,-1 9,0 0,-1 9,0 0,-1 8,0 0,-1 9,0 0,-1 9,0 0,-1 8,0 0,-1 8,0 0,-1 8,0 0,-1 8,0 0,-1 8,0 0,-1 7,0 0,-1 8,0 0,-1 8,0 0,-1 7,0 0,-1 7,0 0,-1 7,0 0,-1 7,0 0,-1 7,0 0,-1 7,0 0,-1 7,0 0,-1 7,0 0,-1 7,0 0,-1 7,0 0,-1 6,0 0,-1 6,0 0,-1 7,0 0,-1 6,0 0,-1 6,0 0,-1 7,0 0,-1 6,0 0,-1 6,0 0,-1 6,0 0,-1 6,0 0,-1 6,0 0,-1 6,0 0,-1 5,0 0,-1 6,0 0,-1 6,0 0,-1 6,0 0,-1 6,0 0,-1 5,0 0,-1 6,0 0,-1 5,0 0,-1 5,0 0,-1 6,0 0,-1 5,0 0,-1 5,0 0,-1 6,0 0,-1 5,0 0,-1 5,0 0,-1 6,0 0,-1 5,0 0,-1 5,0 0,-1 5,0 0,-1 5,0 0,-1 4,0 0,-1 5,0 0,-1 5,0 0,-1 5,0 0,-1 5,0 0,-1 5,0 0,-1 5,0 0,-1 5,0 0,-1 4,0 0,-1 5,0 0,-1 5,0 0,-1 4,0 0,-1 5,0 0,-1 4,0 0,-1 5,0 0,-1 5,0 0,-1 4,0 0,-1 5,0 0,-1 4,0 0,-1 5,0 0,-1 4,0 0,-1 4,0 0,-1 5,0 0,-1 4,0 0,-1 4,0 0,-1 4,0 0,-1 5,0 0,-1 4,0 0,-1 4,0 0,-1 5,0 0,-1 4,0 0,-1 4,0 0,-1 4,0 0,-1 4,0 0,-1 4,0 0,-1 4,0 0,-1 4,0 0,-1 4,0 0,-1 4,0 0,-1 4,0 0,-1 4,0 0,-1 4,0 0,-1 4,0 0,-1 4,0 0,-1 4,0 0,-1 4,0 0,-1 4,0 0,-1 3,0 0,-1 4,0 0,-1 4,0 0,-1 4,0 0,-1 3,0 0,-1 4,0 0,-1 4,0 0,-1 4,0 0,-1 3,0 0,-1 4,0 0,-1 4,0 0,-1 4,0 0,-1 3,0 0,-1 4,0 0,-1 3,0 0,-1 4,0 0,-1 3,0 0,-1 4,0 0,-1 3,0 0,-1 4,0 0,-1 3,0 0,-1 4,0 0,-1 3,0 0,-1 4,0 0,-1 3,0 0,-1 4,0 0,-1 3,0 0,-1 4,0 0,-1 3,0 0,-1 3,0 0,-1 3,0 0,-1 4,0 0,-1 3,0 0,-1 3,0 0,-1 4,0 0,-1 3,0 0,-1 3,0 0,-1 4,0 0,-1 3,0 0,-1 3,0 0,-1 4,0 0,-1 3,0 0,-1 3,0 0,-1 3,0 0,-1 3,0 0,-1 3,0 0,-1 3,0 0,-1 4,0 0,-1 3,0 0,-1 3,0 0,-1 3,0 0,-1 3,0 0,-1 3,0 0,-1 3,0 0,-1 3,0 0,-1 3,0 0,-1 4,0 0,-1 3,0 0,-1 3,0 0,-1 3,0 0,-1 2,0 0,-1 3,0 0,-1 3,0 0,-1 3,0 0,-1 3,0 0,-1 3,0 0,-1 3,0 0,-1 3,0 0,-1 3,0 0,-1 3,0 0,-1 3,0 0,-1 3,0 0,-1 3,0 0,-1 3,0 0,-1 3,0 0,-1 2,0 0,-1 3,0 0,-1 3,0 0,-1 3,0 0,-1 2,0 0,-1 3,0 0,-1 3,0 0,-1 3,0 0,-1 2,0 0,-1 3,0 0,-1 3,0 0,-1 3,0 0,-1 2,0 0,-1 3,0 0,-1 3,0 0,-1 3,0 0,-1 3,0 0,-1 2,0 0,-1 3,0 0,-1 2,0 0,-1 3,0 0,-1 3,0 0,-1 2,0 0,-1 3,0 0,-1 2,0 0,-1 3,0 0,-1 3,0 0,-1 2,0 0,-1 3,0 0,-1 2,0 0,-1 3,0 0,-1 3,0 0,-1 2,0 0,-1 3,0 0,-1 3,0 0,-1 2,0 0,-1 2,0 0,-1 3,0 0,-1 2,0 0,-1 3,0 0,-1 2,0 0,-1 3,0 0,-1 2,0 0,-1 3,0 0,-1 2,0 0,-1 3,0 0,-1 2,0 0,-1 3,0 0,-1 2,0 0,-1 2,0 0,-1 3,0 0,-1 2,0 0,-1 3,0 0,-1 2,0 0,-1 3,0 0,-1 2,0 0,-1 2,0 0,-1 3,0 0,-1 2,0 0,-1 2,0 0,-1 3,0 0,-1 2,0 0,-1 2,0 0,-1 3,0 0,-1 2,0 0,-1 2,0 0,-1 2,0 0,-1 3,0 0,-1 2,0 0,-1 2,0 0,-1 3,0 0,-1 2,0 0,-1 2,0 0,-1 3,0 0,-1 2,0 0,-1 2,0 0,-1 2,0 0,-1 2,0 0,-1 3,0 0,-1 2,0 0,-1 2,0 0,-1 2,0 0,-1 2,0 0,-1 3,0 0,-1 2,0 0,-1 2,0 0,-1 2,0 0,-1 2,0 0,-1 3,0 0,-1 2,0 0,-1 2,0 0,-1 2,0 0,-1 2,0 0,-1 2,0 0,-1 3,0 0,-1 2,0 0,-1 2,0 0,-1 2,0 0,-1 2,0 0,-1 2,0 0,-1 2,0 0,-1 2,0 0,-1 2,0 0,-1 2,0 0,-1 2,0 0,-1 2,0 0,-1 2,0 0,-1 2,0 0,-1 2,0 0,-1 2,0 0,-1 3,0 0,-1 2,0 0,-1 2,0 0,-1 2,0 0,-1 2,0 0,-1 2,0 0,-1 2,0 0,-1 2,0 0,-1 2,0 0,-1 1,0 0,-1 2,0 0,-1 2,0 0,-1 2,0 0,-1 2,0 0,-1 2,0 0,-1 2,0 0,-1 2,0 0,-1 2,0 0,-1 2,0 0,-1 2,0 0,-1 2,0 0,-1 2,0 0,-1 2,0 0,-1 2,0 0,-1 2,0 0,-1 2,0 0,-1 1,0 0,-1 2,0 0,-1 2,0 0,-1 2,0 0,-1 2,0 0,-1 2,0 0,-1 1,0 0,-1 2,0 0,-1 2,0 0,-1 2,0 0,-1 2,0 0,-1 2,0 0,-1 1,0 0,-1 2,0 0,-1 2,0 0,-1 2,0 0,-1 2,0 0,-1 2,0 0,-1 1,0 0,-1 2,0 0,-1 2,0 0,-1 2,0 0,-1 2,0 0,-1 1,0 0,-1 2,0 0,-1 2,0 0,-1 2,0 0,-1 1,0 0,-1 2,0 0,-1 2,0 0,-1 1,0 0,-1 2,0 0,-1 2,0 0,-1 2,0 0,-1 1,0 0,-1 2,0 0,-1 2,0 0,-1 2,0 0,-1 1,0 0,-1 2,0 0,-1 2,0 0,-1 1,0 0,-1 2,0 0,-1 2,0 0,-1 2,0 0,-1 1,0 0,-1 2,0 0,-1 2,0 0,-1 2,0 0,-1 2,0 0,-1 2,0 0,-1 2,0 0,-1 1,0 0,-1 2,0 0,-1 2,0 0,-1 2,0 0,-1 2,0 0,-1 2,0 0,-1 2,0 0,-1 2,0 0,-1 2,0 0,-1 3,0 0,-1 2,0 0,-1 2,0 0,-1 3,0 0,-1 2,0 0,-1 2,0 0,-1 3,0 0,-1 2,0 0,-1 3,0 0,-1 3,0 0,-1 3,0 0,-1 3,0 0,-1 4,0 0,-1 3,0 0,-1 4,0 0,-1 5,0 0,-1 5,0 0,-1 6,0 0,-1"
               inkscape:connector-curvature="0"
               id="path78"
               style="fill:url(#radialGradient62);fill-opacity:1;fill-rule:nonzero;stroke:none" /></g></g></g></g></g></svg>